<svg width="171" height="49" viewBox="0 0 171 49" fill="none" xmlns="http://www.w3.org/2000/svg">
<g clip-path="url(#clip0_212_6770)">
<g opacity="0.3">
<path d="M151.564 22.668C151.075 21.2559 149.977 20.3705 148.532 19.9875C146.241 19.3652 144.117 19.7362 142.196 21.2081L141.312 21.8902C139.439 19.4371 135.429 18.7431 131.98 21.3996L130.977 20.1432H127.624V36.0105H132.422V25.157C132.636 25.0134 132.744 24.9417 132.886 24.8938C135.596 23.5176 137.445 24.5946 137.505 27.6221V36.0105H142.386V25.1091C142.768 24.9057 143.162 24.7262 143.58 24.5707C145.895 23.8288 147.256 24.7382 147.458 27.1554C147.494 27.4665 147.494 27.7897 147.494 28.1008V36.0345H152.293C152.327 35.8909 152.339 35.7592 152.351 35.6037C152.351 32.4087 152.399 29.2137 152.305 26.0306C152.269 24.8938 151.934 23.757 151.564 22.668Z" fill="#0C1327"/>
<path d="M85.1306 14.758C85.1306 18.695 85.1426 22.5243 85.1187 26.3415C85.1187 27.1433 85.0471 27.9571 84.8919 28.7468C84.6174 30.0751 83.8895 31.152 82.4931 31.3675C81.3594 31.535 80.2017 31.535 79.0798 31.3675C77.8745 31.1999 77.051 30.3503 76.7646 29.1777C76.5139 28.2322 76.3827 27.251 76.3588 26.2818C76.3111 22.8354 76.3469 19.4011 76.3469 15.9547V14.758H71.2747V15.847C71.2747 19.0421 71.2628 22.2371 71.2866 25.4202C71.2866 26.7843 71.3582 28.1485 71.5014 29.5127C71.9073 32.9949 73.8168 35.3403 76.9316 36.0822C79.1754 36.6087 81.5264 36.6447 83.794 36.1899C87.1595 35.5557 89.1764 33.5454 89.9044 30.2187C90.0715 29.4649 90.1669 28.6989 90.1789 27.9211C90.2267 23.7568 90.2267 19.5685 90.2385 15.3923C90.2385 15.1889 90.2027 14.9855 90.1789 14.7461H85.1306V14.758Z" fill="#0C1327"/>
<path d="M103.392 19.9756C101.995 19.8797 100.683 19.7123 99.3697 19.7601C96.052 19.8797 93.3667 22.0337 92.4477 25.2287C91.8749 27.1913 91.8749 29.2734 92.4358 31.2479C93.3071 34.3831 95.5627 36.1781 98.7849 36.4054C100.814 36.5491 102.676 36.1541 104.346 34.9456L105.23 36.0464H108.213V13.4658H103.392V19.9756ZM103.38 31.4513C101.924 32.3966 100.36 32.6001 98.8207 31.8222C97.2693 31.0325 97.0067 29.5128 96.9828 27.9571C96.9828 27.4306 97.0545 26.9041 97.2097 26.4015C97.8421 24.1399 100.074 23.1586 102.532 24.0322C102.831 24.1279 103.093 24.2834 103.38 24.4151V31.4513Z" fill="#0C1327"/>
<path d="M125.522 28.8187C125.582 27.0476 125.355 25.3962 124.723 23.8406C123.827 21.579 122.157 20.2028 119.758 19.8079C118.887 19.6883 118.015 19.6643 117.144 19.7481C114.017 19.9515 111.595 21.9379 110.747 24.9415C110.139 26.9997 110.174 29.2016 110.807 31.2597C111.523 33.6051 113.098 35.1369 115.414 35.8908C117.108 36.4292 118.863 36.4771 120.605 36.2737C121.906 36.1181 123.135 35.7472 124.173 34.8497L124.806 31.1162C124.066 31.4273 123.409 31.7504 122.717 31.9658C121.047 32.4803 119.352 32.6478 117.657 32.1214C116.154 31.6547 115.259 30.2307 115.545 28.8066H125.522V28.8187ZM115.426 26.4134C115.676 24.4867 116.822 23.4577 118.576 23.4337C119.949 23.4337 121.369 24.391 121.512 26.4134H115.426Z" fill="#0C1327"/>
<path d="M164.972 20.1189L161.511 30.6732C160.83 28.7109 160.246 26.9876 159.66 25.2645C159.052 23.5653 158.468 21.8541 157.87 20.1308H152.512L158.862 35.4718L156.558 41.3593H161.415L169.781 20.1069H164.972V20.1189Z" fill="#0C1327"/>
<path d="M57.6889 26.9759C56.0539 28.3042 54.5502 29.5845 52.9749 30.7692C52.4139 31.176 51.7814 31.4632 51.125 31.6548C49.9315 32.0137 49.0843 31.583 48.6306 30.4102C48.3801 29.788 48.2487 29.1418 48.2011 28.4837C48.034 25.0134 47.9026 21.5431 47.7714 18.0728C47.7117 16.4813 47.6759 14.8778 47.5565 13.2863C47.4491 11.7546 47.0672 10.2588 46.2558 8.93053C44.7758 6.46545 41.0762 6.25005 39.5605 8.75104C39.1786 9.39723 38.7728 10.0554 38.4267 10.7375C36.3978 14.6863 34.4048 18.6592 32.3879 22.6081C30.0129 27.2392 27.3515 31.7265 24.1174 35.831C23.5445 36.573 22.9119 37.255 22.1959 37.8773C21.0502 38.8346 19.8329 38.4876 19.3077 37.0875C19.0571 36.3696 18.9019 35.6157 18.8542 34.8497C18.6872 32.265 19.0093 29.7042 19.5942 27.1913C20.7995 22.0577 22.1003 16.948 23.3296 11.8264C23.9502 9.21773 24.4993 6.60905 24.0456 3.89267C23.6877 1.78658 22.5898 0.47028 20.8473 0.0993211C19.0213 -0.283605 17.255 0.506179 16.1689 2.26524C15.7512 2.98322 15.3693 3.72514 15.0352 4.47902C12.7318 9.57672 9.71241 14.2316 5.77403 18.2165C4.30609 19.7243 2.63527 21.0286 0.976377 22.4646C0.916705 24.774 2.3727 26.4135 4.60446 26.5212C5.75016 26.557 6.80039 26.222 7.79095 25.6835C8.37574 25.3724 8.96054 25.0134 9.66466 24.6185C9.46178 25.5279 9.30663 26.3058 9.12762 27.0836C8.35188 30.3983 7.76709 33.7489 8.01771 37.1832C8.20866 39.7561 8.81732 42.1851 10.3688 44.3033C12.0635 46.6127 14.3669 47.7855 17.2312 47.8094C19.8567 47.8213 22.1719 46.8999 24.2844 45.3802C26.6235 43.681 28.4615 41.515 30.1084 39.1816C33.2352 34.7661 35.6222 29.9435 37.818 25.0253L38.5103 23.5894L38.6774 23.6372C38.6774 24.7861 38.6296 25.9108 38.6774 27.0477C38.7848 29.6923 39.0353 32.3128 40.0856 34.8019C41.2194 37.4704 43.1408 39.2175 46.0409 39.5766C47.5207 39.78 49.0245 39.7201 50.4805 39.4209C54.2637 38.5833 57.1758 36.4772 58.6438 32.7198C59.1688 31.3915 59.4434 29.9914 59.0137 28.5555C58.775 27.7776 58.3692 27.1793 57.6889 26.9759Z" fill="#0C1327"/>
</g>
<path d="M132.431 25.1602V36.0153H127.633V20.1456H130.988L131.99 21.4023C135.439 18.7573 139.461 19.4515 141.324 21.893L142.208 21.2108C144.129 19.7388 146.254 19.3677 148.545 19.9901C149.977 20.373 151.076 21.2586 151.577 22.6709C151.947 23.76 152.27 24.9089 152.306 26.034C152.4 29.2293 152.352 32.4249 152.352 35.6084C152.342 35.7639 152.318 35.9076 152.294 36.0393H147.496V33.2746V28.1163C147.496 27.8052 147.496 27.4821 147.46 27.1709C147.256 24.7534 145.896 23.8438 143.58 24.5858C143.162 24.7414 142.78 24.9209 142.386 25.1243V36.0272H137.504V34.8903V27.9488V27.6377C137.445 24.6097 135.582 23.5326 132.885 24.9089C132.765 24.9448 132.658 25.0286 132.431 25.1602Z" fill="black"/>
<path d="M85.1308 14.7611H90.1679C90.2037 15.0124 90.2275 15.2158 90.2275 15.4073C90.2157 19.5722 90.2157 23.7611 90.1679 27.9379C90.156 28.7158 90.0604 29.4698 89.8934 30.2358C89.1653 33.5509 87.1599 35.5735 83.7819 36.2078C81.5141 36.6627 79.1626 36.6267 76.9186 36.1001C73.8151 35.3581 71.8934 33.0124 71.4876 29.5297C71.3443 28.1652 71.2727 26.8009 71.2727 25.4365C71.2369 22.2411 71.2607 19.0456 71.2607 15.8622V14.773H76.3336V15.9698C76.3336 19.4166 76.2978 22.8515 76.3456 26.2982C76.3576 27.2796 76.5008 28.249 76.7515 29.1946C77.0499 30.3554 77.8615 31.2051 79.0671 31.3846C80.201 31.5522 81.3589 31.5522 82.4809 31.3846C83.8775 31.1693 84.5936 30.0921 84.8801 28.7637C85.0352 27.9738 85.1068 27.172 85.1068 26.3581C85.1546 22.5283 85.1308 18.6985 85.1308 14.7611ZM108.228 36.0522H105.243L104.36 34.9511C102.689 36.16 100.815 36.5429 98.7978 36.4113C95.5631 36.1839 93.3072 34.3767 92.4477 31.2531C91.8867 29.2903 91.8867 27.2078 92.4597 25.2331C93.3907 22.0376 96.0644 19.8834 99.3828 19.7636C100.696 19.7158 102.009 19.8834 103.405 19.9791V13.4684H108.228V36.0522ZM103.393 31.4565V24.4312C103.095 24.2876 102.832 24.132 102.546 24.0483C100.087 23.1746 97.8669 24.1559 97.2223 26.4179C97.0671 26.9087 96.9955 27.4352 96.9955 27.9738C97.0313 29.5297 97.2939 31.0376 98.8337 31.8395C100.373 32.6055 101.937 32.4019 103.393 31.4565Z" fill="black"/>
<path d="M125.544 28.8239H115.565C115.29 30.248 116.185 31.6722 117.677 32.139C119.36 32.6656 121.068 32.498 122.739 31.9834C123.431 31.7679 124.087 31.4448 124.827 31.1337L124.195 34.8677C123.156 35.7652 121.927 36.1363 120.626 36.2919C118.883 36.4953 117.128 36.4474 115.433 35.9089C113.118 35.1549 111.542 33.611 110.826 31.2772C110.193 29.2187 110.157 27.0166 110.766 24.9581C111.614 21.9542 114.049 19.9674 117.164 19.764C118.035 19.6922 118.907 19.7041 119.778 19.8238C122.177 20.2068 123.849 21.595 124.744 23.8571C125.376 25.4009 125.603 27.0526 125.544 28.8239ZM115.445 26.4182H121.533C121.39 24.4075 119.969 23.4382 118.596 23.4382C116.842 23.4621 115.696 24.5034 115.445 26.4182Z" fill="black"/>
<path d="M157.883 20.147C158.492 21.8704 159.077 23.5699 159.673 25.2813C160.259 27.0048 160.843 28.7281 161.524 30.6909L164.985 20.1351H169.783L161.416 41.3903H156.558L158.862 35.5021L152.512 20.159H157.883V20.147Z" fill="black"/>
<path d="M38.5161 23.5811L37.8239 25.0173C35.6276 29.9361 33.2284 34.7472 30.113 39.1755C28.4538 41.5212 26.6156 43.6755 24.2881 45.375C22.1873 46.8949 19.8717 47.8283 17.2337 47.8044C14.3689 47.7925 12.0652 46.6076 10.3703 44.2978C8.81855 42.1914 8.2098 39.7499 8.01882 37.1768C7.76816 33.7299 8.35304 30.3909 9.1289 27.0757C9.31989 26.2978 9.46312 25.5199 9.66604 24.6103C8.97373 25.0173 8.37691 25.3643 7.79203 25.6755C6.80131 26.214 5.75091 26.5492 4.60502 26.5132C2.37293 26.4175 0.916696 24.7779 0.976377 22.4681C2.63553 21.0319 4.29469 19.7273 5.78672 18.2194C9.72572 14.234 12.7456 9.59038 15.0493 4.48001C15.3716 3.72602 15.7654 2.97204 16.1833 2.26592C17.2814 0.494645 19.048 -0.295247 20.8623 0.0996992C22.6051 0.470709 23.7031 1.7872 24.0612 3.89358C24.5268 6.61033 23.9658 9.23134 23.3451 11.8284C22.1037 16.9388 20.8146 22.0611 19.609 27.1954C19.0242 29.7087 18.7019 32.2698 18.8689 34.855C18.9167 35.609 19.0718 36.375 19.3225 37.093C19.8477 38.4933 21.0653 38.8404 22.2111 37.8829C22.9274 37.2606 23.5599 36.5784 24.1329 35.8363C27.3676 31.7313 30.0176 27.2433 32.4047 22.6116C34.434 18.6622 36.4273 14.6888 38.4445 10.7393C38.7788 10.0571 39.1846 9.41086 39.5785 8.75262C41.0944 6.25129 44.7828 6.47868 46.2748 8.9441C47.0745 10.2726 47.4684 11.7686 47.5758 13.3005C47.6953 14.8922 47.7311 16.4959 47.7907 18.0877C47.934 21.5584 48.0534 25.0292 48.2204 28.5C48.2681 29.1462 48.4114 29.8044 48.6501 30.4268C49.1038 31.5877 49.9511 32.0185 51.1448 31.6715C51.8132 31.48 52.4459 31.1928 52.995 30.7859C54.5706 29.5891 56.0745 28.3204 57.7098 26.992C58.3902 27.1954 58.796 27.7939 59.0228 28.5598C59.4526 29.9959 59.1779 31.3962 58.6527 32.7247C57.1846 36.4707 54.2721 38.5891 50.4883 39.4268C49.0321 39.726 47.54 39.7859 46.048 39.5823C43.1594 39.2233 41.2257 37.476 40.0917 34.8071C39.0413 32.3297 38.7907 29.7087 38.6832 27.0518C38.6356 25.9148 38.6832 24.7898 38.6832 23.6409L38.5161 23.5811Z" fill="#EC5250"/>
</g>
<defs>
<clipPath id="clip0_212_6770">
<rect width="170" height="49" fill="white" transform="translate(0.974609)"/>
</clipPath>
</defs>
</svg>
