<svg width="171" height="49" viewBox="0 0 171 49" fill="none" xmlns="http://www.w3.org/2000/svg">
<path d="M0.974609 9.13013H6.87268V22.2296H19.3059V9.13013H25.2041V41.2579H19.3059V27.8972H6.87268V41.2579H0.974609V9.13013ZM43.8786 30.8046C43.8786 33.4996 41.6892 35.6882 38.9935 35.6882C36.2976 35.6882 34.1083 33.4996 34.1083 30.8046V16.9701H28.5207V30.8046C28.5207 36.5702 33.226 41.2742 38.9935 41.2742C44.7608 41.2742 49.4662 36.5866 49.4662 30.8046V16.9701H43.8786V30.8046ZM65.0691 17.1335C62.2916 17.1335 60.3637 17.9338 58.4848 19.7796V9.13013H52.8809V28.8446C52.8809 36.2272 58.2234 41.2742 64.2032 41.2742C70.8691 41.2742 76.7018 36.1292 76.7018 29.2039C76.7181 22.3602 71.3266 17.1335 65.0691 17.1335ZM65.1998 36.0802C61.3931 36.0802 58.5012 32.9116 58.5012 29.2039C58.5012 25.4962 61.4094 22.3112 65.1998 22.3112C68.4185 22.3112 71.3266 25.4799 71.3266 29.2039C71.3266 32.9116 68.4185 36.0802 65.1998 36.0802ZM86.129 18.5381C86.129 15.7125 88.0079 14.8305 90.0664 14.8305C91.7166 14.8305 93.9059 16.0881 95.3437 17.6071L99.0034 13.3115C97.1735 10.8451 93.4648 9.14647 90.4259 9.14647C84.3481 9.14647 79.9695 12.6745 79.9695 18.5381C79.9695 29.3999 93.3341 25.9536 93.3341 32.0459C93.3341 33.9242 91.5042 35.5739 89.3965 35.5739C86.08 35.5739 85.0179 33.9569 83.4985 32.2582L79.4303 36.4559C82.028 39.6246 85.2467 41.2416 89.0861 41.2416C94.8535 41.2416 99.5098 37.6646 99.5098 32.0786C99.4935 20.0246 86.129 23.7649 86.129 18.5381ZM114.263 16.8231C108.267 16.8231 102.941 21.8702 102.941 29.2529V49H108.545V38.3179C110.407 40.1472 112.352 40.9639 115.129 40.9639C121.387 40.9639 126.778 35.7372 126.778 28.8936C126.762 21.9519 120.929 16.8231 114.263 16.8231ZM115.26 35.7699C111.453 35.7699 108.561 32.5849 108.561 28.8772C108.561 25.1696 111.469 21.9846 115.26 21.9846C118.478 21.9846 121.387 25.1532 121.387 28.8772C121.387 32.5849 118.478 35.7699 115.26 35.7699ZM168.048 36.0802C164.748 36.0802 163.801 34.6429 163.801 32.4542V22.7522H168.947V17.8358H163.801V11.3678L158.132 13.9158V33.6792C158.132 38.7262 161.611 41.2742 166.398 41.2742C167.117 41.2742 168.097 41.2252 168.636 41.0946L170.025 35.9986C169.388 36.0312 168.669 36.0802 168.048 36.0802Z" fill="black"/>
<path d="M153.245 23.0464C152.167 21.2008 150.664 19.7144 148.769 18.6038C147.364 17.7871 145.893 17.2644 144.243 17.0358V11.1557C145.893 10.4534 146.922 8.9017 146.922 7.0887C146.922 4.62235 144.946 2.62968 142.479 2.62968C140.011 2.62968 138.001 4.62235 138.001 7.0887C138.001 8.9017 138.965 10.4534 140.615 11.1557V17.0358C139.292 17.2318 137.92 17.6401 136.678 18.2771C134.113 16.3334 125.747 9.96337 120.847 6.25569C120.961 5.83102 121.059 5.40635 121.059 4.94902C121.059 2.22134 118.853 0 116.108 0C113.38 0 111.158 2.22134 111.158 4.94902C111.158 7.6767 113.38 9.89804 116.108 9.89804C117.04 9.89804 117.906 9.62037 118.641 9.17936L119.67 9.96337L133.884 20.2044C133.133 20.8904 132.43 21.6744 131.875 22.5564C130.748 24.3368 130.045 26.3131 130.045 28.4691V28.9264C130.045 30.4454 130.339 31.8664 130.829 33.2058C131.254 34.3818 131.891 35.4434 132.675 36.4071L127.954 41.1274C126.564 40.6049 124.981 40.9479 123.934 42.0095C123.216 42.7282 122.807 43.6919 122.823 44.7209C122.823 45.7499 123.216 46.6972 123.95 47.4159C124.669 48.1345 125.633 48.5429 126.647 48.5429C127.66 48.5429 128.64 48.1345 129.359 47.4159C130.078 46.6972 130.486 45.7335 130.486 44.7209C130.486 44.3289 130.421 43.9369 130.307 43.5775L135.175 38.7101C135.845 39.1674 136.564 39.5594 137.348 39.9024C138.884 40.5559 140.566 40.9642 142.412 40.9642H142.755C144.799 40.9642 146.726 40.4904 148.54 39.5104C150.451 38.4651 151.938 37.0604 153.065 35.2474C154.192 33.4344 154.83 31.4254 154.83 29.2204V29.1061C154.813 26.8848 154.307 24.8921 153.245 23.0464ZM147.298 33.2711C145.975 34.7411 144.456 35.6394 142.739 35.6394H142.461C141.481 35.6394 140.517 35.3618 139.586 34.8718C138.524 34.3328 137.724 33.5488 137.054 32.5688C136.368 31.6051 136.008 30.5598 136.008 29.4328V29.0898C136.008 27.9954 136.221 26.9501 136.743 25.9701C137.315 24.8921 138.083 24.0591 139.096 23.4058C140.092 22.7524 141.171 22.4258 142.347 22.4258H142.461C143.541 22.4258 144.554 22.6381 145.517 23.1281C146.498 23.6508 147.298 24.3694 147.919 25.3168C148.523 26.2641 148.883 27.2768 148.997 28.3874C149.014 28.6161 149.03 28.8611 149.03 29.0734C149.03 30.6088 148.442 32.0134 147.298 33.2711Z" fill="#F8761F"/>
</svg>
