<svg width="172" height="49" viewBox="0 0 172 49" fill="none" xmlns="http://www.w3.org/2000/svg">
<g clip-path="url(#clip0_212_6787)">
<path d="M87.9466 20.1659C88.0522 18.1471 88.7696 16.5023 89.895 15.2176V13.5023H88.3968C85.3723 13.5023 82.8119 14.6671 81.3208 17.2929H81.2364V13.7918H73.478V35.1518H81.2364V26.5259C81.2364 22.8694 82.3055 20.0741 86.6102 20.0741C87.0815 20.0812 87.5246 20.1094 87.9466 20.1659ZM146.686 20.0882C147.333 18.2035 148.374 16.5165 149.732 15.1682V13.5023H148.241C145.216 13.5023 142.656 14.6671 141.165 17.2929H141.08V13.7918H133.315V35.1518H141.08V26.5259C141.08 22.8694 142.15 20.0741 146.454 20.0741L146.686 20.0882ZM103.702 19.2835C102.507 18.6624 100.84 18.2459 99.5173 18.2459C98.624 18.2459 97.0907 18.62 97.0907 19.7C97.0907 21.1612 99.5173 21.3659 100.593 21.5777C104.209 22.2835 106.945 23.9494 106.945 27.9024C106.945 33.5212 101.698 35.8576 96.6194 35.8576C93.5034 35.8576 90.4437 34.9824 87.7919 33.4012L90.6054 28.1071C92.181 29.1941 94.8258 30.2741 96.746 30.2741C97.7307 30.2741 99.1797 29.8153 99.1797 28.6506C99.1797 26.9847 96.746 26.9 94.3123 26.2718C91.8856 25.6506 89.4589 24.4859 89.4589 20.6529C89.4589 15.4082 94.3123 13.0788 99.0953 13.0788C101.571 13.0788 104.04 13.4529 106.298 14.4482L103.702 19.2835ZM173 35.1518H165.242V32.7729H165.157C163.793 34.8976 161.099 35.8506 158.545 35.8506C152.06 35.8506 147.502 30.5635 147.502 24.4435C147.502 18.3306 151.983 13.0788 158.461 13.0788C160.972 13.0788 163.624 13.9965 165.242 15.8671V13.7918H173V35.1518ZM155.521 24.4929C155.521 27.1965 157.357 29.2788 160.508 29.2788C163.659 29.2788 165.488 27.2035 165.488 24.4929C165.488 21.8671 163.659 19.6647 160.508 19.6647C157.357 19.6647 155.521 21.8671 155.521 24.4929ZM132.091 25.7424H115.758C115.758 28.82 117.426 30.4859 120.619 30.4859C122.279 30.4859 123.475 29.9494 124.326 28.5306H131.789C130.551 33.5706 125.648 35.8576 120.661 35.8576C113.416 35.8576 108 31.8553 108 24.4929C108 17.3776 112.98 13.0859 120.105 13.0859C127.695 13.0859 132.091 17.6671 132.091 24.9518V25.7424ZM124.888 21.3659C124.502 19.3259 122.581 17.9918 120.499 17.9918C118.234 17.9918 116.37 19.1565 115.892 21.3659H124.888ZM48.8033 24.1188C48.7962 23.9353 48.7822 23.7518 48.7681 23.5753V23.5682C48.5922 21.5847 47.9451 19.7353 46.8338 18.0553C46.3484 17.3141 45.7787 16.6365 45.1457 16.0224C44.2242 15.1329 43.1551 14.3918 41.9453 13.8129C40.1376 12.9376 38.1329 12.5 35.9946 12.5C35.7836 12.5 35.5655 12.5 35.3475 12.5141C33.8493 12.5847 32.3933 12.8671 31.0287 13.3753C29.6571 13.8694 28.4543 14.5259 27.4766 15.3235C27.2797 15.4859 27.0616 15.6765 26.8295 15.8953L26.6607 16.0577L26.4286 16.3047L26.3231 16.4106L26.2738 16.4671L25.9995 16.7565C25.8026 16.9824 25.6126 17.2082 25.4227 17.4412L25.4157 17.4341C25.0429 17.8788 24.6912 18.3588 24.438 18.7824C24.2621 19.0577 24.0933 19.3329 23.9316 19.6153L21.6948 24.1541L21.5752 24.3871L21.329 24.8882C20.8367 25.8835 20.3162 26.8788 19.7253 27.6976C18.417 29.1376 16.9329 29.8435 15.0337 29.8435C14.9001 29.8435 14.7664 29.8365 14.6258 29.8294C13.4792 29.78 12.4945 29.5118 11.6223 28.9965C11.5309 28.94 11.4394 28.8835 11.348 28.8271C10.6376 28.3541 10.0889 27.74 9.68097 26.9776C9.21673 26.1165 9.01275 25.2341 9.04792 24.2953C9.04792 24.2671 9.04792 24.2459 9.04792 24.2247C9.11123 22.7353 9.67393 21.5777 10.8134 20.5823C11.0877 20.3494 11.3761 20.1377 11.6856 19.9612C11.7278 19.9329 11.77 19.9118 11.8122 19.8906C12.6563 19.4247 13.6199 19.1988 14.7242 19.1988L15.0689 19.2059C16.8203 19.2694 18.1708 19.82 19.254 20.8929L22.6373 14.8012C21.8284 14.2647 20.9211 13.7918 19.9082 13.4176C19.873 13.4035 19.8308 13.3894 19.7886 13.3753C19.669 13.3329 19.5495 13.2906 19.4229 13.2482C18.3537 12.8882 17.2283 12.6694 16.0747 12.5706C16.0466 12.5635 16.0114 12.5635 15.9833 12.5565C15.8075 12.5424 15.6246 12.5212 15.4487 12.5141C15.2658 12.5071 15.0759 12.5 14.879 12.5H14.7664C12.6422 12.5071 10.6657 12.9447 8.85801 13.8129C6.83929 14.7871 5.2004 16.2129 3.98355 18.0482C2.77372 19.8835 2.10551 21.9235 2.01407 24.1118C2.00703 24.3024 2 24.4859 2 24.6694C2 27.7259 3.11135 30.4224 5.31998 32.6812C7.62708 35.0529 10.6305 36.3306 14.2319 36.4788C14.464 36.4859 14.6891 36.4929 14.9212 36.4929C16.961 36.4929 18.8461 36.1259 20.5342 35.3988C20.9562 35.2153 21.3642 35.0035 21.7862 34.7706C22.0113 34.6365 22.2294 34.4953 22.4404 34.3471L22.6022 34.2412L22.8694 34.0576C23.186 33.8247 23.4884 33.5776 23.7768 33.3094L23.8753 33.2106C24.0441 33.0482 24.2129 32.8788 24.3817 32.7094L24.9866 32.0247L25.2187 31.7353L25.3243 31.58L25.4298 31.4247C26.3301 29.9071 29.2632 24.38 29.2632 24.38V24.3659L29.4391 24.0271L29.5868 23.7659C30.0158 22.9753 30.3324 22.4177 30.7474 21.8247L30.7614 21.8106C31.7251 20.4059 33.3851 19.4106 35.3405 19.2412C38.6182 18.9588 41.4881 21.1188 41.7553 24.0694C42.0156 27.02 39.5748 29.6388 36.2971 29.9212C35.6148 29.9776 34.9536 29.9353 34.3276 29.7941L34.3135 29.8012C31.9079 29.3 30.3746 27.5353 29.6219 26.7518L26.4708 32.5753C26.4708 32.5753 27.4485 33.5635 28.1237 34.0647C28.799 34.5588 29.6641 35.0459 30.3605 35.3494C32.0416 36.0694 33.8704 36.5 35.8961 36.5C36.1283 36.5 36.0861 36.5 36.3252 36.4929C39.9265 36.3447 43.134 34.9612 45.4481 32.5894C47.6427 30.3376 48.8314 27.7682 48.8384 24.7259V24.6341C48.8173 24.4576 48.8103 24.2882 48.8033 24.1188ZM60.8733 35.8718C59.2345 35.8718 57.7574 35.6812 56.4209 35.3C55.0845 34.9188 53.952 34.3188 53.0095 33.4929C52.067 32.6671 51.3354 31.6153 50.822 30.3376C50.3085 29.06 50.0553 27.5212 50.0553 25.7282V13.7847H57.5393V25.6294C57.5393 26.9706 57.8558 27.9447 58.4959 28.5518C59.136 29.1588 59.9449 29.4624 60.9296 29.4624C61.9355 29.4624 62.7514 29.18 63.3844 28.6153C64.0104 28.0506 64.327 27.1047 64.327 25.7847V13.7847H71.811V25.5659C71.811 27.4224 71.5507 28.9965 71.0232 30.2953C70.4957 31.5941 69.7571 32.66 68.8075 33.4859C67.8509 34.3118 66.6974 34.9118 65.3469 35.2929C63.9964 35.6812 62.5052 35.8718 60.8733 35.8718Z" fill="#0056D2"/>
</g>
<defs>
<clipPath id="clip0_212_6787">
<rect width="171" height="49" fill="white" transform="translate(0.5)"/>
</clipPath>
</defs>
</svg>
