<svg width="200" height="49" viewBox="0 0 200 49" fill="none" xmlns="http://www.w3.org/2000/svg">
<g clip-path="url(#clip0_212_6789)">
<path d="M51.9904 17.3651H71.9908V21.1266H64.1106V42.312H59.7993V21.1266H51.9618L51.9904 17.3651ZM71.1342 24.254H74.8316V27.7416H74.903C75.0315 27.2372 75.2599 26.7761 75.5884 26.3148C75.9166 25.8537 76.3164 25.4214 76.8017 25.0466C77.2585 24.643 77.7869 24.3548 78.3864 24.1098C78.9431 23.8793 79.5427 23.7496 80.128 23.7496C80.5849 23.7496 80.9132 23.7784 81.0845 23.7784C81.2559 23.8072 81.4414 23.8504 81.6127 23.8504V27.6696C81.3558 27.5975 81.056 27.5687 80.7562 27.5398C80.4564 27.5111 80.1994 27.4678 79.8996 27.4678C79.2429 27.4678 78.6148 27.5975 78.0153 27.8714C77.4157 28.1308 76.9303 28.5343 76.4735 29.0387C76.0452 29.5719 75.6882 30.2061 75.417 30.9698C75.1601 31.7337 75.0173 32.6272 75.0173 33.6361V42.2255H71.0628L71.1342 24.254ZM99.743 42.312H95.86V39.79H95.7887C95.289 40.7268 94.5751 41.4184 93.6187 41.9805C92.6622 42.5426 91.6772 42.8165 90.6922 42.8165C88.3509 42.8165 86.6379 42.2544 85.5814 41.0582C84.525 39.8908 83.9968 38.1037 83.9968 35.7402V24.2684H87.9511V35.3511C87.9511 36.9508 88.2511 38.075 88.8791 38.709C89.4787 39.372 90.3353 39.7034 91.4202 39.7034C92.2483 39.7034 92.9335 39.5737 93.4903 39.3C94.047 39.0405 94.518 38.6947 94.8464 38.2623C95.2033 37.83 95.446 37.2966 95.603 36.7058C95.7744 36.1005 95.8314 35.4376 95.8314 34.7458V24.2684H99.7859V42.3265L99.743 42.312ZM106.467 36.5184C106.595 37.6858 107.024 38.4784 107.78 38.9829C108.537 39.444 109.465 39.6747 110.521 39.6747C110.878 39.6747 111.306 39.6458 111.778 39.5737C112.234 39.5018 112.705 39.4008 113.091 39.2423C113.519 39.0694 113.848 38.8387 114.119 38.5073C114.39 38.1758 114.519 37.7723 114.476 37.2823C114.447 36.7779 114.276 36.3455 113.919 36.014C113.562 35.6826 113.134 35.4519 112.606 35.2214C112.077 35.0197 111.449 34.8611 110.764 34.7169C110.079 34.5729 109.379 34.4143 108.651 34.2558C107.923 34.0829 107.195 33.8955 106.51 33.6505C105.825 33.42 105.225 33.1172 104.668 32.685C104.14 32.2814 103.683 31.7914 103.383 31.1572C103.055 30.5232 102.884 29.7882 102.884 28.8658C102.884 27.8714 103.112 27.0643 103.612 26.4014C104.069 25.7384 104.697 25.2051 105.425 24.8016C106.153 24.398 106.967 24.1098 107.866 23.9369C108.751 23.764 109.608 23.7064 110.407 23.7064C111.335 23.7064 112.22 23.8072 113.048 24.009C113.876 24.2107 114.661 24.5134 115.318 24.9746C116.003 25.4069 116.574 26.0122 117.003 26.704C117.459 27.3958 117.731 28.2605 117.859 29.2693H113.733C113.533 28.3037 113.105 27.6696 112.449 27.3382C111.763 27.0066 110.992 26.8337 110.107 26.8337C109.85 26.8337 109.479 26.8625 109.122 26.9058C108.723 26.9778 108.394 27.0355 108.037 27.1651C107.709 27.2948 107.409 27.4966 107.181 27.7272C106.952 27.9578 106.824 28.2893 106.824 28.6929C106.824 29.1972 106.995 29.5575 107.323 29.8602C107.652 30.1629 108.08 30.3934 108.637 30.624C109.165 30.8258 109.793 30.9843 110.478 31.1284C111.164 31.2582 111.892 31.4311 112.62 31.5896C113.348 31.7626 114.033 31.9498 114.733 32.195C115.432 32.44 116.046 32.7282 116.574 33.1605C117.102 33.564 117.559 34.054 117.888 34.6593C118.216 35.2647 118.387 36.0284 118.387 36.8932C118.387 37.9597 118.159 38.8532 117.659 39.617C117.16 40.352 116.546 40.9861 115.775 41.4473C115.018 41.9084 114.133 42.24 113.205 42.485C112.249 42.6868 111.321 42.8165 110.407 42.8165C109.294 42.8165 108.237 42.6868 107.281 42.4129C106.324 42.1391 105.468 41.75 104.782 41.2455C104.097 40.7123 103.526 40.0782 103.141 39.2855C102.741 38.5216 102.513 37.585 102.484 36.4897H106.467V36.5184ZM119.472 24.254H122.47V18.7919H126.425V24.2107H129.979V27.1651H126.425V36.8066C126.425 37.239 126.453 37.5705 126.496 37.902C126.525 38.2047 126.624 38.464 126.724 38.6658C126.853 38.8676 127.053 39.0261 127.281 39.127C127.538 39.2279 127.881 39.3 128.337 39.3C128.595 39.3 128.894 39.3 129.166 39.2711C129.437 39.2423 129.722 39.199 129.994 39.1414V42.24C129.565 42.312 129.136 42.3408 128.709 42.3697C128.28 42.4418 127.881 42.4418 127.424 42.4418C126.367 42.4418 125.539 42.3408 124.926 42.1391C124.297 41.9373 123.812 41.6347 123.441 41.2744C123.084 40.8708 122.841 40.4097 122.713 39.8476C122.584 39.2855 122.513 38.5794 122.484 37.8587V27.2084H119.486V24.1819L119.472 24.254ZM132.749 24.254H136.475V26.7184H136.546C137.103 25.6519 137.859 24.9169 138.859 24.4558C139.858 23.9946 140.901 23.764 142.086 23.764C143.498 23.764 144.726 23.9946 145.783 24.5278C146.838 25.0322 147.696 25.6951 148.38 26.5887C149.066 27.4534 149.594 28.4911 149.922 29.644C150.251 30.8114 150.451 32.0652 150.451 33.3766C150.451 34.6016 150.279 35.769 149.994 36.9076C149.666 38.0316 149.208 39.0694 148.581 39.934C147.953 40.7987 147.167 41.4905 146.182 42.0237C145.198 42.557 144.069 42.8165 142.756 42.8165C142.2 42.8165 141.6 42.7444 141.043 42.6434C140.486 42.5426 139.93 42.3841 139.401 42.1391C138.873 41.9084 138.374 41.6058 137.945 41.2455C137.488 40.8852 137.117 40.4529 136.832 39.9773H136.76V48.9991H132.792V24.254H132.749ZM146.568 33.3046C146.568 32.5119 146.467 31.7048 146.239 30.9411C146.04 30.1772 145.711 29.5143 145.282 28.909C144.855 28.3037 144.326 27.8425 143.742 27.4822C143.113 27.1219 142.385 26.949 141.6 26.949C139.958 26.949 138.701 27.5111 137.845 28.6784C137.017 29.8458 136.589 31.4022 136.589 33.3334C136.589 34.2702 136.689 35.0916 136.917 35.8555C137.145 36.6193 137.446 37.2823 137.903 37.8444C138.33 38.4064 138.859 38.8387 139.487 39.1702C140.115 39.5018 140.8 39.6747 141.628 39.6747C142.557 39.6747 143.271 39.4729 143.898 39.1126C144.526 38.7523 145.012 38.2479 145.44 37.6858C145.84 37.0805 146.125 36.4176 146.297 35.6537C146.467 34.8611 146.568 34.0973 146.568 33.3046ZM153.52 17.3651H157.474V21.1266H153.52V17.3651ZM153.52 24.254H157.474V42.312H153.52V24.254ZM161.001 17.3651H164.955V42.312H161.001V17.3651ZM177.004 42.8165C175.591 42.8165 174.306 42.5858 173.178 42.0815C172.064 41.577 171.137 40.9573 170.337 40.1214C169.581 39.2855 168.981 38.2623 168.595 37.095C168.196 35.9276 167.967 34.6305 167.967 33.2758C167.967 31.9211 168.167 30.6529 168.595 29.4855C168.996 28.3182 169.581 27.3237 170.337 26.459C171.093 25.6232 172.05 24.9601 173.178 24.499C174.306 24.0378 175.577 23.764 177.004 23.764C178.417 23.764 179.702 23.9946 180.83 24.499C181.943 24.9601 182.872 25.6232 183.67 26.459C184.428 27.2948 185.027 28.3182 185.412 29.4855C185.812 30.6529 186.04 31.9066 186.04 33.2758C186.04 34.6737 185.841 35.9419 185.412 37.095C184.984 38.2479 184.428 39.2568 183.67 40.1214C182.914 40.9573 181.957 41.6202 180.83 42.0815C179.716 42.5426 178.46 42.8165 177.004 42.8165ZM177.004 39.6458C177.861 39.6458 178.645 39.444 179.274 39.0837C179.93 38.7234 180.43 38.219 180.858 37.6137C181.286 37.0084 181.586 36.3166 181.787 35.5816C181.986 34.8179 182.086 34.054 182.086 33.2469C182.086 32.4832 181.986 31.7193 181.787 30.9555C181.586 30.1916 181.286 29.5287 180.858 28.9234C180.43 28.3182 179.902 27.8569 179.274 27.4966C178.617 27.1364 177.861 26.9346 177.004 26.9346C176.147 26.9346 175.362 27.1364 174.734 27.4966C174.077 27.8569 173.578 28.3614 173.149 28.9234C172.721 29.5287 172.421 30.1916 172.222 30.9555C172.022 31.7193 171.921 32.4832 171.921 33.2469C171.921 34.0396 172.022 34.8034 172.222 35.5816C172.421 36.3455 172.721 37.0084 173.149 37.6137C173.578 38.219 174.105 38.709 174.734 39.0837C175.39 39.4873 176.147 39.6458 177.004 39.6458ZM187.225 24.254H190.223V18.7919H194.177V24.2107H197.732V27.1651H194.177V36.8066C194.177 37.239 194.206 37.5705 194.249 37.902C194.277 38.2047 194.378 38.464 194.478 38.6658C194.606 38.8676 194.805 39.0261 195.034 39.127C195.292 39.2279 195.633 39.3 196.09 39.3C196.347 39.3 196.648 39.3 196.918 39.2711C197.175 39.2423 197.476 39.199 197.747 39.1414V42.24C197.318 42.312 196.89 42.3408 196.461 42.3697C196.034 42.4418 195.633 42.4418 195.177 42.4418C194.121 42.4418 193.293 42.3408 192.679 42.1391C192.065 41.9373 191.565 41.6347 191.194 41.2744C190.837 40.8708 190.594 40.4097 190.466 39.8476C190.337 39.2855 190.267 38.5794 190.237 37.8587V27.2084H187.239V24.1819V24.254H187.225Z" fill="black"/>
<path d="M47.3782 17.3662H29.2907L23.7231 0L18.1271 17.3662L0.0252686 17.3375L14.6579 28.0887L9.0476 45.4405L23.6803 34.6893L38.313 45.4405L32.7455 28.0743L47.3782 17.3662Z" fill="#00B67A"/>
<path d="M34.0054 32.0089L32.7491 28.0889L23.7267 34.7039L34.0054 32.0089Z" fill="#005128"/>
</g>
<defs>
<clipPath id="clip0_212_6789">
<rect width="199" height="49" fill="white" transform="translate(0.0252686)"/>
</clipPath>
</defs>
</svg>
