<svg width="172" height="49" viewBox="0 0 172 49" fill="none" xmlns="http://www.w3.org/2000/svg">
<g clip-path="url(#clip0_212_6793)">
<path fill-rule="evenodd" clip-rule="evenodd" d="M58.603 22.6017V1.83795H66.1795C67.7856 1.83795 68.8154 2.18095 69.735 2.52395C71.8068 3.55295 72.7264 5.51295 72.7264 7.22795C72.7264 9.1757 71.9171 10.56 70.3111 11.589C72.7264 12.1647 74.0994 13.7695 74.0994 16.293C74.0994 19.1595 72.3708 21.2297 69.502 22.1485C68.4722 22.4915 67.3197 22.6017 65.6034 22.6017H58.603ZM67.8959 5.39045C67.3197 5.1577 66.7436 5.04745 65.9466 5.04745H62.048V10.4375H65.7259C66.7558 10.4375 67.4546 10.3272 68.0186 9.9842C68.8032 9.5432 69.2936 8.7102 69.2813 7.8037C69.2813 6.7747 68.705 5.85595 67.8959 5.39045ZM68.938 14.0022C68.4845 13.7695 67.7856 13.6592 66.6454 13.6592H62.048V19.3922H66.3022C67.6752 19.3922 68.3741 19.1595 68.938 18.939C69.9679 18.4857 70.4337 17.567 70.4337 16.4155C70.4337 15.264 69.9679 14.4555 68.938 14.0022ZM94.7695 22.6017V1.83795H98.3248V22.614H94.7695V22.6017ZM120.613 22.6017V1.83795H124.169V22.614H120.613V22.6017ZM135.546 1.71545C137.838 1.71545 140.143 2.2912 141.405 2.86695L141.296 6.3092C139.457 5.39045 137.741 4.8147 135.558 4.8147C133.608 4.8147 131.88 5.39045 131.88 6.9952C131.88 11.246 142.558 9.5187 142.558 16.5135C142.558 20.409 139.346 22.8222 134.516 22.8222C131.304 22.8222 129.122 21.9035 127.503 20.9847L128.999 18.1182C130.262 18.9267 132.334 19.723 134.626 19.723C136.808 19.723 138.758 18.9145 138.758 17.0892C138.758 12.618 128.189 14.5657 128.189 7.5587C128.189 3.7857 131.181 1.71545 135.546 1.71545ZM159.317 22.6017V13.647H149.326V22.6017H145.77V1.83795H149.326V10.3272H159.317V1.83795H162.873V22.614H159.317V22.6017ZM66.4125 26.1665C68.5948 26.1665 70.3111 26.6197 72.1501 27.4282L71.1203 30.4172C70.0905 29.9517 68.705 29.3882 66.7558 29.3882C62.8572 29.3882 60.4419 32.7202 60.4419 36.7382C60.4419 40.8665 62.7346 44.1985 66.7558 44.1985C68.705 44.1985 70.0905 43.6227 71.1203 43.1695L72.1501 46.1462C70.3111 46.9547 68.5948 47.408 66.4125 47.408C60.209 47.408 56.6537 43.047 56.6537 36.8485C56.6414 30.9807 60.209 26.1665 66.4125 26.1665ZM144.042 26.1665C146.335 26.1665 148.063 26.6197 149.779 27.4282L148.75 30.4172C147.72 29.9517 146.335 29.3882 144.385 29.3882C140.474 29.3882 138.071 32.7202 138.071 36.7382C138.071 40.8665 140.363 44.1985 144.385 44.1985C146.335 44.1985 147.72 43.6227 148.75 43.1695L149.779 46.1462C148.063 46.9547 146.335 47.408 144.042 47.408C137.838 47.408 134.282 43.047 134.282 36.8485C134.282 30.9807 137.838 26.1665 144.042 26.1665ZM92.3665 36.726C92.3665 42.9245 88.468 47.3957 82.6077 47.3957C76.7476 47.3957 72.8489 43.0347 72.8489 36.8362C72.8489 30.6377 76.7598 26.1665 82.6077 26.1665C88.5783 26.1665 92.3665 30.5275 92.3665 36.726ZM88.6887 36.726C88.6887 32.2547 86.0528 29.376 82.6077 29.376C79.1627 29.376 76.5269 32.2425 76.5269 36.8362C76.5269 41.3075 79.1627 44.1862 82.6077 44.1862C86.0405 44.174 88.6887 41.3075 88.6887 36.726ZM94.7695 39.2495V26.3992H98.3248V39.372C98.3248 42.9245 100.164 44.1862 103.143 44.1862C106.122 44.1862 107.961 42.9245 107.961 39.372V26.3992H111.516V39.2495C111.516 44.8722 108.304 47.3957 103.131 47.3957C97.9938 47.3957 94.7695 44.8722 94.7695 39.2495ZM118.198 32.022H118.088C118.198 32.708 118.198 33.8595 118.198 34.7782V47.0527H114.643V26.3992H118.554L128.08 40.5112H128.189C128.08 39.8252 128.08 38.6737 128.08 37.755V26.3992H131.635V47.0527H128.534L118.198 32.022ZM152.538 47.0527V26.3992H156.093V47.0527H152.538ZM159.317 47.0527V26.3992H162.873V43.8432H171.025V47.0527H159.317ZM117.855 1.9482H101.096V5.1577H107.753V22.6017H111.308V5.16995H117.855V1.9482ZM88.4557 22.6017C85.4643 16.293 84.6673 14.5657 83.4046 14.5657H80.0699V22.6017H76.5146V1.9482H83.515C88.9092 1.9482 90.8708 4.70445 90.8708 7.8037C90.8708 10.6702 89.3751 12.5077 87.0826 13.1937C88.0021 13.7695 89.0319 15.7172 92.4769 22.6017H88.4557ZM83.7479 5.04745H80.0699V11.3562H83.6253C86.1508 11.3562 87.3032 10.0945 87.3032 8.1467C87.3032 6.4317 86.2734 5.04745 83.7479 5.04745Z" fill="black"/>
<path fill-rule="evenodd" clip-rule="evenodd" d="M23.7971 11.8213C23.7971 18.3628 18.4027 23.6425 11.856 23.6425C5.41959 23.6425 0.0252686 18.3628 0.0252686 11.8213C0.0252686 5.27977 5.41959 2.12736e-05 11.856 2.12736e-05C18.4027 2.12736e-05 23.7971 5.27977 23.7971 11.8213ZM49.0645 11.8213C49.0768 18.3383 43.7928 23.6302 37.2707 23.6425C37.2584 23.6425 37.2461 23.6425 37.2339 23.6425C30.687 23.6425 25.4031 18.3628 25.4031 11.8213C25.4031 5.27977 30.687 2.12736e-05 37.2339 2.12736e-05C43.756 -0.0122287 49.0523 5.26752 49.0645 11.7845C49.0645 11.7968 49.0645 11.809 49.0645 11.8213ZM23.7971 37.1788C23.7971 43.7203 18.4027 49 11.856 49C5.41959 49 0.0252686 43.7203 0.0252686 37.1788C0.0252686 30.6373 5.41959 25.3575 11.856 25.3575C18.4027 25.3575 23.7971 30.6373 23.7971 37.1788ZM49.0645 37.1788C49.0768 43.6958 43.7928 48.9878 37.2707 49C37.2584 49 37.2461 49 37.2339 49C30.7116 49.0123 25.4153 43.7325 25.4031 37.2155C25.4031 37.2032 25.4031 37.191 25.4031 37.1788C25.3908 30.6618 30.6749 25.3698 37.1971 25.3575C37.2093 25.3575 37.2216 25.3575 37.2339 25.3575C43.756 25.3453 49.0523 30.625 49.0645 37.142C49.0645 37.1543 49.0645 37.1665 49.0645 37.1788Z" fill="#00A0E2"/>
</g>
<defs>
<clipPath id="clip0_212_6793">
<rect width="171" height="49" fill="white" transform="translate(0.0252686)"/>
</clipPath>
</defs>
</svg>
