<svg width="38" height="42" viewBox="0 0 38 42" fill="none" xmlns="http://www.w3.org/2000/svg">
<path opacity="0.947" fill-rule="evenodd" clip-rule="evenodd" d="M29.1211 0C29.3672 0 29.6133 0 29.8594 0C30.1011 0.206676 30.3062 0.45277 30.4746 0.738281C31.3797 2.21995 32.2 3.7512 32.9355 5.33203C33.3086 6.14069 33.541 6.98834 33.6328 7.875C33.5852 8.94854 33.2024 9.87829 32.4844 10.6641C34.3249 12.0531 35.7605 13.7758 36.791 15.832C37.5866 17.5791 37.6686 19.3565 37.0371 21.1641C36.1623 22.9485 34.7268 23.7141 32.7305 23.4609C32.8396 27.8548 32.6072 32.2298 32.0332 36.5859C31.8577 37.9011 31.5569 39.1862 31.1309 40.4414C30.8974 41.0971 30.5009 41.6166 29.9414 42C29.6133 42 29.2852 42 28.957 42C28.4897 41.7373 28.1479 41.3545 27.9316 40.8516C27.5031 39.7937 27.2023 38.7 27.0293 37.5703C26.402 33.4661 26.1013 29.3372 26.127 25.1836C24.3693 26.5651 23.3303 28.3698 23.0098 30.5977C22.9824 31.9649 22.9551 33.332 22.9277 34.6992C22.4456 37.5058 20.9281 39.5429 18.375 40.8105C15.8009 41.8005 13.2579 41.7185 10.7461 40.5645C5.46866 38.1471 2.03702 34.1412 0.451172 28.5469C0.242648 27.7093 0.0922524 26.8617 0 26.0039C0.0576598 25.2355 0.467816 24.9484 1.23047 25.1426C1.34784 25.1807 1.44354 25.2491 1.51758 25.3477C2.24657 30.5138 4.72119 34.6017 8.94141 37.6113C10.5006 38.6416 12.1959 39.3526 14.0273 39.7441C17.3371 40.011 19.6476 38.6302 20.959 35.6016C21.054 35.2491 21.136 34.8936 21.2051 34.5352C21.2324 33.1679 21.2598 31.8008 21.2871 30.4336C21.7377 27.2333 23.3373 24.7997 26.0859 23.1328C26.1876 19.8621 26.4747 16.6082 26.9473 13.3711C27.0563 12.716 27.2067 12.0734 27.3984 11.4434C26.4424 10.8156 25.7999 9.95425 25.4707 8.85938C20.2725 6.37952 15.1183 6.47522 10.0078 9.14648C5.91552 11.6001 3.24951 15.1412 2.00977 19.7695C1.69633 20.2529 1.27251 20.376 0.738281 20.1387C0.515607 19.9393 0.378886 19.6932 0.328125 19.4004C1.9072 13.3438 5.57127 9.07815 11.3203 6.60352C16.0587 4.86138 20.7619 4.95707 25.4297 6.89062C26.2307 4.76904 27.2288 2.74561 28.4238 0.820312C28.6002 0.491962 28.8327 0.218525 29.1211 0ZM29.4492 2.54297C30.5552 4.18132 31.3756 5.95867 31.9102 7.875C31.4791 9.84022 30.3033 10.5375 28.3828 9.9668C27.145 9.20013 26.7894 8.13369 27.3164 6.76758C27.9099 5.2934 28.6209 3.88521 29.4492 2.54297ZM18.293 11.2383C19.7817 11.1274 20.4516 11.8109 20.3027 13.2891C19.7431 14.3999 18.9091 14.6597 17.8008 14.0684C17.1529 13.3912 17.0572 12.6393 17.5137 11.8125C17.7425 11.5693 18.0023 11.3779 18.293 11.2383ZM29.0391 11.8945C29.2728 11.984 29.5052 11.984 29.7363 11.8945C29.8138 11.9278 29.8686 11.9825 29.9004 12.0586C30.3824 14.1377 30.6695 16.2431 30.7617 18.375C29.8867 18.4843 29.0117 18.4843 28.1367 18.375C28.2309 16.1846 28.5317 14.0245 29.0391 11.8945ZM31.7461 12.3867C33.2753 13.5009 34.4375 14.9228 35.2324 16.6523C35.726 17.8552 35.808 19.0856 35.4785 20.3438C34.9365 21.5104 34.0205 21.9752 32.7305 21.7383C32.6435 18.5936 32.3154 15.4764 31.7461 12.3867ZM9.26953 15.3398C10.7582 15.2289 11.4282 15.9125 11.2793 17.3906C10.7197 18.5015 9.88567 18.7613 8.77734 18.1699C8.12946 17.4928 8.03373 16.7409 8.49023 15.9141C8.7191 15.6708 8.97889 15.4795 9.26953 15.3398ZM27.9727 20.0977C28.9576 20.1963 29.942 20.1963 30.9258 20.0977C31.062 24.0096 31.021 27.9198 30.8027 31.8281C30.6737 34.2082 30.3456 36.5597 29.8184 38.8828C29.7193 39.2213 29.5962 39.5494 29.4492 39.8672C29.0747 38.9435 28.815 37.9865 28.6699 36.9961C27.911 31.3793 27.6786 25.7466 27.9727 20.0977ZM6.80859 25.1836C8.2973 25.0727 8.96725 25.7563 8.81836 27.2344C8.25874 28.3452 7.42473 28.605 6.31641 28.0137C5.66852 27.3365 5.57281 26.5846 6.0293 25.7578C6.25816 25.5146 6.51796 25.3232 6.80859 25.1836ZM14.1914 31.7461C15.6801 31.6352 16.3501 32.3188 16.2012 33.7969C15.6416 34.9077 14.8075 35.1675 13.6992 34.5762C13.0513 33.899 12.9556 33.1471 13.4121 32.3203C13.641 32.0771 13.9008 31.8857 14.1914 31.7461Z" fill="white"/>
</svg>
