<svg width="122" height="68" viewBox="0 0 122 68" fill="none" xmlns="http://www.w3.org/2000/svg">
<path fill-rule="evenodd" clip-rule="evenodd" d="M110.8 26.9791C110.777 26.51 110.782 26.0533 110.804 25.6246C110.88 24.3352 112.087 24.3397 112.181 24.3415C112.378 24.3459 113.254 24.4009 113.465 25.4062C113.478 25.4661 113.509 25.9002 113.518 26.0675C113.536 26.4243 113.545 26.775 113.496 27.1269C113.541 27.7239 113.639 28.3381 113.827 28.916C114.099 29.769 114.542 30.5564 115.342 30.9758C116.773 31.7303 118.656 31.6997 120.23 31.8914C120.887 31.9713 121.388 32.5154 121.41 33.1723C121.428 33.8296 120.963 34.403 120.31 34.5224C118.343 34.8837 116.08 36.6595 114.64 38.0895C114.198 38.5289 113.701 39.5754 113.147 40.2456C112.7 40.7826 112.204 41.1426 111.734 41.2855C111.551 41.341 110.536 41.5434 110.08 40.5004C109.955 40.2074 109.512 38.6736 109.472 38.4987C109.23 37.4965 108.886 36.6013 108.211 35.8042C107.625 35.1132 106.914 34.5096 106.06 34.1749C105.716 34.04 105.358 33.9375 105 33.8318C104.875 33.8167 104.522 33.7724 104.397 33.7302C104.142 33.6459 103.954 33.5136 103.82 33.3818C103.565 33.1324 103.435 32.8346 103.413 32.4955C103.395 32.2718 103.426 32.0064 103.587 31.7121C103.708 31.5031 103.981 31.1884 104.473 30.9842C104.987 30.7707 106.091 30.5679 106.288 30.5151C107.656 30.1494 108.998 29.5933 110.048 28.6293C110.572 28.1473 110.692 27.6276 110.8 26.9791ZM111.676 30.7535C112.204 31.8391 112.991 32.7529 114.086 33.3285C114.538 33.5678 115.029 33.7493 115.539 33.8904C114.488 34.6165 113.514 35.442 112.74 36.2072C112.49 36.4562 112.217 36.8592 111.926 37.3017C111.587 36.1202 111.086 35.059 110.263 34.0879C109.776 33.5154 109.226 32.9921 108.613 32.5558C109.722 32.12 110.773 31.5368 111.676 30.7535Z" fill="#FFA722"/>
<path fill-rule="evenodd" clip-rule="evenodd" d="M82.8493 64.6917C93.0261 64.9358 103.426 64.4432 113.156 67.8962C113.854 68.1447 114.623 67.7808 114.873 67.0928C115.124 66.4004 114.757 65.637 114.059 65.3885C104.057 61.8379 93.3749 62.2773 82.9164 62.0287C82.1742 62.011 81.5616 62.5924 81.5437 63.3247C81.5258 64.0615 82.1116 64.6695 82.8493 64.6917Z" fill="#FFA722"/>
<path fill-rule="evenodd" clip-rule="evenodd" d="M82.0934 49.9348C85.2457 47.0566 88.6841 44.8982 92.8425 43.8295C93.5579 43.6453 93.9872 42.9183 93.8038 42.2069C93.616 41.4954 92.8872 41.0676 92.1674 41.2518C87.5708 42.4328 83.7612 44.794 80.278 47.9744C79.7325 48.472 79.6968 49.3148 80.1976 49.8558C80.6984 50.3968 81.5479 50.4324 82.0934 49.9348Z" fill="#FFA722"/>
<path fill-rule="evenodd" clip-rule="evenodd" d="M73.3116 18.134C74.7558 13.2274 77.5952 9.38876 81.9458 6.61705C82.5673 6.22027 82.7506 5.39563 82.3482 4.77737C81.9502 4.15868 81.1185 3.97893 80.497 4.37616C75.5785 7.50826 72.3681 11.8431 70.7361 17.3879C70.5304 18.0931 70.9373 18.833 71.6483 19.0389C72.3592 19.2449 73.1059 18.8392 73.3116 18.134Z" fill="#FFA722"/>
<path fill-rule="evenodd" clip-rule="evenodd" d="M22.5978 11.3106C21.7572 12.3021 21.006 13.3673 20.3622 14.4991C19.9866 15.152 19.3248 16.6725 19.4366 17.7737C19.5216 18.5987 19.915 19.2698 20.702 19.6657C21.9584 20.2995 22.9645 20.2218 23.738 19.8388C24.4803 19.4722 25.0705 18.7576 25.4371 17.7923C26.0899 16.0689 26.014 13.4636 25.6831 11.8943C26.5773 10.9893 27.5566 10.1664 28.5984 9.43234C36.611 3.79438 48.3662 5.90079 57.4117 14.3309C60.5819 17.2841 62.0888 23.4928 62.8802 30.1844C64.1277 40.6845 63.4167 52.4118 63.3184 55.8475C63.296 56.7516 63.3944 57.2877 63.4391 57.3947C63.6895 57.9854 64.1366 58.1407 64.4452 58.1984C64.8789 58.2783 65.2232 58.194 65.5049 58.0476C65.8805 57.8523 66.1934 57.5096 66.3365 56.9761C66.4081 56.7036 66.4304 56.3251 66.4215 55.9207C66.4125 55.6815 66.3544 55.4205 66.4036 55.2492C66.7524 54.0451 67.1726 52.8685 67.5795 51.6844C68.9477 47.701 70.7229 43.9684 72.6858 40.2398C78.9412 28.3852 84.9775 15.8554 95.2303 6.82352C95.7848 6.33575 95.8384 5.49381 95.3466 4.94391C94.8547 4.39445 94.0052 4.34429 93.4508 4.83206C82.952 14.0788 76.71 26.8677 70.3116 39.0051C68.8226 41.8252 67.4454 44.6492 66.2605 47.5754C66.3678 40.969 66.2069 32.0166 64.7269 24.6277C63.6761 19.3586 61.9189 14.8741 59.2495 12.3896C49.1576 2.98485 35.9851 0.969851 27.0469 7.25979C26.166 7.87849 25.3299 8.55401 24.5384 9.28278C19.7899 1.05153 9.85007 -2.21416 1.05494 1.77009C0.384241 2.07545 0.0846703 2.86589 0.393193 3.5343C0.701715 4.20271 1.4976 4.49784 2.1683 4.19248C9.92161 0.680913 18.7033 3.7784 22.5978 11.3106ZM23.2864 14.8471C23.0808 15.1617 22.884 15.4831 22.6962 15.811C22.5621 16.0409 22.3609 16.4413 22.2223 16.8691C22.1775 17.0178 22.1418 17.2517 22.1239 17.3946C22.2893 17.4727 22.4235 17.5136 22.5442 17.4545C22.7409 17.3565 22.8259 17.1119 22.9242 16.8531C23.1433 16.2766 23.2551 15.559 23.2864 14.8471Z" fill="#FFA722"/>
</svg>
