<svg width="101" height="101" viewBox="0 0 101 101" fill="none" xmlns="http://www.w3.org/2000/svg">
<g clip-path="url(#clip0_212_6993)">
<path fill-rule="evenodd" clip-rule="evenodd" d="M45.0268 41.008C44.198 39.2159 42.7582 37.7937 40.5596 36.982C33.7583 34.4713 28.2511 37.1701 24.0973 42.1311C18.0322 49.3752 14.9031 61.506 14.8506 68.6499C14.8477 68.9882 15.1205 69.2637 15.4576 69.2657C15.7959 69.2685 16.0725 68.9967 16.0754 68.6584C16.1259 61.7245 19.1506 49.9472 25.0363 42.9163C28.8505 38.3613 33.8892 35.8246 40.1358 38.1315C41.9954 38.8167 43.2064 40.021 43.911 41.5344C42.9291 42.0101 41.9735 42.5073 41.0464 43.0256C38.4878 44.4571 32.6209 49.3494 29.9064 54.1336C27.96 57.566 27.6336 60.9384 30.7614 63.132C32.5001 64.3508 34.5213 64.2037 36.5294 63.0736C39.2911 61.5214 42.0477 58.0496 43.8464 54.0979C45.3446 50.8081 46.1796 47.1937 45.8493 44.1074C45.7753 43.4293 45.6486 42.7755 45.4607 42.1551C59.2046 35.8163 77.4362 33.8804 91.6809 37.9276C92.0058 38.0186 92.3447 37.8315 92.4366 37.5053C92.5298 37.1801 92.3404 36.8415 92.0165 36.7492C77.5391 32.6371 59.0199 34.5848 45.0268 41.008ZM44.3359 42.6884C43.4141 43.1375 42.5162 43.6063 41.6443 44.0944C39.1929 45.4669 33.5727 50.1537 30.972 54.7376C29.3756 57.5506 28.901 60.332 31.4644 62.13C32.8112 63.0734 34.3739 62.8805 35.9297 62.0073C37.6402 61.0449 39.3319 59.278 40.7708 57.1234C42.9553 53.8523 44.5521 49.6854 44.6872 45.998C44.7305 44.8298 44.6243 43.7102 44.3359 42.6884Z" fill="#674CEF"/>
<path fill-rule="evenodd" clip-rule="evenodd" d="M70.9524 47.4976C76.232 42.4504 84.5787 39.0979 91.8148 37.8568C92.1475 37.7998 92.3712 37.4828 92.3141 37.1501C92.2571 36.8173 91.9411 36.5924 91.6083 36.6495C84.1459 37.9285 75.5499 41.4096 70.1067 46.6124C69.8629 46.8451 69.8541 47.2329 70.0881 47.4777C70.3207 47.7215 70.7085 47.7303 70.9524 47.4976Z" fill="#674CEF"/>
<path fill-rule="evenodd" clip-rule="evenodd" d="M91.6219 36.4987C85.5844 35.7743 78.8308 31.2831 74.9992 26.5379C74.7868 26.2745 74.4006 26.2323 74.1385 26.4457C73.8751 26.6581 73.8338 27.0429 74.0462 27.3063C78.0604 32.2774 85.1508 36.955 91.4762 37.7141C91.8113 37.755 92.117 37.5142 92.1579 37.1791C92.1975 36.843 91.958 36.5384 91.6219 36.4987Z" fill="#674CEF"/>
</g>
<defs>
<clipPath id="clip0_212_6993">
<rect width="72" height="72" fill="white" transform="translate(42.9001 0.250244) rotate(36.5723)"/>
</clipPath>
</defs>
</svg>
