<svg width="109" height="50" viewBox="0 0 109 50" fill="none" xmlns="http://www.w3.org/2000/svg">
<path d="M88.4763 2.11442C86.2391 4.09351 86.0265 4.51615 81.5278 16.9994C80.6939 19.4379 79.6385 21.4271 79.2044 21.4005C78.7704 21.3739 76.4395 19.7997 74.0036 17.9079C65.0825 11.1379 61.6824 9.74714 59.7868 12.245C59.2414 13.0207 57.7077 16.7233 56.4144 20.5651C54.2062 27.1516 53.0508 29.757 52.4308 29.7191C52.2448 29.7077 48.8598 28.0689 44.932 26.148C41.0079 24.1651 36.9371 22.5466 35.945 22.4858C33.5268 22.3377 32.064 23.8663 28.2399 30.4161C26.5037 33.3594 24.5739 36.4154 23.9045 37.1835L22.6391 38.5375L16.1172 35.2752C12.4956 33.4352 9.15364 32.1103 8.52219 32.2583C7.0037 32.6633 5.62311 34.8815 2.91886 41.4376C0.577786 47.1446 0.0576773 49.54 1.11177 49.6046C1.85583 49.6501 3.10481 47.5483 5.91029 41.3718C7.19345 38.7119 8.53101 36.1799 8.98403 35.8964C9.50665 35.4927 11.4528 36.2343 15.1947 38.1438C18.1494 39.694 21.3673 41.0113 22.3594 41.0721C24.7738 41.2822 26.6276 39.4663 30.3822 33.0368C34.9099 25.1609 34.9061 25.2229 37.7634 26.3314C39.0389 26.8452 42.4859 28.4877 45.4406 30.0379C52.1334 33.5596 54.1213 33.6191 56.1865 30.3847C57.0141 29.0662 58.2618 25.9684 59.0413 23.4022C60.77 17.5332 62.0607 14.7493 63.0528 14.8101C63.4868 14.8366 66.539 16.8284 69.8164 19.2075C77.2671 24.5805 78.6514 25.3499 80.604 24.9715C82.4907 24.6514 84.2534 21.274 86.6654 13.393C88.6762 6.98121 90.4744 4.04166 92.2725 4.15177C92.9546 4.19354 95.9941 5.37546 99.0222 6.74341C106.164 10.0437 108.06 10.5954 108.143 9.23131C108.261 7.30914 98.5313 1.54761 93.7291 0.693413C90.8958 0.20873 90.582 0.251749 88.4763 2.11442Z" fill="#39D4D6"/>
</svg>
