<svg width="45" height="45" viewBox="0 0 45 45" fill="none" xmlns="http://www.w3.org/2000/svg">
<path opacity="0.967" fill-rule="evenodd" clip-rule="evenodd" d="M22.1045 0.659175C22.3407 0.644753 22.5751 0.659401 22.8076 0.70312C22.9687 0.747065 23.0713 0.849605 23.1153 1.01074C23.1739 2.18261 23.1739 3.35449 23.1153 4.52636C23.0713 4.68749 22.9687 4.79003 22.8076 4.83398C22.5732 4.89258 22.3389 4.89258 22.1045 4.83398C21.9434 4.79003 21.8408 4.68749 21.7969 4.52636C21.7383 3.35449 21.7383 2.18261 21.7969 1.01074C21.8575 0.848119 21.96 0.730931 22.1045 0.659175Z" fill="white"/>
<path opacity="0.894" fill-rule="evenodd" clip-rule="evenodd" d="M15.1612 3.55933C15.4668 3.53157 15.7599 3.57552 16.0401 3.69116C16.6992 4.35034 17.3584 5.00952 18.0176 5.6687C18.3351 6.75764 17.9688 7.12385 16.919 6.76734C16.2598 6.10816 15.6006 5.44898 14.9414 4.7898C14.7145 4.31693 14.7877 3.90677 15.1612 3.55933Z" fill="white"/>
<path opacity="0.892" fill-rule="evenodd" clip-rule="evenodd" d="M29.0478 3.55976C29.9762 3.50655 30.2838 3.9167 29.9706 4.79023C29.2822 5.4787 28.5937 6.16718 27.9052 6.85566C26.9172 7.09813 26.551 6.73192 26.8066 5.75702C27.5444 5.00442 28.2915 4.272 29.0478 3.55976Z" fill="white"/>
<path opacity="0.963" fill-rule="evenodd" clip-rule="evenodd" d="M22.0165 6.89941C25.4377 6.90239 28.0012 8.36723 29.7069 11.2939C30.1629 12.2098 30.4413 13.1766 30.5419 14.1943C33.6483 13.5907 36.7831 13.3124 39.9462 13.3594C40.5631 13.566 41.0172 13.9615 41.3085 14.5459C41.4033 15.3028 41.4766 16.0646 41.5282 16.8311C42.94 17.2321 43.8336 18.1403 44.2089 19.5557C44.2958 26.7666 44.2665 33.9736 44.121 41.1768C43.6722 42.4165 42.808 43.193 41.5282 43.5059C28.8134 43.5645 16.0986 43.5645 3.38371 43.5059C2.10395 43.193 1.23969 42.4165 0.790934 41.1768C0.645435 33.9736 0.616137 26.7666 0.703043 19.5557C1.0839 18.1201 1.99211 17.2119 3.42765 16.8311C3.43585 16.092 3.49445 15.3595 3.60343 14.6338C3.86693 13.9602 4.35033 13.5354 5.05363 13.3594C6.28608 13.2979 7.51654 13.3271 8.74504 13.4473C10.6313 13.6184 12.5062 13.8674 14.37 14.1943C14.7865 10.98 16.4858 8.73882 19.4677 7.4707C20.3079 7.18282 21.1576 6.99238 22.0165 6.89941ZM22.3681 8.39355C25.8862 8.62156 28.0981 10.438 29.0038 13.8428C29.4224 16.7486 28.4411 19.0484 26.0595 20.7422C25.003 21.8596 24.461 23.1927 24.4335 24.7412C24.0978 25.1223 23.6729 25.2981 23.1591 25.2686C23.1738 23.5105 23.1591 21.7527 23.1152 19.9951C22.2823 18.9308 21.4181 17.8907 20.5224 16.875C21.7236 16.8164 22.9247 16.8164 24.1259 16.875C23.6689 17.3026 23.2441 17.7567 22.8515 18.2373C22.8016 19.2307 23.2263 19.509 24.1259 19.0723C24.9316 18.2666 25.7372 17.461 26.5429 16.6553C26.7187 16.3037 26.7187 15.9521 26.5429 15.6006C26.477 15.5456 26.4037 15.5016 26.3232 15.4688C23.7451 15.4101 21.1669 15.4101 18.5888 15.4688C18.1457 15.8004 18.0725 16.1959 18.3691 16.6553C19.4615 17.9899 20.5748 19.3083 21.7089 20.6104C21.7528 22.1629 21.7675 23.7155 21.7528 25.2686C21.239 25.2981 20.8142 25.1223 20.4784 24.7412C20.4178 23.6489 20.1248 22.6235 19.5995 21.665C18.8671 20.8154 18.0761 20.0244 17.2265 19.292C15.2684 16.4573 15.2977 13.6448 17.3144 10.8545C18.6791 9.35903 20.3636 8.53873 22.3681 8.39355ZM5.66886 14.7217C8.56571 14.8352 11.4368 15.1868 14.2821 15.7764C14.4483 17.4032 15.0195 18.868 15.996 20.1709C16.731 20.9353 17.4928 21.6678 18.2812 22.3682C18.7477 23.1527 18.9821 24.0022 18.9843 24.917C19.2626 25.7812 19.8339 26.3525 20.6982 26.6309C21.8994 26.6895 23.1005 26.6895 24.3017 26.6309C25.576 26.1211 26.1766 25.1689 26.1034 23.7744C26.2331 23.1493 26.4967 22.5927 26.8944 22.1045C29.0782 20.5339 30.3526 18.4098 30.7177 15.7324C33.6618 15.1113 36.6208 14.8183 39.5946 14.8535C39.6972 14.9561 39.7997 15.0586 39.9023 15.1611C39.9609 22.8369 39.9609 30.5127 39.9023 38.1885C39.7997 38.291 39.6972 38.3935 39.5946 38.4961C33.9416 38.6189 28.4777 39.6882 23.203 41.7041C23.1591 37.632 23.1444 33.5597 23.1591 29.4873C23.5807 29.5206 23.9909 29.4767 24.3896 29.3555C24.5591 29.0693 24.6031 28.7617 24.5214 28.4326C24.4775 28.2715 24.3749 28.1689 24.2138 28.125C23.0419 28.0664 21.87 28.0664 20.6982 28.125C20.4331 28.2594 20.3159 28.4791 20.3466 28.7842C20.3382 28.9974 20.3967 29.1879 20.5224 29.3555C20.9211 29.4767 21.3312 29.5206 21.7528 29.4873C21.7675 33.5597 21.7528 37.632 21.7089 41.7041C16.4342 39.6882 10.9703 38.6189 5.3173 38.4961C5.07402 38.3412 4.94218 38.1215 4.92179 37.8369C4.8632 30.3955 4.8632 22.9541 4.92179 15.5127C5.01102 15.0868 5.26005 14.8231 5.66886 14.7217ZM3.38371 18.4131C3.45692 25.078 3.50087 31.7577 3.51554 38.4521C3.73527 39.2578 4.24796 39.7705 5.05363 39.9902C9.54062 40.1229 13.9352 40.826 18.2372 42.0996C13.5498 42.1582 8.86219 42.1582 4.17472 42.0996C2.9296 41.9678 2.24113 41.2793 2.10929 40.0342C2.0507 33.4717 2.0507 26.9092 2.10929 20.3467C2.16878 19.4538 2.59358 18.8092 3.38371 18.4131ZM41.4403 18.4131C42.283 18.774 42.7372 19.4186 42.8027 20.3467C42.8613 26.9092 42.8613 33.4717 42.8027 40.0342C42.6415 41.25 41.953 41.9385 40.7372 42.0996C36.0498 42.1582 31.3622 42.1582 26.6747 42.0996C30.9768 40.826 35.3713 40.1229 39.8583 39.9902C40.664 39.7705 41.1767 39.2578 41.3964 38.4521C41.4403 31.7725 41.455 25.0929 41.4403 18.4131Z" fill="white"/>
<path opacity="0.922" fill-rule="evenodd" clip-rule="evenodd" d="M7.60244 17.4463C8.72004 17.5375 9.83328 17.6694 10.9423 17.8418C11.411 18.2812 11.411 18.7207 10.9423 19.1602C9.73229 19.1827 8.53116 19.0948 7.33877 18.8965C7.17764 18.8525 7.0751 18.75 7.03115 18.5889C6.85519 18.0031 7.04563 17.6222 7.60244 17.4463Z" fill="white"/>
<path opacity="0.929" fill-rule="evenodd" clip-rule="evenodd" d="M7.5146 20.3467C9.39836 20.486 11.2733 20.7057 13.1396 21.0059C13.6313 21.2128 13.7924 21.579 13.623 22.1045C13.4257 22.4039 13.1473 22.5211 12.788 22.4561C11.0665 22.2045 9.33798 22.0141 7.60249 21.8848C6.98311 21.6475 6.82198 21.2228 7.11909 20.6104C7.2429 20.4978 7.37474 20.4099 7.5146 20.3467Z" fill="white"/>
<path opacity="0.931" fill-rule="evenodd" clip-rule="evenodd" d="M7.51472 25.2686C11.5683 25.5022 15.5234 26.2492 19.38 27.5098C19.7255 27.9137 19.7255 28.3239 19.38 28.7402C19.2451 28.8214 19.0986 28.8653 18.9405 28.8721C15.2409 27.7484 11.4616 27.0599 7.60261 26.8066C7.14509 26.7418 6.94001 26.4781 6.98738 26.0156C6.9785 25.63 7.15428 25.381 7.51472 25.2686Z" fill="white"/>
<path opacity="0.93" fill-rule="evenodd" clip-rule="evenodd" d="M36.5186 25.3565C36.8422 25.342 37.1645 25.3566 37.4854 25.4004C37.6424 25.4694 37.7742 25.5719 37.8809 25.7081C37.9396 25.9717 37.9396 26.2354 37.8809 26.4991C37.7742 26.6352 37.6424 26.7377 37.4854 26.8067C33.5061 27.0782 29.6096 27.7959 25.796 28.96C24.9783 28.6073 24.8904 28.1239 25.5323 27.5098C29.1297 26.4006 32.7917 25.6829 36.5186 25.3565Z" fill="white"/>
<path opacity="0.931" fill-rule="evenodd" clip-rule="evenodd" d="M7.33877 28.7842C11.3853 28.9411 15.3404 29.6295 19.204 30.8496C19.6002 31.2058 19.6587 31.616 19.3798 32.0801C19.1963 32.1706 19.0058 32.2438 18.8085 32.2998C15.0642 31.1607 11.2409 30.4429 7.33877 30.1465C7.07369 30.0121 6.95649 29.7924 6.9872 29.4873C6.96808 29.1739 7.08526 28.9396 7.33877 28.7842Z" fill="white"/>
<path opacity="0.93" fill-rule="evenodd" clip-rule="evenodd" d="M36.0791 28.7843C36.5779 28.7697 37.076 28.7844 37.5732 28.8282C37.6537 28.8611 37.727 28.905 37.7929 28.96C37.9783 29.3363 37.9636 29.7025 37.749 30.0587C33.7197 30.4374 29.7647 31.2137 25.8838 32.3878C25.1926 32.2343 24.9729 31.8242 25.2246 31.1573C25.2978 31.0841 25.3711 31.0108 25.4443 30.9376C28.9271 29.8514 32.472 29.1336 36.0791 28.7843Z" fill="white"/>
<path opacity="0.931" fill-rule="evenodd" clip-rule="evenodd" d="M7.3389 32.2998C11.3855 32.4567 15.3405 33.1451 19.2041 34.3652C19.8271 34.7634 19.8857 35.2321 19.3799 35.7715C19.2451 35.8526 19.0986 35.8966 18.9405 35.9033C15.2745 34.7512 11.5244 34.0334 7.69046 33.75C7.05943 33.6467 6.8397 33.2805 7.03128 32.6514C7.0919 32.4888 7.19444 32.3715 7.3389 32.2998Z" fill="white"/>
<path opacity="0.932" fill-rule="evenodd" clip-rule="evenodd" d="M37.1338 32.2998C37.9087 32.4432 38.1285 32.8827 37.793 33.6182C37.622 33.738 37.4316 33.8113 37.2217 33.8379C33.3941 34.1024 29.644 34.7909 25.9717 35.9033C25.2111 35.8042 24.962 35.394 25.2246 34.6729C25.2978 34.5996 25.3711 34.5263 25.4444 34.4531C29.2727 33.2977 33.1692 32.5799 37.1338 32.2998Z" fill="white"/>
</svg>
