<svg width="42" height="42" viewBox="0 0 42 42" fill="none" xmlns="http://www.w3.org/2000/svg">
<g clip-path="url(#clip0_212_7251)">
<path opacity="0.936" fill-rule="evenodd" clip-rule="evenodd" d="M16.1191 2.74805C19.3458 2.73437 22.5723 2.74805 25.7987 2.78906C27.7483 3.04438 28.7053 4.16547 28.6698 6.15235C28.7328 7.40453 28.1859 7.84203 27.0292 7.46485C26.8093 7.28487 26.6862 7.05245 26.6601 6.76758C26.6328 6.30273 26.6054 5.83789 26.578 5.37305C26.5097 5.08594 26.3319 4.9082 26.0448 4.83984C22.6542 4.78515 19.2636 4.78515 15.873 4.83984C15.5859 4.9082 15.4081 5.08594 15.3398 5.37305C15.3124 5.83789 15.285 6.30273 15.2577 6.76758C15.0517 7.53359 14.5733 7.79336 13.8222 7.54688C13.4681 7.37251 13.2904 7.0854 13.289 6.68555C13.0687 5.32239 13.4652 4.18763 14.4784 3.28125C15.0014 2.99289 15.5483 2.81516 16.1191 2.74805Z" fill="white"/>
<path opacity="0.962" fill-rule="evenodd" clip-rule="evenodd" d="M41.959 11.6895C41.959 14.1777 41.959 16.6661 41.959 19.1543C41.627 20.1836 40.9434 20.8809 39.9082 21.2461C34.9072 22.3801 29.9033 23.5012 24.8965 24.6094C24.8289 25.7107 24.7879 26.8181 24.7734 27.9317C24.6567 28.3669 24.3696 28.5993 23.9121 28.6289C21.9434 28.6836 19.9746 28.6836 18.0059 28.6289C17.5484 28.5993 17.2613 28.3669 17.1445 27.9317C17.1301 26.8181 17.0891 25.7107 17.0215 24.6094C12.0147 23.5012 7.01077 22.3801 2.00977 21.2461C0.974531 20.8809 0.29094 20.1836 -0.0410156 19.1543C-0.0410156 16.6661 -0.0410156 14.1777 -0.0410156 11.6895C0.280762 10.5066 1.04639 9.782 2.25586 9.51565C14.7246 9.46093 27.1934 9.46093 39.6621 9.51565C40.8716 9.782 41.6372 10.5066 41.959 11.6895ZM2.66602 11.4434C14.8614 11.4297 27.0567 11.4434 39.252 11.4844C39.58 11.5392 39.8124 11.717 39.9492 12.0176C40.0039 14.2872 40.0039 16.5566 39.9492 18.8262C39.8572 19.0004 39.7341 19.1508 39.5801 19.2774C34.6657 20.4215 29.7438 21.529 24.8145 22.5996C24.8411 22.1814 24.8001 21.7712 24.6914 21.3692C24.5648 21.2151 24.4145 21.0921 24.2402 21C22.0527 20.9453 19.8653 20.9453 17.6777 21C17.5035 21.0921 17.3531 21.2151 17.2266 21.3692C17.1179 21.7712 17.0769 22.1814 17.1035 22.5996C12.1742 21.529 7.25229 20.4215 2.33789 19.2774C2.18381 19.1508 2.06076 19.0004 1.96875 18.8262C1.91406 16.5566 1.91406 14.2872 1.96875 12.0176C2.12057 11.7176 2.35299 11.5262 2.66602 11.4434ZM19.0723 22.9278C20.3301 22.9278 21.5879 22.9278 22.8457 22.9278C22.8457 24.1582 22.8457 25.3887 22.8457 26.6192C21.5879 26.6192 20.3301 26.6192 19.0723 26.6192C19.0723 25.3887 19.0723 24.1582 19.0723 22.9278Z" fill="white"/>
<path opacity="0.947" fill-rule="evenodd" clip-rule="evenodd" d="M1.51758 22.8456C2.093 22.7165 2.51683 22.908 2.78906 23.4199C2.81641 27.6855 2.84376 31.9511 2.8711 36.2167C2.87252 36.6166 3.05025 36.9037 3.4043 37.0781C15.1075 37.1328 26.8105 37.1328 38.5137 37.0781C38.8677 36.9037 39.0455 36.6166 39.0469 36.2167C39.0742 31.9511 39.1016 27.6855 39.1289 23.4199C39.4015 22.8942 39.8253 22.7164 40.4004 22.8867C40.7882 23.0012 40.9933 23.2609 41.0156 23.666C41.0703 27.9589 41.0703 32.2519 41.0156 36.5449C40.7916 38.1359 39.8756 38.9973 38.2676 39.1288C26.7285 39.1836 15.1895 39.1836 3.65039 39.1288C2.04241 38.9973 1.12639 38.1359 0.902346 36.5449C0.847656 32.2519 0.847656 27.9589 0.902346 23.666C0.941007 23.2592 1.14609 22.9858 1.51758 22.8456ZM19.0723 22.9277C19.0723 24.1581 19.0723 25.3886 19.0723 26.6191C20.3301 26.6191 21.5879 26.6191 22.8457 26.6191C22.8457 25.3886 22.8457 24.1581 22.8457 22.9277C21.5879 22.9277 20.3301 22.9277 19.0723 22.9277Z" fill="white"/>
</g>
<defs>
<clipPath id="clip0_212_7251">
<rect width="42" height="42" fill="white"/>
</clipPath>
</defs>
</svg>
