<svg width="83" height="70" viewBox="0 0 83 70" fill="none" xmlns="http://www.w3.org/2000/svg">
<path fill-rule="evenodd" clip-rule="evenodd" d="M60.2251 7.81954C64.2515 8.02593 67.4519 10.0627 70.6523 12.3498C81.1485 19.8603 84.6589 31.5133 77.4665 42.9644C66.2821 60.7223 40.2309 72.3445 20.0302 66.9808C15.5565 65.7987 9.49968 64.7568 5.06034 58.9841C0.930717 53.6167 1.10278 47.2358 2.99553 41.3284C4.92268 35.2715 8.63934 29.697 11.5989 26.1136C24.5384 10.4796 50.4517 -3.72959 73.8873 3.76139C74.3691 3.90572 74.851 3.65751 74.9886 3.20702C75.1263 2.75653 74.8852 2.27348 74.4378 2.12914C50.314 -5.58022 23.5747 8.9341 10.2566 25.0238C6.5744 29.492 1.75678 36.9507 0.380236 44.668C-0.548929 49.9425 0.104794 55.3343 3.6838 60.0246C8.39845 66.1737 14.8338 67.3781 19.5829 68.637C40.4375 74.1769 67.3831 62.215 78.9116 43.8746C86.6546 31.5668 82.9381 19.03 71.6505 10.9572C68.2091 8.47573 64.6988 6.33129 60.3283 6.10776C59.8465 6.08342 59.4337 6.44717 59.4337 6.9196C59.3993 7.39203 59.7777 7.7952 60.2251 7.81954Z" fill="#FFA722"/>
</svg>
