<svg width="45" height="45" viewBox="0 0 45 45" fill="none" xmlns="http://www.w3.org/2000/svg">
<g clip-path="url(#clip0_303_269)">
<path opacity="0.952" fill-rule="evenodd" clip-rule="evenodd" d="M8.042 -0.0444336C18.8818 -0.0444336 29.7217 -0.0444336 40.5615 -0.0444336C40.706 0.0273234 40.8085 0.144511 40.8691 0.307129C40.9278 14.0767 40.9278 27.8462 40.8691 41.6157C40.7106 41.9073 40.4616 42.0244 40.1221 41.9673C39.153 41.8302 38.1862 41.6837 37.2217 41.5278C37.2364 42.5243 37.2217 43.5205 37.1777 44.5161C37.0901 44.6763 36.9875 44.8229 36.8701 44.9556C26.0303 44.9556 15.1904 44.9556 4.35059 44.9556C4.20613 44.8838 4.10359 44.7666 4.04297 44.604C3.95542 33.9328 3.98472 23.2688 4.13086 12.6118C4.38726 12.4454 4.66557 12.4015 4.96582 12.48C5.15626 12.5532 5.28809 12.685 5.36133 12.8755C5.40528 23.1293 5.41993 33.3833 5.40528 43.6372C15.542 43.6372 25.6787 43.6372 35.8154 43.6372C35.8701 42.8082 35.8116 42.0025 35.6397 41.2202C28.1048 39.9009 20.5755 38.5533 13.0518 37.1772C9.88295 36.0882 8.11053 33.8763 7.73438 30.5415C7.69043 21.7818 7.67578 13.022 7.69043 4.26221C6.92871 4.26221 6.167 4.26221 5.40528 4.26221C5.41992 6.02027 5.40528 7.77808 5.36133 9.53564C5.27505 9.89811 5.04067 10.0739 4.65821 10.063C4.40127 10.0371 4.19618 9.91981 4.04297 9.71143C3.98438 7.57276 3.98438 5.43408 4.04297 3.29541C4.08692 3.13428 4.18946 3.03174 4.35059 2.98779C5.46349 2.94386 6.57676 2.92921 7.69043 2.94385C7.6758 2.09373 7.69045 1.24412 7.73438 0.39502C7.82203 0.23479 7.92457 0.088305 8.042 -0.0444336ZM9.09668 1.27393C19.2334 1.27393 29.3701 1.27393 39.5068 1.27393C39.5215 14.1938 39.5068 27.1138 39.4629 40.0337C35.1636 37.3492 30.8423 34.6979 26.499 32.0796C25.8848 31.8892 25.5332 32.1089 25.4443 32.7388C25.4493 32.9683 25.5372 33.1587 25.708 33.3101C29.3262 35.4853 32.9297 37.6825 36.5186 39.9019C30.1638 38.8183 23.8064 37.7049 17.4463 36.562C18.8104 35.579 19.7333 34.2753 20.2148 32.6509C20.4284 31.8814 20.5895 31.105 20.6982 30.3218C21.429 30.7026 22.1614 31.1128 22.8955 31.5522C23.5083 31.6134 23.8159 31.3351 23.8184 30.7173C23.7944 30.5565 23.7211 30.4247 23.5986 30.3218C22.5439 29.6773 21.4893 29.0327 20.4346 28.3882C20.0471 28.2773 19.7101 28.3506 19.4238 28.6079C19.4122 31.0465 18.6065 33.1706 17.0068 34.98C16.3267 35.5837 15.5357 35.9499 14.6338 36.0786C11.4552 35.5221 9.62412 33.6471 9.14063 30.4536C9.09668 20.7271 9.08201 11.0005 9.09668 1.27393Z" fill="#674CEF"/>
<path opacity="0.993" fill-rule="evenodd" clip-rule="evenodd" d="M13.9307 6.63513C20.8741 6.62048 27.8175 6.63513 34.7607 6.67908C35.2295 7.08924 35.2295 7.49939 34.7607 7.90955C27.8174 7.96814 20.874 7.96814 13.9307 7.90955C13.6788 7.78712 13.5616 7.58205 13.5791 7.29431C13.5729 6.99843 13.6901 6.7787 13.9307 6.63513Z" fill="#674CEF"/>
<path opacity="0.933" fill-rule="evenodd" clip-rule="evenodd" d="M13.9307 10.6781C20.8741 10.6634 27.8175 10.6781 34.7608 10.7221C35.2695 11.2364 35.2108 11.6758 34.585 12.0404C27.7588 12.099 20.9327 12.099 14.1065 12.0404C13.6313 11.8664 13.4702 11.5294 13.6231 11.0297C13.7138 10.8955 13.8163 10.7783 13.9307 10.6781Z" fill="#674CEF"/>
<path opacity="0.933" fill-rule="evenodd" clip-rule="evenodd" d="M14.0186 14.7211C20.9034 14.7064 27.7881 14.7211 34.6729 14.765C35.2573 15.2006 35.2573 15.6401 34.6729 16.0834C27.7881 16.142 20.9033 16.142 14.0186 16.0834C13.617 15.8601 13.4852 15.5231 13.6231 15.0726C13.7458 14.9347 13.8777 14.8174 14.0186 14.7211Z" fill="#674CEF"/>
<path opacity="0.933" fill-rule="evenodd" clip-rule="evenodd" d="M14.0185 18.7641C20.8741 18.7494 27.7296 18.7641 34.5849 18.808C35.25 19.2105 35.2794 19.65 34.6728 20.1264C27.7587 20.185 20.8447 20.185 13.9306 20.1264C13.4502 19.6372 13.4796 19.183 14.0185 18.7641Z" fill="#674CEF"/>
</g>
<defs>
<clipPath id="clip0_303_269">
<rect width="45" height="45" fill="white" transform="translate(0 -0.000488281)"/>
</clipPath>
</defs>
</svg>
