<svg width="42" height="42" viewBox="0 0 42 42" fill="none" xmlns="http://www.w3.org/2000/svg">
<g clip-path="url(#clip0_212_7298)">
<path opacity="0.928" fill-rule="evenodd" clip-rule="evenodd" d="M5.37305 -0.0410156C5.45508 -0.0410156 5.53711 -0.0410156 5.61914 -0.0410156C7.25789 1.8988 8.8985 3.8402 10.541 5.7832C9.69511 5.86512 8.84748 5.89246 7.99805 5.86523C8.01172 9.28331 7.99805 12.7013 7.95703 16.1191C7.54862 17.5928 6.57792 18.2627 5.04492 18.1289C3.9375 17.8965 3.26758 17.2266 3.03516 16.1191C2.99414 13.9045 2.98047 11.6896 2.99414 9.47461C3.43164 9.47461 3.86914 9.47461 4.30664 9.47461C4.26775 11.722 4.30877 13.9643 4.42969 16.2012C5.14422 17.0754 5.85516 17.0754 6.5625 16.2012C6.68434 12.3233 6.72536 8.44044 6.68555 4.55273C7.01815 4.57933 7.34628 4.55199 7.66992 4.4707C6.96068 3.61097 6.23606 2.76332 5.49609 1.92773C4.75612 2.76332 4.03151 3.61097 3.32227 4.4707C3.64591 4.55199 3.97404 4.57933 4.30664 4.55273C4.30664 5.81054 4.30664 7.06836 4.30664 8.32617C3.86914 8.32617 3.43164 8.32617 2.99414 8.32617C2.99414 7.50586 2.99414 6.68555 2.99414 5.86523C2.14472 5.89246 1.29707 5.86512 0.451172 5.7832C2.09368 3.8402 3.7343 1.8988 5.37305 -0.0410156Z" fill="white"/>
<path opacity="0.93" fill-rule="evenodd" clip-rule="evenodd" d="M36.2988 -0.0410156C36.3809 -0.0410156 36.4629 -0.0410156 36.5449 -0.0410156C38.1837 1.8988 39.8243 3.8402 41.4668 5.7832C40.6209 5.86512 39.7733 5.89246 38.9238 5.86523C38.9375 9.28331 38.9238 12.7013 38.8828 16.1191C38.3327 17.8641 37.1707 18.4793 35.3965 17.9648C34.5937 17.6041 34.1152 16.9888 33.9609 16.1191C33.9199 12.7013 33.9062 9.28331 33.9199 5.86523C33.0705 5.89246 32.2229 5.86512 31.377 5.7832C33.0195 3.8402 34.6601 1.8988 36.2988 -0.0410156ZM36.3809 1.92773C37.1455 2.74744 37.8838 3.59509 38.5957 4.4707C38.2721 4.55199 37.944 4.57933 37.6113 4.55273C37.625 8.35365 37.6113 12.1544 37.5703 15.9551C37.155 16.8682 36.5124 17.0733 35.6426 16.5703C35.4843 16.3851 35.3612 16.18 35.2734 15.9551C35.2324 12.1544 35.2187 8.35365 35.2324 4.55273C34.8998 4.57933 34.5717 4.55199 34.248 4.4707C34.9609 3.62146 35.6718 2.7738 36.3809 1.92773Z" fill="white"/>
<path opacity="0.94" fill-rule="evenodd" clip-rule="evenodd" d="M37.3652 41.959C36.1074 41.959 34.8496 41.959 33.5918 41.959C33.5918 41.5489 33.5918 41.1387 33.5918 40.7286C34.4121 40.7286 35.2324 40.7286 36.0527 40.7286C36.0664 39.3884 36.0527 38.0486 36.0117 36.709C35.7745 35.7293 35.2413 34.95 34.4121 34.3712C33.9463 34.0561 33.4541 33.7827 32.9355 33.5508C31.1478 32.8414 29.3568 32.1442 27.5625 31.459C26.8457 33.2952 26.1211 35.1272 25.3887 36.9551C24.7072 36.4788 24.0373 35.9866 23.3789 35.4786C23.1856 35.8667 23.0079 36.2633 22.8457 36.668C23.087 37.9928 23.3331 39.319 23.584 40.6465C26.5366 40.7286 29.4897 40.7559 32.4434 40.7286C32.4434 41.1387 32.4434 41.5489 32.4434 41.959C23.1465 41.959 13.8496 41.959 4.55273 41.959C4.53907 40.1268 4.55273 38.2948 4.59375 36.463C4.86222 35.1737 5.53214 34.1484 6.60351 33.3868C7.24733 32.9416 7.93092 32.5588 8.65429 32.2383C11.1152 31.3087 13.5762 30.3789 16.0371 29.4493C16.283 28.9713 16.4061 28.4655 16.4062 27.9317C14.3811 26.4801 13.219 24.5113 12.9199 22.0255C11.175 22.0954 9.98558 21.3298 9.35156 19.7286C9.22556 18.8851 9.19816 18.0375 9.26953 17.1856C9.41751 16.5593 9.78665 16.1218 10.377 15.8731C10.4453 14.5614 10.4863 13.2489 10.5 11.9356C11.0099 7.84483 13.129 4.93272 16.8574 3.19928C21.5125 1.52969 25.5458 2.47305 28.957 6.02936C30.2369 7.55061 31.0299 9.3006 31.3359 11.2794C31.4225 12.809 31.4909 14.3402 31.541 15.8731C32.1313 16.1218 32.5005 16.5593 32.6484 17.1856C32.7198 18.0375 32.6924 18.8851 32.5664 19.7286C32.1912 20.9345 31.3846 21.6592 30.1465 21.9024C29.7608 21.9165 29.378 21.9575 28.998 22.0255C28.699 24.5113 27.5368 26.4801 25.5117 27.9317C25.5119 28.4655 25.6349 28.9713 25.8809 29.4493C28.3546 30.3467 30.8155 31.2764 33.2637 32.2383C34.4241 32.7428 35.4495 33.4401 36.3398 34.3301C36.868 34.9767 37.1962 35.715 37.3242 36.545C37.3652 38.3494 37.3789 40.1541 37.3652 41.959ZM19.8105 3.73248C23.9437 3.46756 27.0472 5.10819 29.1211 8.65436C29.6787 9.73643 30.0069 10.8849 30.1055 12.0997C30.1465 13.3025 30.1602 14.5056 30.1465 15.709C29.7056 15.736 29.2681 15.7086 28.834 15.627C28.5757 14.9998 28.1109 14.6307 27.4395 14.5196C24.8105 14.5172 22.1855 14.4625 19.5645 14.3555C18.5425 13.9118 17.9957 13.1325 17.9238 12.0176C17.4864 12.0176 17.0488 12.0176 16.6113 12.0176C16.4432 13.3465 15.6775 13.9892 14.3145 13.9454C13.4682 14.2312 13.0033 14.819 12.9199 15.709C12.5371 15.709 12.1543 15.709 11.7715 15.709C11.7578 14.4782 11.7715 13.2478 11.8125 12.0176C12.3236 8.30113 14.3059 5.71716 17.7598 4.26569C18.4441 4.04685 19.1277 3.86912 19.8105 3.73248ZM17.1035 14.1505C17.5248 14.5845 17.9897 14.9809 18.498 15.3399C18.8631 15.5254 19.2459 15.6621 19.6465 15.7501C22.1895 15.7774 24.7324 15.8048 27.2754 15.8321C27.3928 15.8702 27.4884 15.9387 27.5625 16.0372C27.6976 18.0261 27.7249 20.0222 27.6445 22.0255C27.2283 24.629 25.8202 26.4747 23.4199 27.5626C19.9723 28.6283 17.2243 27.685 15.1758 24.7325C14.6782 23.896 14.3775 22.9937 14.2734 22.0255C14.2187 19.8653 14.2187 17.7051 14.2734 15.545C14.3692 15.4493 14.4648 15.3536 14.5605 15.2579C15.5839 15.2597 16.4315 14.8905 17.1035 14.1505ZM10.9512 17.0215C11.6074 17.0215 12.2637 17.0215 12.9199 17.0215C12.9199 18.2247 12.9199 19.4278 12.9199 20.6309C11.2923 20.7258 10.4993 19.9602 10.541 18.334C10.5547 18.0332 10.5683 17.7325 10.582 17.4317C10.6661 17.2523 10.7892 17.1156 10.9512 17.0215ZM28.998 17.0215C29.718 16.9854 30.4288 17.0264 31.1309 17.1446C31.2294 17.2187 31.2978 17.3143 31.3359 17.4317C31.4073 18.1205 31.38 18.8041 31.2539 19.4825C30.7821 20.3952 30.0302 20.778 28.998 20.6309C28.998 19.4278 28.998 18.2247 28.998 17.0215ZM17.6777 28.67C19.8379 29.5427 21.9981 29.5427 24.1582 28.67C24.2999 28.9583 24.4093 29.2591 24.4863 29.5723C23.328 30.4118 22.1521 31.2321 20.959 32.0333C19.804 31.2302 18.6418 30.4372 17.4727 29.6544C17.5133 29.3266 17.5817 28.9984 17.6777 28.67ZM16.5293 30.6387C17.6329 31.3726 18.7266 32.1246 19.8105 32.8946C18.9471 33.553 18.0721 34.1956 17.1855 34.8223C16.6042 33.5997 16.0846 32.3419 15.627 31.0489C15.9422 30.9264 16.243 30.7897 16.5293 30.6387ZM25.3066 30.6387C25.6334 30.7747 25.9615 30.9113 26.291 31.0489C25.8334 32.3419 25.3138 33.5997 24.7324 34.8223C23.8459 34.1956 22.9709 33.553 22.1074 32.8946C23.1886 32.1539 24.255 31.402 25.3066 30.6387ZM14.3145 31.459C15.0668 33.2771 15.8051 35.1092 16.5293 36.9551C17.2107 36.4788 17.8807 35.9866 18.5391 35.4786C18.7324 35.8667 18.9101 36.2633 19.0723 36.668C18.8309 37.9928 18.5848 39.319 18.334 40.6465C14.1781 40.7286 10.0218 40.7559 5.86523 40.7286C5.85157 39.3884 5.86524 38.0486 5.90625 36.709C6.14345 35.7293 6.67665 34.95 7.50586 34.3712C7.97161 34.0561 8.46382 33.7827 8.98242 33.5508C10.767 32.8491 12.5444 32.1518 14.3145 31.459ZM20.7949 33.7559C20.9075 33.743 21.017 33.7567 21.123 33.7969C21.4427 34.0866 21.7845 34.3463 22.1484 34.5762C22.0531 35.0154 21.9301 35.4529 21.7793 35.8887C21.2324 35.8887 20.6856 35.8887 20.1387 35.8887C20.0272 35.486 19.8904 35.0894 19.7285 34.6993C20.0817 34.3853 20.4372 34.0709 20.7949 33.7559ZM20.3027 37.2012C20.7437 37.1743 21.1811 37.2016 21.6152 37.2833C21.8489 38.4244 22.0403 39.5728 22.1895 40.7286C21.3691 40.7286 20.5488 40.7286 19.7285 40.7286C19.8934 39.5479 20.0848 38.3721 20.3027 37.2012Z" fill="white"/>
<path opacity="0.879" fill-rule="evenodd" clip-rule="evenodd" d="M22.7637 5.70117C23.2011 5.70117 23.6387 5.70117 24.0762 5.70117C24.0762 6.13867 24.0762 6.57617 24.0762 7.01367C23.6387 7.01367 23.2011 7.01367 22.7637 7.01367C22.7637 6.57617 22.7637 6.13867 22.7637 5.70117Z" fill="white"/>
<path opacity="0.879" fill-rule="evenodd" clip-rule="evenodd" d="M25.2246 6.93164C25.6621 6.93164 26.0996 6.93164 26.5371 6.93164C26.5371 7.36914 26.5371 7.80664 26.5371 8.24414C26.0996 8.24414 25.6621 8.24414 25.2246 8.24414C25.2246 7.80664 25.2246 7.36914 25.2246 6.93164Z" fill="white"/>
<path opacity="0.879" fill-rule="evenodd" clip-rule="evenodd" d="M16.2832 18.1699C16.7207 18.1699 17.1582 18.1699 17.5957 18.1699C17.5957 18.8262 17.5957 19.4824 17.5957 20.1387C17.1582 20.1387 16.7207 20.1387 16.2832 20.1387C16.2832 19.4824 16.2832 18.8262 16.2832 18.1699Z" fill="white"/>
<path opacity="0.879" fill-rule="evenodd" clip-rule="evenodd" d="M24.3223 18.1699C24.7597 18.1699 25.1973 18.1699 25.6348 18.1699C25.6348 18.8262 25.6348 19.4824 25.6348 20.1387C25.1973 20.1387 24.7597 20.1387 24.3223 20.1387C24.3223 19.4824 24.3223 18.8262 24.3223 18.1699Z" fill="white"/>
<path opacity="0.907" fill-rule="evenodd" clip-rule="evenodd" d="M19.2363 23.502C20.3713 24.9194 21.5061 24.9194 22.6406 23.502C23.003 23.7311 23.3722 23.9498 23.748 24.1582C23.0504 25.4095 21.984 25.97 20.5488 25.8398C19.4688 25.6828 18.6758 25.1223 18.1699 24.1582C18.5444 23.958 18.8998 23.7392 19.2363 23.502Z" fill="white"/>
</g>
<defs>
<clipPath id="clip0_212_7298">
<rect width="42" height="42" fill="white"/>
</clipPath>
</defs>
</svg>
