<svg width="256" height="256" viewBox="0 0 256 256" fill="none" xmlns="http://www.w3.org/2000/svg">
<mask id="mask0_212_7387" style="mask-type:alpha" maskUnits="userSpaceOnUse" x="0" y="0" width="256" height="256">
<circle cx="128" cy="128" r="128" fill="#444444"/>
</mask>
<g mask="url(#mask0_212_7387)">
<circle cx="1.81728" cy="3.11" r="3.11" fill="#674CEF" fill-opacity="0.47"/>
<circle cx="1.81728" cy="34.3302" r="3.11" fill="#674CEF" fill-opacity="0.47"/>
<circle cx="1.81728" cy="65.5504" r="3.11" fill="#674CEF" fill-opacity="0.47"/>
<circle cx="1.81728" cy="96.7706" r="3.11" fill="#674CEF" fill-opacity="0.47"/>
<circle cx="1.81728" cy="127.991" r="3.11" fill="#674CEF" fill-opacity="0.47"/>
<circle cx="1.81728" cy="159.211" r="3.11" fill="#674CEF" fill-opacity="0.47"/>
<circle cx="1.81728" cy="190.431" r="3.11" fill="#674CEF" fill-opacity="0.47"/>
<circle cx="1.81728" cy="221.652" r="3.11" fill="#674CEF" fill-opacity="0.47"/>
<circle cx="33.0372" cy="3.11" r="3.11" fill="#674CEF" fill-opacity="0.47"/>
<circle cx="33.0372" cy="34.3302" r="3.11" fill="#674CEF" fill-opacity="0.47"/>
<circle cx="33.0372" cy="65.5504" r="3.11" fill="#674CEF" fill-opacity="0.47"/>
<circle cx="33.0372" cy="96.7706" r="3.11" fill="#674CEF" fill-opacity="0.47"/>
<circle cx="33.0372" cy="127.991" r="3.11" fill="#674CEF" fill-opacity="0.47"/>
<circle cx="33.0372" cy="159.211" r="3.11" fill="#674CEF" fill-opacity="0.47"/>
<circle cx="33.0372" cy="190.431" r="3.11" fill="#674CEF" fill-opacity="0.47"/>
<circle cx="33.0372" cy="221.652" r="3.11" fill="#674CEF" fill-opacity="0.47"/>
<circle cx="64.2572" cy="3.11" r="3.11" fill="#674CEF" fill-opacity="0.47"/>
<circle cx="64.2572" cy="34.3302" r="3.11" fill="#674CEF" fill-opacity="0.47"/>
<circle cx="64.2572" cy="65.5504" r="3.11" fill="#674CEF" fill-opacity="0.47"/>
<circle cx="64.2572" cy="96.7706" r="3.11" fill="#674CEF" fill-opacity="0.47"/>
<circle cx="64.2572" cy="127.991" r="3.11" fill="#674CEF" fill-opacity="0.47"/>
<circle cx="64.2572" cy="159.211" r="3.11" fill="#674CEF" fill-opacity="0.47"/>
<circle cx="64.2572" cy="190.431" r="3.11" fill="#674CEF" fill-opacity="0.47"/>
<circle cx="64.2572" cy="221.652" r="3.11" fill="#674CEF" fill-opacity="0.47"/>
<circle cx="95.4772" cy="3.11" r="3.11" fill="#674CEF" fill-opacity="0.47"/>
<circle cx="95.4772" cy="34.3302" r="3.11" fill="#674CEF" fill-opacity="0.47"/>
<circle cx="95.4772" cy="65.5504" r="3.11" fill="#674CEF" fill-opacity="0.47"/>
<circle cx="95.4772" cy="96.7706" r="3.11" fill="#674CEF" fill-opacity="0.47"/>
<circle cx="95.4772" cy="127.991" r="3.11" fill="#674CEF" fill-opacity="0.47"/>
<circle cx="95.4772" cy="159.211" r="3.11" fill="#674CEF" fill-opacity="0.47"/>
<circle cx="95.4772" cy="190.431" r="3.11" fill="#674CEF" fill-opacity="0.47"/>
<circle cx="95.4772" cy="221.652" r="3.11" fill="#674CEF" fill-opacity="0.47"/>
<circle cx="126.697" cy="3.11" r="3.11" fill="#674CEF" fill-opacity="0.47"/>
<circle cx="126.697" cy="34.3302" r="3.11" fill="#674CEF" fill-opacity="0.47"/>
<circle cx="126.697" cy="65.5504" r="3.11" fill="#674CEF" fill-opacity="0.47"/>
<circle cx="126.697" cy="96.7706" r="3.11" fill="#674CEF" fill-opacity="0.47"/>
<circle cx="126.697" cy="127.991" r="3.11" fill="#674CEF" fill-opacity="0.47"/>
<circle cx="126.697" cy="159.211" r="3.11" fill="#674CEF" fill-opacity="0.47"/>
<circle cx="126.697" cy="190.431" r="3.11" fill="#674CEF" fill-opacity="0.47"/>
<circle cx="126.697" cy="221.652" r="3.11" fill="#674CEF" fill-opacity="0.47"/>
<circle cx="157.917" cy="3.11" r="3.11" fill="#674CEF" fill-opacity="0.47"/>
<circle cx="157.917" cy="34.3302" r="3.11" fill="#674CEF" fill-opacity="0.47"/>
<circle cx="157.917" cy="65.5504" r="3.11" fill="#674CEF" fill-opacity="0.47"/>
<circle cx="157.917" cy="96.7706" r="3.11" fill="#674CEF" fill-opacity="0.47"/>
<circle cx="157.917" cy="127.991" r="3.11" fill="#674CEF" fill-opacity="0.47"/>
<circle cx="157.917" cy="159.211" r="3.11" fill="#674CEF" fill-opacity="0.47"/>
<circle cx="157.917" cy="190.431" r="3.11" fill="#674CEF" fill-opacity="0.47"/>
<circle cx="157.917" cy="221.652" r="3.11" fill="#674CEF" fill-opacity="0.47"/>
<circle cx="189.137" cy="3.11" r="3.11" fill="#674CEF" fill-opacity="0.47"/>
<circle cx="189.137" cy="34.3302" r="3.11" fill="#674CEF" fill-opacity="0.47"/>
<circle cx="189.137" cy="65.5504" r="3.11" fill="#674CEF" fill-opacity="0.47"/>
<circle cx="189.137" cy="96.7706" r="3.11" fill="#674CEF" fill-opacity="0.47"/>
<circle cx="189.137" cy="127.991" r="3.11" fill="#674CEF" fill-opacity="0.47"/>
<circle cx="189.137" cy="159.211" r="3.11" fill="#674CEF" fill-opacity="0.47"/>
<circle cx="189.137" cy="190.431" r="3.11" fill="#674CEF" fill-opacity="0.47"/>
<circle cx="189.137" cy="221.652" r="3.11" fill="#674CEF" fill-opacity="0.47"/>
<circle cx="220.357" cy="3.11" r="3.11" fill="#674CEF" fill-opacity="0.47"/>
<circle cx="220.357" cy="34.3302" r="3.11" fill="#674CEF" fill-opacity="0.47"/>
<circle cx="220.357" cy="65.5504" r="3.11" fill="#674CEF" fill-opacity="0.47"/>
<circle cx="220.357" cy="96.7706" r="3.11" fill="#674CEF" fill-opacity="0.47"/>
<circle cx="220.357" cy="127.991" r="3.11" fill="#674CEF" fill-opacity="0.47"/>
<circle cx="220.357" cy="159.211" r="3.11" fill="#674CEF" fill-opacity="0.47"/>
<circle cx="220.357" cy="190.431" r="3.11" fill="#674CEF" fill-opacity="0.47"/>
<circle cx="220.357" cy="221.652" r="3.11" fill="#674CEF" fill-opacity="0.47"/>
<circle cx="251.577" cy="3.11" r="3.11" fill="#674CEF" fill-opacity="0.47"/>
<circle cx="251.577" cy="34.3302" r="3.11" fill="#674CEF" fill-opacity="0.47"/>
<circle cx="251.577" cy="65.5504" r="3.11" fill="#674CEF" fill-opacity="0.47"/>
<circle cx="251.577" cy="96.7706" r="3.11" fill="#674CEF" fill-opacity="0.47"/>
<circle cx="251.577" cy="127.991" r="3.11" fill="#674CEF" fill-opacity="0.47"/>
<circle cx="251.577" cy="159.211" r="3.11" fill="#674CEF" fill-opacity="0.47"/>
<circle cx="251.577" cy="190.431" r="3.11" fill="#674CEF" fill-opacity="0.47"/>
<circle cx="251.577" cy="221.652" r="3.11" fill="#674CEF" fill-opacity="0.47"/>
</g>
</svg>
