<svg width="45" height="45" viewBox="0 0 45 45" fill="none" xmlns="http://www.w3.org/2000/svg">
<path opacity="0.933" fill-rule="evenodd" clip-rule="evenodd" d="M15.9522 1.09826C17.9153 1.08362 19.8781 1.09826 21.8408 1.14221C23.6437 1.39345 24.8302 2.37489 25.4004 4.08655C28.3091 6.14051 29.2613 8.87975 28.2568 12.3043C29.4087 14.0754 29.2037 15.6868 27.6416 17.1383C27.2019 17.4022 26.7331 17.5926 26.2354 17.7096C25.6621 19.7179 24.4902 21.2706 22.7197 22.3678C22.6324 22.8034 22.6031 23.2428 22.6318 23.6862C24.7657 23.776 26.8165 24.2301 28.7842 25.0485C30.311 25.7842 31.3803 26.9414 31.9922 28.5201C32.4854 26.7229 32.9249 24.9064 33.3105 23.0709C33.9428 21.5742 35.0707 20.8418 36.6943 20.8737C37.3731 16.7129 38.0617 12.5527 38.7598 8.39319C39.1264 7.84572 39.5365 7.81642 39.9902 8.30529C40.0489 8.56897 40.0489 8.83264 39.9902 9.09631C39.2973 13.107 38.6528 17.1207 38.0566 21.1373C39.2898 21.786 39.949 22.8114 40.0342 24.2135C39.2768 28.9334 38.5005 33.6502 37.7051 38.3639C37.5027 39.7365 36.9021 40.8937 35.9033 41.8356C34.7405 42.5349 33.5393 42.5935 32.2998 42.0113C30.9025 41.3339 29.6866 40.411 28.6523 39.2428C28.6231 40.649 28.5937 42.0553 28.5645 43.4615C28.5205 43.6227 28.4179 43.7252 28.2568 43.7692C21.5185 43.8278 14.7803 43.8278 8.04199 43.7692C6.33835 43.296 5.29831 42.1974 4.92188 40.4733C4.86328 36.8405 4.86328 33.2076 4.92188 29.5748C5.20937 28.194 5.92713 27.0953 7.0752 26.2789C8.29025 25.4518 9.60864 24.8366 11.0303 24.4332C12.3479 24.0643 13.6809 23.7859 15.0293 23.5983C15.1021 23.185 15.0875 22.7748 14.9854 22.3678C13.2149 21.2706 12.043 19.7179 11.4697 17.7096C9.05502 16.9525 8.24937 15.3705 9.05274 12.9635C9.25884 12.6982 9.39068 12.4053 9.44824 12.0846C9.34568 11.2057 9.2432 10.3268 9.14063 9.44787C8.92257 5.73967 10.5193 3.1469 13.9307 1.66955C14.5979 1.41237 15.2718 1.22194 15.9522 1.09826ZM17.0068 2.32873C18.562 2.30019 20.1147 2.34413 21.665 2.46057C23.0941 2.65911 23.9584 3.46478 24.2578 4.87756C25.678 5.84494 26.6741 7.134 27.2461 8.74475C27.3185 9.03347 27.3625 9.32641 27.3779 9.62365C27.2994 10.241 27.2116 10.8562 27.1143 11.4694C26.8436 11.4426 26.5946 11.3547 26.3672 11.2057C26.0955 9.37958 25.0555 8.60325 23.2471 8.87658C22.8254 9.08743 22.3859 9.24862 21.9287 9.35998C21.2041 9.2503 20.5009 9.05984 19.8193 8.78869C18.6906 8.31474 17.548 7.87529 16.3916 7.47033C13.0669 6.54475 11.353 7.81916 11.25 11.2936C11.0931 11.3586 10.932 11.4172 10.7666 11.4694C10.4827 10.1652 10.3802 8.84688 10.459 7.51428C11.1349 4.99263 12.7316 3.36665 15.249 2.63635C15.8409 2.49436 16.4268 2.39182 17.0068 2.32873ZM14.0186 8.48108C14.646 8.45279 15.2612 8.52603 15.8643 8.7008C17.568 9.38591 19.2966 10.0011 21.0498 10.5465C21.6082 10.6995 22.1649 10.6995 22.7197 10.5465C23.121 10.3604 23.531 10.1993 23.9502 10.0631C24.6025 10.25 24.9688 10.6894 25.0488 11.3815C25.1319 13.3188 25.1025 15.2523 24.9609 17.1822C24.2256 19.939 22.4532 21.565 19.6436 22.0602C16.6403 22.2362 14.4577 20.9912 13.0957 18.3248C12.8956 17.8122 12.7491 17.2849 12.6563 16.7428C12.5976 14.7506 12.5976 12.7584 12.6563 10.7662C12.6873 10.0316 12.9363 9.38696 13.4033 8.83264C13.6024 8.68961 13.8075 8.57241 14.0186 8.48108ZM11.2061 12.6998C11.3225 13.8576 11.3225 15.0295 11.2061 16.2155C10.0333 15.5529 9.75498 14.6155 10.3711 13.403C10.6147 13.1144 10.8931 12.88 11.2061 12.6998ZM26.4111 12.6998C27.6027 13.27 27.9396 14.1781 27.4219 15.4244C27.2093 15.7981 26.9017 16.0618 26.499 16.2155C26.4112 15.045 26.3819 13.8732 26.4111 12.6998ZM14.458 13.4908C15.3369 13.4908 16.2158 13.4908 17.0947 13.4908C17.1214 14.2573 17.0922 15.0191 17.0068 15.776C16.9607 15.8368 16.9021 15.8808 16.8311 15.9078C16.077 15.9796 15.33 15.9649 14.5898 15.8639C14.463 15.0824 14.4191 14.2913 14.458 13.4908ZM20.6104 13.4908C21.4893 13.4908 22.3682 13.4908 23.2471 13.4908C23.286 14.2913 23.2421 15.0824 23.1152 15.8639C22.3751 15.9649 21.628 15.9796 20.874 15.9078C20.803 15.8808 20.7444 15.8368 20.6982 15.776C20.6129 15.0191 20.5836 14.2573 20.6104 13.4908ZM36.4307 22.1041C37.7265 22.228 38.4883 22.9312 38.7158 24.2135C38.5992 24.8255 38.5113 25.4407 38.4522 26.0592C37.102 25.7686 35.7543 25.461 34.4092 25.1364C34.3276 25.1022 34.269 25.0436 34.2334 24.9606C34.3492 24.3068 34.5396 23.677 34.8047 23.0709C35.2251 22.5316 35.7671 22.2093 36.4307 22.1041ZM16.3916 23.0709C18.0316 23.5396 19.6723 23.5396 21.3135 23.0709C21.328 23.3654 21.3133 23.6583 21.2695 23.9498C20.4996 24.6472 19.694 25.2918 18.8525 25.8834C18.0111 25.2918 17.2055 24.6472 16.4355 23.9498C16.3918 23.6583 16.3771 23.3654 16.3916 23.0709ZM15.0732 24.9166C15.3425 24.8853 15.5769 24.9585 15.7764 25.1364C16.4338 25.6618 17.0783 26.2038 17.71 26.7623C17.1379 27.2517 16.5226 27.6472 15.8643 27.9489C15.4924 26.9947 15.1116 26.0425 14.7217 25.0924C14.849 25.0333 14.9662 24.9747 15.0732 24.9166ZM22.1924 24.9166C22.4656 24.9302 22.7293 24.9889 22.9834 25.0924C22.6395 26.0973 22.2293 27.0641 21.7529 27.9928C21.1822 27.5755 20.5962 27.18 19.9951 26.8063C20.7338 26.1749 21.4662 25.545 22.1924 24.9166ZM24.3897 25.1803C26.195 25.357 27.8356 25.9576 29.3115 26.9821C30.0639 27.6767 30.6058 28.5116 30.9375 29.4869C31.2713 30.6349 31.6229 31.7775 31.9922 32.9147C32.3987 33.2791 32.7796 33.2498 33.1348 32.8268C33.1631 32.2362 33.0606 31.6649 32.8272 31.1129C33.2137 29.5522 33.5653 27.9848 33.8818 26.4108C35.2607 26.7041 36.6376 27.0118 38.0127 27.3336C38.0943 27.3677 38.1529 27.4263 38.1885 27.5094C37.5824 31.1898 36.9526 34.8665 36.2988 38.5397C36.1316 39.4379 35.7068 40.185 35.0244 40.7809C34.2985 41.1706 33.566 41.1706 32.8272 40.7809C31.1941 39.8805 29.8026 38.694 28.6523 37.2213C28.6231 36.0495 28.5937 34.8775 28.5645 33.7057C28.1543 33.1197 27.7442 33.1197 27.334 33.7057C27.29 36.6645 27.2754 39.6235 27.29 42.5826C26.3819 42.5826 25.4736 42.5826 24.5654 42.5826C24.5801 39.6235 24.5654 36.6645 24.5215 33.7057C24.4806 33.5799 24.4073 33.4774 24.3018 33.3981C22.0658 33.2967 19.8246 33.2528 17.5781 33.2662C15.3316 33.2528 13.0904 33.2967 10.8545 33.3981C10.7489 33.4774 10.6756 33.5799 10.6348 33.7057C10.5493 35.2957 10.5786 36.8777 10.7227 38.4518C10.7959 38.525 10.8692 38.5983 10.9424 38.6715C12.319 38.7155 13.696 38.7301 15.0732 38.7155C15.0732 40.0045 15.0732 41.2935 15.0732 42.5826C12.8145 42.6207 10.5586 42.5768 8.30567 42.4508C7.21123 42.1222 6.52276 41.4045 6.24024 40.2975C6.18164 36.7819 6.18164 33.2662 6.24024 29.7506C6.47224 28.844 6.95564 28.0969 7.69043 27.5094C9.34515 26.3518 11.1762 25.6047 13.1836 25.2682C13.3001 25.2906 13.388 25.3492 13.4473 25.444C13.9682 26.8613 14.5395 28.2529 15.1611 29.6188C15.4981 29.7978 15.8204 29.7685 16.1279 29.5309C17.0361 28.901 17.9444 28.2711 18.8525 27.6412C19.9045 28.4232 21.0031 29.1263 22.1484 29.7506C22.5178 29.7037 22.7522 29.4985 22.8516 29.1354C23.3656 27.8147 23.8784 26.4964 24.3897 25.1803ZM11.9092 34.5846C15.6885 34.5846 19.4678 34.5846 23.2471 34.5846C23.2471 37.2506 23.2471 39.9167 23.2471 42.5826C22.2798 42.5973 21.313 42.5826 20.3467 42.5387C21.2 41.1742 21.1561 39.8412 20.2148 38.5397C19.6706 37.9087 18.9821 37.5425 18.1494 37.441C16.0696 37.3971 13.9895 37.3824 11.9092 37.3971C11.9092 36.4596 11.9092 35.5221 11.9092 34.5846ZM16.3916 38.7155C17.1401 38.6614 17.8725 38.7346 18.5889 38.9352C19.6788 39.6857 19.8985 40.6378 19.248 41.7916C18.8461 42.2635 18.3335 42.5126 17.71 42.5387C17.2715 42.5826 16.832 42.5972 16.3916 42.5826C16.3916 41.2935 16.3916 40.0045 16.3916 38.7155Z" fill="#674CEF"/>
<path opacity="0.934" fill-rule="evenodd" clip-rule="evenodd" d="M14.0185 12.1725C15.2847 12.133 16.5444 12.1769 17.7978 12.3043C18.2528 12.6429 18.4578 13.0971 18.4131 13.6666C18.706 13.6666 18.999 13.6666 19.292 13.6666C19.2391 12.9658 19.532 12.4824 20.1709 12.2164C21.3721 12.1578 22.5732 12.1578 23.7744 12.2164C24.0765 12.3135 24.2962 12.504 24.4336 12.7877C24.5307 13.3522 24.5746 13.9235 24.5654 14.5016C24.7757 15.5112 24.512 16.3608 23.7744 17.0504C23.6349 17.1261 23.4884 17.1848 23.335 17.2262C22.3033 17.3083 21.2779 17.2791 20.2588 17.1383C19.4738 16.6372 19.1516 15.9194 19.292 14.985C18.999 14.985 18.706 14.985 18.4131 14.985C18.4393 16.7745 17.5604 17.5362 15.7764 17.2701C13.7529 17.4583 12.8739 16.5354 13.1396 14.5016C13.1304 13.9235 13.1744 13.3522 13.2715 12.7877C13.4663 12.5085 13.7153 12.3033 14.0185 12.1725ZM14.458 13.4908C14.4191 14.2913 14.463 15.0823 14.5898 15.8639C15.33 15.9648 16.077 15.9795 16.831 15.9078C16.9021 15.8807 16.9607 15.8368 17.0068 15.776C17.0922 15.0191 17.1214 14.2573 17.0947 13.4908C16.2158 13.4908 15.3369 13.4908 14.458 13.4908ZM20.6103 13.4908C20.5836 14.2573 20.6129 15.0191 20.6982 15.776C20.7444 15.8368 20.803 15.8807 20.874 15.9078C21.628 15.9795 22.3751 15.9648 23.1152 15.8639C23.2421 15.0823 23.286 14.2913 23.2471 13.4908C22.3682 13.4908 21.4892 13.4908 20.6103 13.4908Z" fill="#674CEF"/>
<path opacity="0.89" fill-rule="evenodd" clip-rule="evenodd" d="M15.4248 13.9303C15.7854 13.866 16.093 13.9539 16.3476 14.1939C16.4063 14.5455 16.4063 14.8971 16.3476 15.2486C15.9668 15.6002 15.5859 15.6002 15.2051 15.2486C14.9941 14.7562 15.0674 14.3167 15.4248 13.9303Z" fill="#674CEF"/>
<path opacity="0.882" fill-rule="evenodd" clip-rule="evenodd" d="M21.5772 13.9302C22.421 13.8517 22.758 14.2325 22.5879 15.0728C22.3739 15.488 22.0369 15.6199 21.5772 15.4683C21.504 15.3951 21.4307 15.3218 21.3574 15.2486C21.2988 14.897 21.2988 14.5455 21.3574 14.1939C21.4493 14.1172 21.5225 14.0293 21.5772 13.9302Z" fill="#674CEF"/>
<path opacity="0.906" fill-rule="evenodd" clip-rule="evenodd" d="M16.4795 18.3248C16.7035 18.3149 16.9086 18.3735 17.0947 18.5006C18.2666 19.9068 19.4385 19.9068 20.6103 18.5006C21.4377 18.2055 21.7746 18.4986 21.6211 19.3795C20.7036 20.6133 19.4878 21.0673 17.9736 20.7418C17.1956 20.4921 16.5658 20.038 16.084 19.3795C15.9353 18.9076 16.0672 18.556 16.4795 18.3248Z" fill="#674CEF"/>
</svg>
