<svg width="42" height="42" viewBox="0 0 42 42" fill="none" xmlns="http://www.w3.org/2000/svg">
<g clip-path="url(#clip0_212_7263)">
<path opacity="0.935" fill-rule="evenodd" clip-rule="evenodd" d="M18.9902 -0.0410156C19.209 -0.0410156 19.4277 -0.0410156 19.6465 -0.0410156C21.0446 1.68518 22.4255 3.43519 23.7891 5.20898C24.2524 6.18636 24.143 7.08871 23.4609 7.91602C22.2296 9.27035 20.9854 10.6102 19.7285 11.9355C18.9838 12.273 18.2456 12.2593 17.5137 11.8945C17.146 11.5954 16.7906 11.2809 16.4473 10.9512C15.8864 11.2339 15.2985 11.4252 14.6836 11.5254C14.8724 15.1045 15.1049 18.6866 15.3809 22.2715C19.0907 20.2182 22.741 20.3276 26.332 22.5996C30.1513 18.2704 34.622 17.4637 39.7442 20.1797C40.1684 20.4328 40.5786 20.7062 40.9746 21C41.3566 21.5252 41.2746 21.9628 40.7285 22.3125C40.5918 22.3672 40.4551 22.3672 40.3184 22.3125C39.2273 21.5618 38.0514 20.9602 36.791 20.5078C34.0229 19.6342 31.5072 20.0991 29.2442 21.9023C28.6152 22.4218 28.041 22.9961 27.5215 23.625C28.3298 24.4892 28.9177 25.4872 29.2852 26.6191C29.3669 27.0071 29.3259 27.3762 29.1621 27.7266C28.7791 28.0051 28.41 27.9914 28.0547 27.6855C27.3078 25.0793 25.6262 23.3976 23.0098 22.6406C20.1914 21.8535 17.6348 22.3594 15.3399 24.1582C15.1399 24.8316 14.8938 25.4878 14.6016 26.127C14.4037 26.4892 14.144 26.8036 13.8223 27.0703C12.8065 27.4189 12.41 27.0771 12.6328 26.0449C12.9653 25.8491 13.2114 25.5757 13.3711 25.2246C13.658 24.5967 13.8357 23.9405 13.9043 23.2559C13.6831 19.5363 13.4507 15.8176 13.207 12.0996C12.961 11.7442 12.7149 11.3886 12.4688 11.0332C12.3654 10.5973 12.5158 10.2829 12.9199 10.0898C13.7223 10.088 14.5153 10.0059 15.2988 9.84375C15.5919 9.71504 15.838 9.52366 16.0371 9.26953C16.3105 9.10547 16.584 9.10547 16.8574 9.26953C17.3471 9.67698 17.8119 10.1145 18.252 10.582C18.4595 10.6987 18.6783 10.726 18.9082 10.6641C20.1554 9.33499 21.3722 7.9815 22.5586 6.60352C22.6356 6.32621 22.5808 6.08012 22.3945 5.86523C21.3002 4.42964 20.1928 3.00777 19.0723 1.59961C15.4879 3.20723 11.9196 4.84786 8.3672 6.52148C6.1373 14.1285 4.08651 21.7848 2.21486 29.4902C2.1466 30.2573 2.16027 31.0229 2.25587 31.7871C3.01094 32.0616 3.74922 32.3761 4.47072 32.7305C6.51312 34.335 8.64594 35.8116 10.8692 37.1602C13.7521 38.8072 16.8555 39.5865 20.1797 39.498C23.1327 39.4512 26.0449 39.0821 28.916 38.3906C29.1621 38.3359 29.4082 38.3359 29.6543 38.3906C33.1524 40.1074 36.8438 40.791 40.7285 40.4414C41.1577 40.6574 41.3081 40.9991 41.1797 41.4668C40.9474 41.801 40.633 41.9651 40.2363 41.959C39.0332 41.959 37.8301 41.959 36.627 41.959C34.0331 41.6917 31.5585 40.9808 29.2031 39.8262C25.3924 40.799 21.5233 41.1408 17.5957 40.8516C14.7112 40.5577 12.0315 39.6554 9.55665 38.1445C7.54705 36.873 5.60565 35.5058 3.73243 34.043C2.96681 33.7148 2.20118 33.3867 1.43556 33.0586C1.14527 32.9022 0.94019 32.6698 0.820325 32.3613C0.579753 30.6989 0.689129 29.0583 1.14845 27.4395C2.98396 20.1831 4.95271 12.9644 7.0547 5.7832C7.33576 5.38895 7.7049 5.10184 8.16212 4.92188C11.7887 3.28602 15.3981 1.63172 18.9902 -0.0410156Z" fill="white"/>
<path opacity="0.931" fill-rule="evenodd" clip-rule="evenodd" d="M30.3105 2.74813C31.703 2.55596 32.8788 2.96612 33.8378 3.9786C35.0214 2.80088 36.416 2.45908 38.0214 2.95321C39.8457 3.82641 40.5704 5.26196 40.1952 7.25985C40.0146 7.92235 39.6865 8.49655 39.2109 8.98251C37.5816 10.6391 35.9273 12.2661 34.248 13.8634C33.9308 14.0373 33.63 14.0099 33.3456 13.7813C31.664 12.0997 29.9824 10.4181 28.3007 8.73641C27.2505 7.28802 27.1684 5.78411 28.0546 4.22469C28.6457 3.47213 29.3976 2.97994 30.3105 2.74813ZM30.4745 4.22469C31.0103 4.18273 31.5298 4.25109 32.0331 4.42977C32.4954 4.80986 32.9329 5.22002 33.3456 5.66024C33.6459 5.83974 33.9466 5.86708 34.248 5.74227C34.7226 5.18511 35.2694 4.72026 35.8886 4.34774C37.5805 3.97695 38.5649 4.64688 38.8417 6.35751C38.7946 6.9165 38.5895 7.40869 38.2265 7.83407C36.7772 9.28331 35.3281 10.7325 33.8788 12.1817C32.375 10.6778 30.871 9.17388 29.3671 7.67001C28.5465 6.12635 28.9156 4.97791 30.4745 4.22469Z" fill="white"/>
<path opacity="0.931" fill-rule="evenodd" clip-rule="evenodd" d="M9.47465 30.6386C9.73297 30.6149 9.97906 30.6559 10.2129 30.7616C13.0049 34.575 16.7783 36.2703 21.5332 35.8476C22.3773 35.7021 23.225 35.6201 24.0762 35.6015C24.4829 35.8837 24.5787 36.2528 24.3633 36.7089C24.2157 36.858 24.038 36.9537 23.8301 36.996C19.7165 37.9329 15.8884 37.2766 12.3457 35.0273C11.0708 34.1079 9.99071 33.0004 9.10551 31.705C8.97254 31.2475 9.09558 30.892 9.47465 30.6386Z" fill="white"/>
<path opacity="0.924" fill-rule="evenodd" clip-rule="evenodd" d="M36.2987 31.2949C36.4638 31.3546 36.6279 31.4231 36.7909 31.5C36.9361 31.8518 37.1549 32.1526 37.4472 32.4023C37.7753 32.5664 38.1034 32.7305 38.4316 32.8945C39.2778 33.1402 40.1254 33.3726 40.9745 33.5918C41.3664 34.1187 41.2844 34.5425 40.7284 34.8633C39.3018 34.7981 37.9619 34.4152 36.7089 33.7148C36.1873 33.385 35.8181 32.9338 35.6015 32.3613C35.4669 31.7538 35.6993 31.3984 36.2987 31.2949Z" fill="white"/>
</g>
<defs>
<clipPath id="clip0_212_7263">
<rect width="42" height="42" fill="white"/>
</clipPath>
</defs>
</svg>
