<svg width="2165" height="2165" viewBox="0 0 2165 2165" fill="none" xmlns="http://www.w3.org/2000/svg">
<mask id="mask0_4_177" style="mask-type:alpha" maskUnits="userSpaceOnUse" x="0" y="0" width="2165" height="2165">
<circle cx="1082.5" cy="1082.5" r="1075" fill="#C4C4C4" stroke="#BABABA" stroke-width="15"/>
</mask>
<g mask="url(#mask0_4_177)">
<path d="M-289.721 523.333C-289.721 523.333 158.732 440.261 274.439 149.512C385.097 -129.204 840.929 -204.121 840.929 -204.121" stroke="#BABABA" stroke-width="15" stroke-miterlimit="10"/>
<path d="M-289.721 663.076C-289.721 663.076 260.461 567.197 402.181 216.279C537.299 -118.723 1096.02 -204.121 1096.02 -204.121" stroke="#BABABA" stroke-width="15" stroke-miterlimit="10"/>
<path d="M-289.721 803.211C-289.721 803.211 361.8 694.132 529.534 283.824C689.502 -108.628 1351.12 -204.121 1351.12 -204.121" stroke="#BABABA" stroke-width="15" stroke-miterlimit="10"/>
<path d="M-289.721 942.957C-289.721 942.957 463.528 821.069 657.275 350.591C841.705 -98.1473 1606.21 -204.121 1606.21 -204.121" stroke="#BABABA" stroke-width="15" stroke-miterlimit="10"/>
<path d="M-289.721 1082.7C-289.721 1082.7 565.255 948.005 785.017 417.746C993.907 -87.6661 1860.92 -204.121 1860.92 -204.121" stroke="#BABABA" stroke-width="15" stroke-miterlimit="10"/>
<path d="M-289.721 1222.84C-289.721 1222.84 666.594 1075.33 912.371 484.9C1146.5 -77.5747 2116.01 -204.121 2116.01 -204.121" stroke="#BABABA" stroke-width="15" stroke-miterlimit="10"/>
<path d="M-289.721 1362.58C-289.721 1362.58 768.321 1201.87 1040.11 552.058C1298.7 -67.0936 2371.11 -204.121 2371.11 -204.121" stroke="#BABABA" stroke-width="15" stroke-miterlimit="10"/>
<path d="M-289.721 1502.33C-289.721 1502.33 870.05 1328.81 1167.46 618.826C1450.9 -56.6125 2626.21 -204.121 2626.21 -204.121" stroke="#BABABA" stroke-width="15" stroke-miterlimit="10"/>
<path d="M-289.721 1642.46C-289.721 1642.46 971.387 1456.14 1295.21 686.367C1603.11 -46.5209 2880.91 -204.121 2880.91 -204.121" stroke="#BABABA" stroke-width="15" stroke-miterlimit="10"/>
<path d="M-289.721 1782.2C-289.721 1782.2 1073.12 1583.07 1422.56 753.525C1755.31 -36.0398 3136.01 -204.121 3136.01 -204.121" stroke="#BABABA" stroke-width="15" stroke-miterlimit="10"/>
<path d="M-289.721 1922.33C-289.721 1922.33 1174.84 1710 1550.3 820.679C1907.51 -25.5589 3391.1 -204.121 3391.1 -204.121" stroke="#BABABA" stroke-width="15" stroke-miterlimit="10"/>
<path d="M-289.721 2062.09C-289.721 2062.09 1276.18 1836.94 1677.66 887.836C2059.72 -15.4645 3646.19 -204.121 3646.19 -204.121" stroke="#BABABA" stroke-width="15" stroke-miterlimit="10"/>
<path d="M-289.721 2201.82C-289.721 2201.82 1377.91 1963.88 1805.4 954.601C2211.92 -4.98344 3901.28 -204.121 3901.28 -204.121" stroke="#BABABA" stroke-width="15" stroke-miterlimit="10"/>
<path d="M-289.721 2341.95C-289.721 2341.95 1479.64 2090.81 1933.14 1022.15C2364.12 5.49771 4156 -204.121 4156 -204.121" stroke="#BABABA" stroke-width="15" stroke-miterlimit="10"/>
<path d="M-289.721 2481.71C-289.721 2481.71 1580.98 2217.75 2060.49 1088.91C2516.33 15.5892 4411.09 -204.121 4411.09 -204.121" stroke="#BABABA" stroke-width="15" stroke-miterlimit="10"/>
<path d="M-289.721 2621.47C-289.721 2621.47 1682.7 2344.69 2188.23 1156.07C2668.53 26.0704 4666.19 -204.121 4666.19 -204.121" stroke="#BABABA" stroke-width="15" stroke-miterlimit="10"/>
<path d="M-289.721 2761.6C-289.721 2761.6 1784.43 2472 2315.59 1223.23C2820.73 36.5514 4921.28 -204.121 4921.28 -204.121" stroke="#BABABA" stroke-width="15" stroke-miterlimit="10"/>
<path d="M-289.721 2901.33C-289.721 2901.33 1885.77 2598.56 2443.33 1290.38C2972.93 46.6428 5176 -204.121 5176 -204.121" stroke="#BABABA" stroke-width="15" stroke-miterlimit="10"/>
</g>
</svg>
