<?xml version="1.0" encoding="UTF-8"?>
<!DOCTYPE svg PUBLIC "-//W3C//DTD SVG 1.1//EN" "http://www.w3.org/Graphics/SVG/1.1/DTD/svg11.dtd">
<svg xmlns="http://www.w3.org/2000/svg" version="1.1" width="512px" height="512px" style="shape-rendering:geometricPrecision; text-rendering:geometricPrecision; image-rendering:optimizeQuality; fill-rule:evenodd; clip-rule:evenodd" xmlns:xlink="http://www.w3.org/1999/xlink">
<g><path style="opacity:0.931" fill="#bababa" d="M 511.5,203.5 C 511.5,206.833 511.5,210.167 511.5,213.5C 509.628,216.529 506.961,218.695 503.5,220C 491.127,224.735 478.794,229.569 466.5,234.5C 465.167,245.833 465.167,257.167 466.5,268.5C 472.891,269.279 477.391,272.612 480,278.5C 481.475,311.941 484.308,345.274 488.5,378.5C 488.328,383.683 485.994,387.516 481.5,390C 473.559,391.099 465.559,391.599 457.5,391.5C 449.441,391.599 441.441,391.099 433.5,390C 429.015,387.538 426.681,383.704 426.5,378.5C 430.788,345.617 433.622,312.617 435,279.5C 437.012,272.896 441.512,269.229 448.5,268.5C 449.833,259.5 449.833,250.5 448.5,241.5C 384.314,267.228 319.98,292.562 255.5,317.5C 172.731,285.283 90.0647,252.783 7.5,220C 4.03864,218.695 1.37197,216.529 -0.5,213.5C -0.5,210.167 -0.5,206.833 -0.5,203.5C 0.977392,201.193 2.97739,199.36 5.5,198C 84.5794,166.863 163.579,135.529 242.5,104C 246.699,102.228 251.032,101.061 255.5,100.5C 261.686,101.617 267.686,103.45 273.5,106C 350.833,136.667 428.167,167.333 505.5,198C 508.023,199.36 510.023,201.193 511.5,203.5 Z M 254.5,116.5 C 332.045,146.605 409.379,177.272 486.5,208.5C 476.406,212.962 466.24,217.296 456,221.5C 387.594,213.909 319.094,207.076 250.5,201C 245.776,203.435 244.276,207.269 246,212.5C 247.214,214.049 248.714,215.215 250.5,216C 308.142,222.198 365.809,228.198 423.5,234C 367.534,256.266 311.534,278.433 255.5,300.5C 178.313,270.217 101.313,239.551 24.5,208.5C 101.247,177.785 177.913,147.118 254.5,116.5 Z M 450.5,284.5 C 455.167,284.5 459.833,284.5 464.5,284.5C 464.5,288.5 464.5,292.5 464.5,296.5C 459.833,296.5 455.167,296.5 450.5,296.5C 450.5,292.5 450.5,288.5 450.5,284.5 Z M 449.5,312.5 C 454.833,312.5 460.167,312.5 465.5,312.5C 467.83,333.468 469.83,354.468 471.5,375.5C 462.167,375.5 452.833,375.5 443.5,375.5C 445.353,354.486 447.353,333.486 449.5,312.5 Z"/></g>
<g><path style="opacity:0.926" fill="#bababa" d="M 396.5,281.5 C 403.384,281.216 406.884,284.549 407,291.5C 410.059,309.519 413.225,327.519 416.5,345.5C 415.851,353.991 411.517,359.491 403.5,362C 353.609,371.408 305.942,387.408 260.5,410C 256.074,410.791 251.741,410.457 247.5,409C 202.183,386.085 154.516,370.085 104.5,361C 99.2931,358.435 96.1265,354.268 95,348.5C 97.5678,328.092 100.901,307.759 105,287.5C 108.892,281.741 113.559,281.074 119,285.5C 119.923,287.034 120.423,288.701 120.5,290.5C 117.488,308.907 114.155,327.24 110.5,345.5C 161.066,355.286 209.399,371.619 255.5,394.5C 301.601,371.619 349.934,355.286 400.5,345.5C 396.791,327.082 393.458,308.582 390.5,290C 390.451,285.572 392.451,282.738 396.5,281.5 Z"/></g>
</svg>
