<svg width="36" height="36" viewBox="0 0 36 36" fill="none" xmlns="http://www.w3.org/2000/svg">
<g clip-path="url(#clip0_212_7284)">
<path opacity="0.943" fill-rule="evenodd" clip-rule="evenodd" d="M19.8126 0.746582C20.4839 0.746582 21.1552 0.746582 21.8266 0.746582C25.8214 1.60544 27.9697 4.07823 28.2715 8.16494C28.1067 11.3607 26.5849 13.6433 23.7064 15.0127C20.365 16.1774 17.4894 15.4725 15.0796 12.8979C13.0519 10.1423 12.8505 7.25548 14.4754 4.23758C15.7402 2.29025 17.5193 1.12659 19.8126 0.746582ZM19.9468 2.15641C22.5757 1.93247 24.6009 2.91711 26.0225 5.11032C27.4298 8.00946 26.971 10.5717 24.6462 12.7972C22.2312 14.549 19.7696 14.6161 17.2614 12.9986C14.943 11.0539 14.2828 8.64818 15.281 5.78167C16.2224 3.77666 17.7777 2.56824 19.9468 2.15641Z" fill="white"/>
<path opacity="0.936" fill-rule="evenodd" clip-rule="evenodd" d="M20.3497 3.4318C20.7539 3.34588 21.0783 3.45777 21.3232 3.76747C21.4049 4.14349 21.4385 4.52392 21.4239 4.90876C21.8296 5.03357 22.1765 5.25735 22.4645 5.5801C22.7013 6.18067 22.5111 6.56111 21.8938 6.72139C21.7299 6.6854 21.5733 6.62945 21.4239 6.55355C20.9845 6.08503 20.5481 6.07384 20.1148 6.51999C20.0037 6.88498 20.1044 7.1647 20.4169 7.35917C21.8112 7.41702 22.5944 8.13309 22.7666 9.50747C22.6878 10.393 22.2514 11.0308 21.4575 11.4208C21.4565 11.8367 21.3894 12.2395 21.256 12.6292C20.8756 12.9873 20.4952 12.9873 20.1148 12.6292C19.9814 12.2395 19.9143 11.8367 19.9134 11.4208C19.3831 11.1809 18.9579 10.8229 18.6378 10.3467C18.5483 9.60831 18.8728 9.3062 19.6113 9.44034C19.8326 9.59441 20.034 9.77346 20.2155 9.97741C20.5691 10.2218 20.8937 10.1883 21.1889 9.87671C21.3978 9.44886 21.2971 9.12433 20.8868 8.90326C19.1243 8.72079 18.4193 7.76976 18.7721 6.05004C18.9713 5.50392 19.3406 5.1235 19.8798 4.90876C19.9321 4.52761 19.988 4.14719 20.0476 3.76747C20.1393 3.64249 20.24 3.5306 20.3497 3.4318Z" fill="white"/>
<path opacity="0.945" fill-rule="evenodd" clip-rule="evenodd" d="M35.1194 16.7915C35.1194 17.4181 35.1194 18.0447 35.1194 18.6713C34.9281 19.0538 34.6931 19.4119 34.4145 19.7454C32.4424 22.0531 30.4955 24.3805 28.5738 26.7274C27.5662 27.6843 26.3689 28.2549 24.9821 28.4393C21.6702 28.4617 18.3582 28.4841 15.0462 28.5065C14.735 28.5655 14.4441 28.6773 14.1735 28.8422C13.8804 29.1578 13.5671 29.4486 13.2336 29.7149C13.4359 30.3609 13.3576 30.9762 12.9986 31.5611C11.786 32.7849 10.5665 33.9933 9.3398 35.1864C9.11604 35.1864 8.89221 35.1864 8.66845 35.1864C6.10093 32.5852 3.51626 29.9894 0.914418 27.3988C0.873587 27.2936 0.817642 27.2041 0.746582 27.1302C0.746582 26.9736 0.746582 26.8169 0.746582 26.6603C1.93917 25.3852 3.16996 24.1432 4.43898 22.9343C4.92077 22.6853 5.43547 22.5622 5.98307 22.5651C7.69541 19.7556 10.213 18.3457 13.5357 18.3356C14.6863 18.3278 15.794 18.5404 16.8589 18.9734C19.5219 18.9957 22.1848 19.0182 24.8479 19.0405C25.5042 19.1672 26.0637 19.4693 26.5262 19.9468C27.9688 18.4931 29.401 17.0273 30.8228 15.5495C32.1033 14.7346 33.3229 14.8129 34.4817 15.7845C34.7402 16.0973 34.9528 16.433 35.1194 16.7915ZM32.2998 16.3887C33.539 16.4965 33.9977 17.1455 33.6761 18.3356C31.5446 20.9596 29.3627 23.5443 27.1304 26.0896C26.4676 26.572 25.7291 26.8853 24.915 27.0295C21.5806 27.0519 18.2463 27.0743 14.912 27.0967C13.8993 27.273 13.0601 27.7541 12.3944 28.5401C10.6601 26.8058 8.92578 25.0714 7.19149 23.3371C8.29774 21.3619 9.9761 20.1983 12.2266 19.8461C13.7335 19.6042 15.1881 19.7833 16.5903 20.3832C19.3692 20.3844 22.1441 20.4291 24.915 20.5175C25.7298 20.9931 25.9201 21.6532 25.4856 22.4979C25.3337 22.6949 25.1434 22.8403 24.915 22.9343C22.8603 23.0223 20.8015 23.067 18.7386 23.0686C18.4073 23.1813 18.2283 23.4163 18.2016 23.7735C18.2526 24.0666 18.4093 24.2792 18.6715 24.4113C20.8454 24.4765 23.016 24.454 25.1835 24.3441C26.5552 23.8292 27.2153 22.8334 27.164 21.3567C28.6745 19.8014 30.1851 18.2461 31.6956 16.6908C31.8928 16.5699 32.0942 16.4692 32.2998 16.3887ZM5.31173 24.042C5.54524 24.0208 5.76903 24.0544 5.98307 24.1427C7.94119 26.1009 9.89923 28.0589 11.8573 30.017C11.9916 30.2408 11.9916 30.4646 11.8573 30.6884C10.951 31.5947 10.0447 32.501 9.1384 33.4073C9.07126 33.4521 9.00413 33.4521 8.93699 33.4073C6.77658 31.2581 4.62827 29.0986 2.49208 26.9288C3.43339 25.9652 4.37327 25.0029 5.31173 24.042Z" fill="white"/>
<path opacity="0.893" fill-rule="evenodd" clip-rule="evenodd" d="M15.9859 22.9009C16.5781 22.8999 16.8579 23.1908 16.8251 23.7736C16.6723 24.2604 16.3478 24.4283 15.8517 24.2771C15.4751 24.0571 15.3521 23.7327 15.4824 23.3037C15.624 23.1277 15.7919 22.9934 15.9859 22.9009Z" fill="white"/>
</g>
<defs>
<clipPath id="clip0_212_7284">
<rect width="34.3729" height="34.44" fill="white" transform="translate(0.780029 0.780029)"/>
</clipPath>
</defs>
</svg>
