<svg width="34" height="32" viewBox="0 0 34 32" fill="none" xmlns="http://www.w3.org/2000/svg">
<path fill-rule="evenodd" clip-rule="evenodd" d="M7.11761 8.95332C8.43419 6.93839 9.4761 4.72281 10.4699 2.56824C10.6824 2.10366 10.4884 1.54911 10.0268 1.36574C9.5758 1.14772 9.03454 1.35708 8.83301 1.78712C7.87163 3.87599 6.86922 6.02763 5.60842 7.94625C5.33747 8.35442 5.45171 8.92213 5.86683 9.20476C6.28161 9.48728 6.84631 9.36139 7.11761 8.95332Z" fill="#674CEF"/>
<path fill-rule="evenodd" clip-rule="evenodd" d="M13.801 18.4234C18.5518 16.0097 22.9767 12.9999 27.8031 10.6859C28.2491 10.4848 28.4419 9.93807 28.2257 9.49033C28.0091 9.04248 27.4729 8.83574 27.016 9.07144C22.1789 11.382 17.7436 14.3886 12.9822 16.7989C12.5335 17.0372 12.3547 17.5881 12.5802 18.0388C12.8162 18.4548 13.3524 18.6617 13.801 18.4234Z" fill="#674CEF"/>
<path fill-rule="evenodd" clip-rule="evenodd" d="M25.6638 29.488C23.5535 28.9371 21.4432 28.386 19.3325 27.8349C18.8566 27.685 18.3585 27.9839 18.2293 28.4747C18.1005 28.9656 18.3969 29.4384 18.8731 29.5884C20.9869 30.1404 23.1003 30.6925 25.2138 31.2444C25.7006 31.3598 26.1962 31.0603 26.3226 30.5686C26.4382 30.1115 26.1503 29.6033 25.6638 29.488Z" fill="#674CEF"/>
</svg>
