<?xml version="1.0" encoding="UTF-8"?>
<!DOCTYPE svg PUBLIC "-//W3C//DTD SVG 1.1//EN" "http://www.w3.org/Graphics/SVG/1.1/DTD/svg11.dtd">
<svg xmlns="http://www.w3.org/2000/svg" version="1.1" width="512px" height="512px" style="shape-rendering:geometricPrecision; text-rendering:geometricPrecision; image-rendering:optimizeQuality; fill-rule:evenodd; clip-rule:evenodd" xmlns:xlink="http://www.w3.org/1999/xlink">
<g><path style="opacity:0.951" fill="#bababa" d="M 237.5,-0.5 C 249.5,-0.5 261.5,-0.5 273.5,-0.5C 342.513,9.92652 389.013,47.9265 413,113.5C 427.381,162.829 421.381,209.496 395,253.5C 382.667,269.167 370.333,284.833 358,300.5C 347.351,318.446 340.684,337.78 338,358.5C 337.667,386.833 337.333,415.167 337,443.5C 335.482,457.862 327.816,467.195 314,471.5C 316.178,491.524 308.011,504.857 289.5,511.5C 266.833,511.5 244.167,511.5 221.5,511.5C 202.989,504.857 194.822,491.524 197,471.5C 187.062,468.372 180.062,462.039 176,452.5C 174.702,425.549 174.035,398.549 174,371.5C 173.674,345.526 166.674,321.526 153,299.5C 144.088,287.25 134.421,275.583 124,264.5C 90.0115,216.616 82.0115,164.616 100,108.5C 125.365,46.2464 171.199,9.91303 237.5,-0.5 Z M 239.5,20.5 C 309.3,17.2933 359.133,46.96 389,109.5C 406.686,156.354 402.353,201.021 376,243.5C 365,257.167 354,270.833 343,284.5C 326.872,308.717 318.039,335.384 316.5,364.5C 308.167,364.5 299.833,364.5 291.5,364.5C 291.5,322.5 291.5,280.5 291.5,238.5C 317.241,240.077 329.741,228.077 329,202.5C 323.875,184.007 311.708,176.174 292.5,179C 275.027,185.756 267.693,198.589 270.5,217.5C 260.5,217.5 250.5,217.5 240.5,217.5C 242.482,189.315 229.482,176.481 201.5,179C 184.786,184.911 177.619,196.744 180,214.5C 186.07,233.673 199.237,241.673 219.5,238.5C 219.5,280.5 219.5,322.5 219.5,364.5C 211.167,364.5 202.833,364.5 194.5,364.5C 192.653,331.45 181.819,301.784 162,275.5C 143.975,258.475 130.308,238.475 121,215.5C 99.3726,145.129 117.873,87.9624 176.5,44C 195.925,31.6947 216.925,23.8614 239.5,20.5 Z M 205.5,199.5 C 211.741,197.988 216.241,199.988 219,205.5C 219.499,209.486 219.666,213.486 219.5,217.5C 215.154,217.666 210.821,217.499 206.5,217C 198.844,211.569 198.511,205.736 205.5,199.5 Z M 296.5,199.5 C 305.271,198.771 309.104,202.771 308,211.5C 306.833,214 305,215.833 302.5,217C 298.848,217.499 295.182,217.665 291.5,217.5C 291.334,213.486 291.501,209.486 292,205.5C 292.979,203.032 294.479,201.032 296.5,199.5 Z M 240.5,238.5 C 250.5,238.5 260.5,238.5 270.5,238.5C 270.5,280.5 270.5,322.5 270.5,364.5C 260.5,364.5 250.5,364.5 240.5,364.5C 240.5,322.5 240.5,280.5 240.5,238.5 Z M 195.5,385.5 C 235.833,385.5 276.167,385.5 316.5,385.5C 316.667,404.17 316.5,422.836 316,441.5C 315.386,445.115 313.553,447.949 310.5,450C 273.833,450.667 237.167,450.667 200.5,450C 198.667,448.833 197.167,447.333 196,445.5C 195.5,425.503 195.333,405.503 195.5,385.5 Z M 217.5,471.5 C 242.833,471.5 268.167,471.5 293.5,471.5C 293.575,475.897 293.075,480.23 292,484.5C 290.833,487 289,488.833 286.5,490C 276.214,491.102 265.881,491.602 255.5,491.5C 245.119,491.602 234.786,491.102 224.5,490C 222,488.833 220.167,487 219,484.5C 217.925,480.23 217.425,475.897 217.5,471.5 Z"/></g>
<g><path style="opacity:0.924" fill="#bababa" d="M 53.5,45.5 C 55.9237,46.0305 58.257,46.8638 60.5,48C 67.3333,54.8333 74.1667,61.6667 81,68.5C 85.0945,77.6442 82.2612,83.3109 72.5,85.5C 69.9722,85.2372 67.6389,84.4039 65.5,83C 58.3017,76.1362 51.4684,68.9695 45,61.5C 42.3571,53.114 45.1904,47.7807 53.5,45.5 Z"/></g>
<g><path style="opacity:0.924" fill="#bababa" d="M 455.5,45.5 C 465.282,46.7338 468.782,52.0672 466,61.5C 459.532,68.9695 452.698,76.1362 445.5,83C 436.206,87.6812 430.206,85.0145 427.5,75C 428.137,72.755 428.97,70.5883 430,68.5C 437.823,59.8315 446.323,52.1648 455.5,45.5 Z"/></g>
<g><path style="opacity:0.936" fill="#bababa" d="M 252.5,47.5 C 296.763,48.0419 330.929,66.7086 355,103.5C 358.876,110.413 362.043,117.579 364.5,125C 361.439,134.758 355.439,137.258 346.5,132.5C 327.489,90.4784 294.822,68.6451 248.5,67C 244.741,63.2566 243.574,58.7566 245,53.5C 247.109,50.8782 249.609,48.8782 252.5,47.5 Z"/></g>
<g><path style="opacity:0.93" fill="#bababa" d="M -0.5,168.5 C -0.5,165.5 -0.5,162.5 -0.5,159.5C 1.22405,156.458 3.89071,154.625 7.5,154C 17.5,153.333 27.5,153.333 37.5,154C 45.1573,156.628 47.6573,161.794 45,169.5C 43.4571,171.378 41.6238,172.878 39.5,174C 28.1667,174.667 16.8333,174.667 5.5,174C 2.97739,172.64 0.977392,170.807 -0.5,168.5 Z"/></g>
<g><path style="opacity:0.892" fill="#bababa" d="M 359.5,153.5 C 370.823,155.145 373.99,161.145 369,171.5C 359.765,177.129 353.598,174.796 350.5,164.5C 351.032,158.649 354.032,154.982 359.5,153.5 Z"/></g>
<g><path style="opacity:0.93" fill="#bababa" d="M 511.5,159.5 C 511.5,162.5 511.5,165.5 511.5,168.5C 510.023,170.807 508.023,172.64 505.5,174C 494.167,174.667 482.833,174.667 471.5,174C 464.505,170.014 463.005,164.514 467,157.5C 468.8,155.683 470.966,154.516 473.5,154C 483.5,153.333 493.5,153.333 503.5,154C 507.109,154.625 509.776,156.458 511.5,159.5 Z"/></g>
<g><path style="opacity:0.901" fill="#bababa" d="M 71.5,242.5 C 81.2817,243.733 84.7817,249.066 82,258.5C 75.8651,265.636 69.3651,272.469 62.5,279C 54.4851,284.6 48.3184,283.1 44,274.5C 43.4163,271.743 43.7496,269.077 45,266.5C 52.5381,256.782 61.3715,248.782 71.5,242.5 Z"/></g>
<g><path style="opacity:0.901" fill="#bababa" d="M 436.5,242.5 C 440.179,242.751 443.513,243.918 446.5,246C 452.333,251.833 458.167,257.667 464,263.5C 469.949,272.992 467.616,279.325 457,282.5C 455.112,282.204 453.278,281.704 451.5,281C 442.225,273.729 434.392,265.229 428,255.5C 427.349,248.784 430.183,244.451 436.5,242.5 Z"/></g>
</svg>
