<svg width="45" height="45" viewBox="0 0 45 45" fill="none" xmlns="http://www.w3.org/2000/svg">
<path opacity="0.946" fill-rule="evenodd" clip-rule="evenodd" d="M32.915 2.32858C37.0978 2.16555 40.1008 3.95266 41.9238 7.68991C43.1842 11.0255 42.7301 14.1017 40.5615 16.9184C41.3669 18.7563 41.4693 20.6313 40.8691 22.5434C39.9969 24.4374 38.5175 25.2137 36.4307 24.8725C34.5546 24.374 33.2508 23.2168 32.5195 21.4008C32.3177 20.9159 32.1565 20.4178 32.0361 19.9067C31.0911 19.6356 30.1829 19.2693 29.3115 18.8081C28.5139 18.3178 27.7815 17.7465 27.1143 17.0942C21.6623 18.8578 16.2131 20.6303 10.7666 22.4116C10.5029 22.4702 10.2393 22.4702 9.97559 22.4116C8.87757 22.1298 7.79358 21.8076 6.72363 21.4448C6.53093 21.2337 6.41374 20.9846 6.37207 20.6977C6.864 19.031 7.44994 17.405 8.12988 15.8198C8.87748 15.5267 9.63923 15.2776 10.415 15.0727C11.0787 15.3165 11.7232 15.6095 12.3486 15.9516C12.8744 15.3683 13.3578 14.7531 13.7988 14.1059C14.1278 13.7755 14.5233 13.673 14.9854 13.7983C15.7449 13.9845 16.492 14.2042 17.2266 14.4575C17.8565 13.7104 18.4863 12.9633 19.1162 12.2163C19.3681 12.0882 19.6318 12.059 19.9072 12.1284C20.6816 12.355 21.458 12.5747 22.2363 12.7876C22.8306 12.0751 23.4311 11.3574 24.0381 10.6342C24.3475 10.4871 24.6698 10.3846 25.0049 10.3266C25.5224 6.55266 27.5731 4.01848 31.1572 2.72409C31.7513 2.57335 32.3372 2.44151 32.915 2.32858ZM33.0029 4.17428C36.482 4.06846 38.9283 5.5919 40.3418 8.7446C41.115 11.0396 40.8219 13.1782 39.4629 15.1606C38.6907 14.2977 37.7678 13.6385 36.6943 13.1831C37.2701 12.3469 37.4605 11.424 37.2656 10.4145C36.5092 8.09518 34.9419 7.23092 32.5635 7.82174C30.7657 8.6487 30.0186 10.0403 30.3223 11.9965C30.6543 13.3509 31.4893 14.2152 32.8271 14.5893C34.3189 14.4541 35.7252 14.7471 37.0459 15.4682C37.4691 15.7889 37.8499 16.1551 38.1885 16.5669C35.2731 18.6607 32.3433 18.6753 29.3994 16.6108C28.957 16.1978 28.5469 15.7584 28.1689 15.2924C27.9696 15.156 27.7499 15.0828 27.5098 15.0727C21.7745 16.8917 16.047 18.7374 10.3271 20.6098C9.77493 20.4351 9.21832 20.274 8.65723 20.1264C8.61136 20.0771 8.58206 20.0185 8.56934 19.9507C8.87203 19.0572 9.16497 18.1637 9.44824 17.27C9.75059 17.218 10.0435 17.1302 10.3271 17.0063C10.9269 17.2915 11.5129 17.5991 12.085 17.9292C12.6715 18.1731 13.1549 18.0412 13.5352 17.5337C13.9826 16.9026 14.4513 16.2874 14.9414 15.688C15.9506 16.0736 16.9906 16.2933 18.0615 16.3471C18.7167 15.6543 19.332 14.9219 19.9072 14.1499C20.8315 14.3332 21.7543 14.5529 22.6758 14.809C22.8417 14.783 23.0029 14.7391 23.1592 14.6772C23.854 13.8731 24.5278 13.0527 25.1807 12.2163C25.6983 12.0637 26.1817 11.844 26.6309 11.5571C26.9296 7.49527 29.0537 5.03433 33.0029 4.17428ZM33.4424 9.44772C34.4064 9.37987 35.0655 9.79006 35.4199 10.6782C35.5486 11.7247 35.1237 12.4425 34.1455 12.8315C32.9527 12.8989 32.2496 12.3423 32.0361 11.1616C32.1703 10.3102 32.6391 9.7389 33.4424 9.44772ZM38.8916 18.3247C38.9795 18.3247 39.0674 18.3247 39.1553 18.3247C39.5186 19.5318 39.504 20.7329 39.1113 21.9282C38.4879 23.0367 37.5651 23.3736 36.3428 22.9389C35.6679 22.645 35.1258 22.1909 34.7168 21.5766C34.4342 21.0807 34.1852 20.568 33.9697 20.0385C35.7979 19.9615 37.4385 19.3903 38.8916 18.3247Z" fill="#674CEF"/>
<path opacity="0.948" fill-rule="evenodd" clip-rule="evenodd" d="M4.17481 23.4223C5.52756 23.384 6.87521 23.428 8.21778 23.5541C8.98989 23.8721 9.54659 24.4141 9.8877 25.1801C15.1984 23.2804 19.9445 24.2033 24.126 27.9486C25.1183 28.4604 26.173 28.7534 27.29 28.8275C28.5198 28.9008 29.7503 28.9594 30.9814 29.0033C31.7302 29.0281 32.3894 29.2772 32.959 29.7504C33.526 30.7779 33.4674 31.7741 32.7832 32.7387C31.8096 33.7686 30.6231 34.4278 29.2236 34.7162C27.6283 35.105 26.0169 35.1929 24.3897 34.9799C23.6136 34.8115 22.8372 34.6503 22.0605 34.4965C21.9287 34.5112 21.7969 34.5258 21.665 34.5404C22.9825 35.0674 24.3301 35.5069 25.708 35.8588C26.9806 35.8445 28.2403 35.698 29.4873 35.4193C32.4623 34.7855 35.4213 34.0824 38.3643 33.31C39.952 32.7891 41.3143 33.126 42.4512 34.3207C43.1432 35.4128 43.0553 36.4382 42.1875 37.3969C41.8741 37.678 41.5371 37.9271 41.1768 38.144C36.1508 40.366 30.9067 41.8015 25.4443 42.4506C23.0149 42.7248 20.6125 42.5783 18.2373 42.0111C15.4312 40.9099 12.6627 39.7234 9.93164 38.4516C9.5059 39.3467 8.81737 39.9179 7.86621 40.1654C6.63574 40.2241 5.40528 40.2241 4.17481 40.1654C2.94836 39.9058 2.2306 39.1587 2.02149 37.9242C1.96289 33.852 1.96289 29.7797 2.02149 25.7074C2.24672 24.4717 2.96449 23.7099 4.17481 23.4223ZM4.43848 25.268C5.49357 25.2533 6.54826 25.268 7.60254 25.3119C7.82227 25.4145 7.9834 25.5756 8.08594 25.7953C8.14454 29.809 8.14454 33.8226 8.08594 37.8363C7.9834 38.0561 7.82227 38.2172 7.60254 38.3197C6.54785 38.3784 5.49317 38.3784 4.43848 38.3197C4.13086 38.2465 3.94043 38.0561 3.86719 37.7484C3.80859 33.8226 3.80859 29.8969 3.86719 25.9711C3.91845 25.6132 4.10888 25.3788 4.43848 25.268ZM14.1064 26.059C16.4037 25.9294 18.5425 26.4421 20.5225 27.5971C21.3676 28.1785 22.188 28.7937 22.9834 29.4428C24.0434 30.0695 25.186 30.4504 26.4111 30.5854C28.0866 30.6851 29.7565 30.817 31.4209 30.9809C31.5231 31.161 31.5084 31.3368 31.377 31.5082C30.4774 32.3608 29.408 32.8734 28.1689 33.0463C26.3232 33.4027 24.5067 33.2855 22.7197 32.6947C22.1045 32.6361 21.4893 32.6361 20.874 32.6947C19.7709 32.9523 19.3168 33.6408 19.5117 34.7602C19.9165 35.6748 20.605 36.2754 21.5772 36.5619C23.056 37.0844 24.5648 37.4799 26.1035 37.7484C27.7473 37.6185 29.3733 37.3695 30.9814 37.0014C33.5399 36.4276 36.0888 35.8124 38.6279 35.1557C39.0803 35.0717 39.5344 34.9984 39.9902 34.9359C40.4685 35.0212 40.8348 35.2702 41.0889 35.683C40.9165 35.9434 40.7115 36.1778 40.4736 36.3861C34.8878 38.9398 29.0284 40.39 22.8955 40.7367C21.4025 40.7595 19.9376 40.569 18.501 40.1654C15.6783 38.9738 12.8658 37.758 10.0635 36.518C9.94632 33.3832 9.94632 30.2485 10.0635 27.1137C11.3732 26.5711 12.7209 26.2196 14.1064 26.059Z" fill="#674CEF"/>
</svg>
