<svg width="226" height="64" viewBox="0 0 226 64" fill="none" xmlns="http://www.w3.org/2000/svg">
<path d="M84.712 17.6H98.782C99.51 17.6 100.112 17.838 100.588 18.314C101.092 18.762 101.344 19.35 101.344 20.078C101.344 20.778 101.092 21.352 100.588 21.8C100.112 22.22 99.51 22.43 98.782 22.43H87.022L87.4 21.716V29.906L87.064 29.57H96.892C97.62 29.57 98.222 29.808 98.698 30.284C99.202 30.732 99.454 31.32 99.454 32.048C99.454 32.748 99.202 33.322 98.698 33.77C98.222 34.19 97.62 34.4 96.892 34.4H87.19L87.4 34.064V42.548L87.064 42.17H98.782C99.51 42.17 100.112 42.422 100.588 42.926C101.092 43.402 101.344 43.962 101.344 44.606C101.344 45.306 101.092 45.88 100.588 46.328C100.112 46.776 99.51 47 98.782 47H84.712C83.984 47 83.368 46.762 82.864 46.286C82.388 45.782 82.15 45.166 82.15 44.438V20.162C82.15 19.434 82.388 18.832 82.864 18.356C83.368 17.852 83.984 17.6 84.712 17.6ZM123.956 15.92C124.684 15.92 125.286 16.158 125.762 16.634C126.238 17.11 126.476 17.726 126.476 18.482V44.438C126.476 45.166 126.238 45.782 125.762 46.286C125.286 46.762 124.684 47 123.956 47C123.228 47 122.626 46.762 122.15 46.286C121.674 45.782 121.436 45.166 121.436 44.438V42.38L122.36 42.758C122.36 43.122 122.164 43.57 121.772 44.102C121.38 44.606 120.848 45.11 120.176 45.614C119.504 46.118 118.706 46.552 117.782 46.916C116.886 47.252 115.906 47.42 114.842 47.42C112.91 47.42 111.16 46.93 109.592 45.95C108.024 44.942 106.778 43.57 105.854 41.834C104.958 40.07 104.51 38.054 104.51 35.786C104.51 33.49 104.958 31.474 105.854 29.738C106.778 27.974 108.01 26.602 109.55 25.622C111.09 24.614 112.798 24.11 114.674 24.11C115.878 24.11 116.984 24.292 117.992 24.656C119 25.02 119.868 25.482 120.596 26.042C121.352 26.602 121.926 27.176 122.318 27.764C122.738 28.324 122.948 28.8 122.948 29.192L121.436 29.738V18.482C121.436 17.754 121.674 17.152 122.15 16.676C122.626 16.172 123.228 15.92 123.956 15.92ZM115.472 42.8C116.704 42.8 117.782 42.492 118.706 41.876C119.63 41.26 120.344 40.42 120.848 39.356C121.38 38.292 121.646 37.102 121.646 35.786C121.646 34.442 121.38 33.238 120.848 32.174C120.344 31.11 119.63 30.27 118.706 29.654C117.782 29.038 116.704 28.73 115.472 28.73C114.268 28.73 113.204 29.038 112.28 29.654C111.356 30.27 110.628 31.11 110.096 32.174C109.592 33.238 109.34 34.442 109.34 35.786C109.34 37.102 109.592 38.292 110.096 39.356C110.628 40.42 111.356 41.26 112.28 41.876C113.204 42.492 114.268 42.8 115.472 42.8ZM149.263 24.53C149.991 24.53 150.593 24.782 151.069 25.286C151.545 25.762 151.783 26.364 151.783 27.092V37.76C151.783 40.728 150.957 43.08 149.305 44.816C147.653 46.552 145.273 47.42 142.165 47.42C139.057 47.42 136.677 46.552 135.025 44.816C133.401 43.08 132.589 40.728 132.589 37.76V27.092C132.589 26.364 132.827 25.762 133.303 25.286C133.779 24.782 134.381 24.53 135.109 24.53C135.837 24.53 136.439 24.782 136.915 25.286C137.391 25.762 137.629 26.364 137.629 27.092V37.76C137.629 39.468 138.007 40.742 138.763 41.582C139.519 42.394 140.653 42.8 142.165 42.8C143.705 42.8 144.853 42.394 145.609 41.582C146.365 40.742 146.743 39.468 146.743 37.76V27.092C146.743 26.364 146.981 25.762 147.457 25.286C147.933 24.782 148.535 24.53 149.263 24.53ZM166.342 47C165.558 47 164.914 46.762 164.41 46.286C163.906 45.782 163.654 45.166 163.654 44.438V20.078H169.114V44.438C169.114 45.166 168.848 45.782 168.316 46.286C167.812 46.762 167.154 47 166.342 47ZM157.06 22.43C156.332 22.43 155.716 22.206 155.212 21.758C154.736 21.31 154.498 20.722 154.498 19.994C154.498 19.266 154.736 18.692 155.212 18.272C155.716 17.824 156.332 17.6 157.06 17.6H175.708C176.436 17.6 177.038 17.824 177.514 18.272C178.018 18.72 178.27 19.308 178.27 20.036C178.27 20.764 178.018 21.352 177.514 21.8C177.038 22.22 176.436 22.43 175.708 22.43H157.06ZM192.759 47.42C190.435 47.42 188.419 46.944 186.711 45.992C185.003 45.012 183.673 43.682 182.721 42.002C181.797 40.294 181.335 38.348 181.335 36.164C181.335 33.7 181.825 31.6 182.805 29.864C183.813 28.1 185.115 26.756 186.711 25.832C188.307 24.88 190.001 24.404 191.793 24.404C193.165 24.404 194.467 24.684 195.699 25.244C196.931 25.776 198.023 26.532 198.975 27.512C199.955 28.464 200.725 29.598 201.285 30.914C201.845 32.202 202.139 33.616 202.167 35.156C202.139 35.716 201.915 36.178 201.495 36.542C201.075 36.906 200.585 37.088 200.025 37.088H183.687L182.679 33.518H198.471L197.673 34.274V33.224C197.617 32.244 197.295 31.39 196.707 30.662C196.119 29.906 195.391 29.332 194.523 28.94C193.655 28.52 192.745 28.31 191.793 28.31C190.953 28.31 190.141 28.45 189.357 28.73C188.601 28.982 187.915 29.402 187.299 29.99C186.711 30.578 186.235 31.362 185.871 32.342C185.535 33.294 185.367 34.484 185.367 35.912C185.367 37.452 185.689 38.796 186.333 39.944C186.977 41.092 187.845 41.988 188.937 42.632C190.029 43.248 191.233 43.556 192.549 43.556C193.585 43.556 194.439 43.458 195.111 43.262C195.783 43.038 196.343 42.772 196.791 42.464C197.239 42.156 197.631 41.862 197.967 41.582C198.387 41.33 198.807 41.204 199.227 41.204C199.731 41.204 200.151 41.386 200.487 41.75C200.823 42.086 200.991 42.492 200.991 42.968C200.991 43.584 200.683 44.144 200.067 44.648C199.311 45.376 198.261 46.02 196.917 46.58C195.601 47.14 194.215 47.42 192.759 47.42ZM216.701 24.404C218.213 24.404 219.557 24.572 220.733 24.908C221.909 25.216 222.819 25.664 223.463 26.252C224.135 26.812 224.471 27.47 224.471 28.226C224.471 28.702 224.331 29.15 224.051 29.57C223.771 29.962 223.351 30.158 222.791 30.158C222.399 30.158 222.063 30.088 221.783 29.948C221.531 29.808 221.293 29.64 221.069 29.444C220.845 29.248 220.565 29.052 220.229 28.856C219.921 28.688 219.459 28.548 218.843 28.436C218.255 28.324 217.723 28.268 217.247 28.268C215.763 28.268 214.475 28.604 213.383 29.276C212.319 29.948 211.479 30.858 210.863 32.006C210.275 33.154 209.981 34.456 209.981 35.912C209.981 37.368 210.275 38.67 210.863 39.818C211.479 40.966 212.305 41.876 213.341 42.548C214.405 43.22 215.637 43.556 217.037 43.556C217.877 43.556 218.563 43.5 219.095 43.388C219.627 43.248 220.089 43.08 220.481 42.884C220.901 42.632 221.251 42.38 221.531 42.128C221.839 41.848 222.259 41.708 222.791 41.708C223.407 41.708 223.869 41.904 224.177 42.296C224.513 42.66 224.681 43.122 224.681 43.682C224.681 44.298 224.303 44.9 223.547 45.488C222.819 46.048 221.839 46.51 220.607 46.874C219.375 47.238 218.017 47.42 216.533 47.42C214.349 47.42 212.445 46.916 210.821 45.908C209.225 44.9 207.979 43.528 207.083 41.792C206.215 40.056 205.781 38.096 205.781 35.912C205.781 33.7 206.243 31.74 207.167 30.032C208.091 28.296 209.379 26.924 211.031 25.916C212.683 24.908 214.573 24.404 216.701 24.404Z" fill="white"/>
<path d="M5.24735 51.2256V18.929C2.04165 18.9124 0 19.1536 0 19.1536V57.26C0 57.26 17.9665 55.1174 31.2519 64.0001C20.2024 52.7813 5.24735 51.2256 5.24735 51.2256Z" fill="#FFA722"/>
<path d="M18.8896 46.8264V14.3921C12.9935 11.8073 7.92236 10.9419 7.92236 10.9419V49.0488C7.92236 49.0488 24.9624 51.9494 32.8985 63.0609C30.5654 55.7844 18.8896 46.8264 18.8896 46.8264Z" fill="#674CEF"/>
<path d="M21.5547 6.92236V45.0293C21.5547 45.0293 31.8683 52.7818 35.192 63.0359V29.0097C35.192 11.9707 21.5547 6.92236 21.5547 6.92236Z" fill="#5392FB"/>
<path d="M60.2434 48.0429V18.589C63.4491 18.5723 63.9996 18.8985 63.9996 18.8985V54.6608C63.9996 54.6608 47.5857 51.9089 37.2661 63.9937C44.9464 50.1516 60.2434 48.0429 60.2434 48.0429Z" fill="#674CEF"/>
<path d="M57.575 7.87939V45.953C57.575 45.953 38.5136 52.7828 35.1899 63.0368V29.0106C35.1899 11.9716 57.575 7.87939 57.575 7.87939Z" fill="#FFA722"/>
<path d="M37.2728 0L40.0598 5.33146L45.1546 8.24699L40.0598 11.1625L37.2728 16.494L34.4864 11.1625L29.3911 8.24699L34.4864 5.33146L37.2728 0Z" fill="#FFA722"/>
</svg>
