<svg width="67" height="67" viewBox="0 0 67 67" fill="none" xmlns="http://www.w3.org/2000/svg">
<g clip-path="url(#clip0_297_205)">
<path opacity="0.926" fill-rule="evenodd" clip-rule="evenodd" d="M30.9483 -0.0654297C32.6495 -0.0654297 34.3506 -0.0654297 36.0518 -0.0654297C45.1028 1.22114 51.7112 5.93208 55.877 14.0674C58.5841 20.3159 58.8894 26.6845 56.793 33.1729C55.5896 36.4107 53.823 39.2896 51.4932 41.8096C54.5353 47.1526 57.6105 52.4742 60.7188 57.7744C61.1771 58.3414 61.2642 58.9521 60.9805 59.6064C60.7552 59.8608 60.4716 59.9917 60.1299 59.999C57.2884 59.4086 54.4531 58.7979 51.6241 58.167C50.8349 60.9307 49.9843 63.6788 49.0723 66.4111C48.8895 66.6166 48.6932 66.7911 48.4834 66.9346C48.2217 66.9346 47.96 66.9346 47.6983 66.9346C47.5428 66.8215 47.3901 66.6907 47.2403 66.542C46.75 65.6046 46.2265 64.6886 45.67 63.7939C45.2065 62.427 45.6645 61.8817 47.044 62.1582C47.3803 62.4287 47.642 62.7558 47.8292 63.1396C48.5872 60.9743 49.3069 58.7933 49.9883 56.5967C50.0911 56.363 50.2436 56.1667 50.4463 56.0078C50.8389 55.9205 51.2315 55.9205 51.6241 56.0078C53.6812 56.441 55.7314 56.899 57.7745 57.3818C57.818 57.3383 57.8617 57.2946 57.9053 57.251C55.2558 52.6059 52.5732 47.9822 49.8575 43.3799C46.8648 46 43.4407 47.8538 39.585 48.9414C41.4223 52.1582 43.2762 55.3642 45.1465 58.5596C45.2987 59.9341 44.7317 60.3704 43.4454 59.8682C41.417 56.3568 39.3887 52.8453 37.3604 49.334C36.065 49.4685 34.7564 49.5775 33.4346 49.6611C32.1586 49.6053 30.8936 49.4744 29.6397 49.2686C26.2252 55.1824 22.7793 61.071 19.3018 66.9346C18.9092 66.9346 18.5167 66.9346 18.1241 66.9346C17.0362 64.1074 16.0767 61.2284 15.2452 58.2979C12.6216 58.801 10.0044 59.3463 7.39362 59.9336C6.01853 60.1728 5.51691 59.6276 5.88873 58.2979C7.44787 55.5719 9.03998 52.8675 10.6651 50.1846C11.918 49.7135 12.4633 50.1498 12.3008 51.4932C11.2216 53.4338 10.1093 55.3531 8.96393 57.251C9.05117 57.2946 9.1384 57.3383 9.22565 57.3818C11.4459 56.8813 13.6704 56.4014 15.8995 55.9424C16.3711 55.9488 16.6982 56.1669 16.8809 56.5967C17.5623 58.7933 18.282 60.9743 19.0401 63.1396C21.8523 58.4763 24.6003 53.7654 27.2842 49.0068C23.4523 47.8653 20.0282 45.9897 17.0118 43.3799C16.1176 44.8848 15.2233 46.3896 14.3292 47.8945C13.0635 48.2862 12.5183 47.8282 12.6934 46.5205C13.6207 44.9715 14.515 43.4012 15.376 41.8096C9.05005 34.605 7.1962 26.3608 9.81451 17.0771C11.3242 12.6401 13.8323 8.86694 17.3389 5.75781C18.6406 5.15476 19.2295 5.56915 19.1055 7.00098C11.6952 13.7046 9.2525 21.9052 11.7774 31.6025C14.6787 39.6949 20.2838 44.8203 28.5928 46.9785C37.3187 48.5627 44.6686 46.0982 50.6426 39.585C56.2162 32.6082 57.5248 24.8875 54.5684 16.4229C50.9585 8.19091 44.6991 3.41454 35.7901 2.09375C31.0506 1.64321 26.6014 2.55923 22.4424 4.8418C21.1323 5.0146 20.6743 4.46935 21.0684 3.20605C24.1419 1.41818 27.4352 0.327684 30.9483 -0.0654297ZM33.3038 16.6846C33.4184 16.6674 33.5057 16.711 33.5655 16.8154C34.2903 18.2869 35.0319 19.7481 35.7901 21.1992C37.5573 21.6013 39.3457 21.9066 41.1553 22.1152C39.8376 23.286 38.5944 24.5292 37.4258 25.8447C37.5652 27.5107 37.8052 29.1683 38.1456 30.8174C38.102 30.9047 38.0583 30.9918 38.0147 31.0791C36.5373 30.2314 35.0107 29.4898 33.4346 28.8545C31.8447 29.5483 30.2962 30.3335 28.7891 31.21C29.0214 29.4235 29.2395 27.6351 29.4434 25.8447C28.2748 24.5292 27.0317 23.286 25.7139 22.1152C27.5236 21.9066 29.3119 21.6013 31.0792 21.1992C31.8745 19.7176 32.616 18.2127 33.3038 16.6846Z" fill="white"/>
<path opacity="0.925" fill-rule="evenodd" clip-rule="evenodd" d="M32.126 6.60849C39.376 6.44888 44.9811 9.37142 48.9414 15.3761C51.3397 19.5586 52.0376 24.0078 51.0352 28.7237C50.0721 29.5341 49.3959 29.3379 49.0069 28.1349C50.1545 21.5441 48.1479 16.1352 42.9873 11.9083C37.1768 7.95474 31.2008 7.69302 25.0596 11.1231C19.3571 15.005 16.8927 20.392 17.666 27.2843C19.2145 34.5905 23.642 39.018 30.9483 40.5665C38.5598 41.254 44.2305 38.2878 47.96 31.6681C48.8663 31.3311 49.4335 31.6364 49.6612 32.5841C46.6526 38.629 41.7672 42.0313 35.0049 42.7911C27.1749 43.1066 21.308 39.9006 17.4043 33.1729C14.1466 26.0713 14.8445 19.3975 19.4981 13.1515C22.8512 9.32655 27.0606 7.14555 32.126 6.60849Z" fill="white"/>
<path opacity="0.928" fill-rule="evenodd" clip-rule="evenodd" d="M33.1728 13.0205C33.5882 13.042 33.9589 13.1728 34.2851 13.4131C35.2167 15.423 36.1981 17.4076 37.2294 19.3672C39.4516 19.7282 41.6762 20.0772 43.9033 20.4141C44.3975 20.8008 44.5501 21.3023 44.3613 21.9189C42.8308 23.4932 41.2604 25.0198 39.6503 26.499C39.9054 28.6844 40.2325 30.8653 40.6318 33.042C40.5912 33.9766 40.1114 34.3473 39.1923 34.1543C37.2523 33.1625 35.333 32.1375 33.4345 31.0791C31.536 32.1375 29.6167 33.1625 27.6767 34.1543C26.7577 34.3473 26.2778 33.9766 26.2373 33.042C26.6365 30.8653 26.9637 28.6844 27.2187 26.499C25.6086 25.0198 24.0383 23.4932 22.5078 21.9189C22.3189 21.3023 22.4715 20.8008 22.9658 20.4141C25.1968 20.1016 27.4214 19.7526 29.6396 19.3672C30.6734 17.4087 31.6548 15.424 32.5839 13.4131C32.7683 13.2455 32.9646 13.1146 33.1728 13.0205ZM33.3037 16.6846C32.6159 18.2127 31.8744 19.7176 31.0791 21.1992C29.3118 21.6014 27.5235 21.9066 25.7138 22.1152C27.0316 23.286 28.2747 24.5292 29.4433 25.8447C29.2394 27.6351 29.0213 29.4235 28.789 31.21C30.2961 30.3335 31.8446 29.5483 33.4345 28.8545C35.0106 29.4898 36.5372 30.2314 38.0146 31.0791C38.0582 30.9918 38.1019 30.9047 38.1455 30.8174C37.8051 29.1683 37.5651 27.5107 37.4257 25.8447C38.5943 24.5292 39.8375 23.286 41.1552 22.1152C39.3456 21.9066 37.5573 21.6014 35.79 21.1992C35.0318 19.7481 34.2902 18.2869 33.5654 16.8154C33.5056 16.711 33.4183 16.6674 33.3037 16.6846Z" fill="white"/>
</g>
<defs>
<clipPath id="clip0_297_205">
<rect width="67" height="67" fill="white"/>
</clipPath>
</defs>
</svg>
