<svg width="42" height="42" viewBox="0 0 42 42" fill="none" xmlns="http://www.w3.org/2000/svg">
<g clip-path="url(#clip0_212_7346)">
<path opacity="0.946" fill-rule="evenodd" clip-rule="evenodd" d="M41.959 9.6387C41.959 16.2832 41.959 22.9278 41.959 29.5723C41.5638 30.8014 40.7435 31.6081 39.498 31.9922C37.4771 32.1086 35.4537 32.1496 33.4277 32.1153C33.4414 34.1662 33.4277 36.217 33.3867 38.2676C33.0729 39.6476 32.2115 40.4269 30.8027 40.6055C24.2402 40.6602 17.6777 40.6602 11.1152 40.6055C9.70643 40.4269 8.8451 39.6476 8.53125 38.2676C8.49023 36.217 8.47653 34.1662 8.49023 32.1153C6.46425 32.1496 4.44081 32.1086 2.41992 31.9922C1.17447 31.6081 0.354158 30.8014 -0.0410156 29.5723C-0.0410156 22.9278 -0.0410156 16.2832 -0.0410156 9.6387C0.436469 8.07131 1.50288 7.22366 3.1582 7.09574C3.06647 5.20767 3.91412 3.99088 5.70117 3.44535C6.65937 3.43161 7.6164 3.39059 8.57227 3.3223C8.86454 2.30541 9.52079 1.66283 10.541 1.39456C11.9629 1.33987 13.3848 1.33987 14.8066 1.39456C15.2441 1.77738 15.2441 2.16019 14.8066 2.543C13.6035 2.57034 12.4004 2.59769 11.1973 2.62503C10.6112 2.67839 10.1874 2.9655 9.92578 3.48636C9.80437 6.29768 9.76336 9.11412 9.80273 11.9356C17.2403 11.9356 24.6777 11.9356 32.1152 11.9356C32.1289 9.20107 32.1152 6.4667 32.0742 3.73246C31.8898 3.04461 31.4386 2.67547 30.7207 2.62503C26.0176 2.59769 21.3144 2.57034 16.6113 2.543C16.3068 2.33686 16.2112 2.04975 16.3242 1.68167C16.3549 1.60652 16.3959 1.53815 16.4473 1.4766C21.417 1.34052 26.3936 1.31318 31.377 1.39456C32.3972 1.66283 33.0534 2.30541 33.3457 3.3223C34.3015 3.39059 35.2586 3.43161 36.2168 3.44535C38.0038 3.99088 38.8515 5.20767 38.7598 7.09574C40.4151 7.22366 41.4815 8.07131 41.959 9.6387ZM5.86523 4.71683C6.74024 4.71683 7.61523 4.71683 8.49023 4.71683C8.49023 5.5098 8.49023 6.30276 8.49023 7.09574C7.15039 7.09574 5.81054 7.09574 4.4707 7.09574C4.37112 5.95307 4.83596 5.1601 5.86523 4.71683ZM33.4277 4.71683C34.3032 4.70317 35.1782 4.71685 36.0527 4.75785C37.0922 5.1811 37.5571 5.9604 37.4473 7.09574C36.1074 7.09574 34.7676 7.09574 33.4277 7.09574C33.4277 6.30276 33.4277 5.5098 33.4277 4.71683ZM2.91211 8.40824C4.77149 8.40824 6.63086 8.40824 8.49023 8.40824C8.47653 9.88504 8.49023 11.3616 8.53125 12.8379C8.59564 12.9844 8.69129 13.1075 8.81836 13.2071C16.9121 13.2618 25.0058 13.2618 33.0996 13.2071C33.2267 13.1075 33.3223 12.9844 33.3867 12.8379C33.4277 11.3616 33.4414 9.88504 33.4277 8.40824C35.2873 8.39454 37.1467 8.40824 39.0059 8.44925C40.0502 8.66253 40.6107 9.30508 40.6875 10.377C40.7422 16.502 40.7422 22.627 40.6875 28.752C40.5858 29.8928 39.9705 30.5627 38.8418 30.7617C37.0374 30.8028 35.2327 30.8165 33.4277 30.8028C33.4277 27.2754 33.4277 23.7481 33.4277 20.2207C34.8499 20.2344 36.2718 20.2207 37.6934 20.1797C38.1716 19.687 38.1169 19.2769 37.5293 18.9493C26.4824 18.8945 15.4356 18.8945 4.38867 18.9493C3.80104 19.2769 3.74636 19.687 4.22461 20.1797C5.64622 20.2207 7.0681 20.2344 8.49023 20.2207C8.49023 23.7481 8.49023 27.2754 8.49023 30.8028C6.54521 30.8396 4.60381 30.7986 2.66602 30.6797C1.99609 30.4473 1.54492 29.9962 1.3125 29.3262C1.1775 23.012 1.15016 16.6956 1.23047 10.377C1.31531 9.30041 1.87585 8.64416 2.91211 8.40824ZM36.627 11.0332C37.1871 10.9781 37.4196 11.2242 37.3242 11.7715C36.8693 12.2083 36.5275 12.1262 36.2988 11.5254C36.3782 11.3376 36.4875 11.1735 36.627 11.0332ZM36.627 15.2989C37.3873 15.3067 37.5514 15.6211 37.1191 16.2422C36.7028 16.3601 36.4293 16.2097 36.2988 15.791C36.3347 15.5675 36.444 15.4035 36.627 15.2989ZM9.80273 20.2207C17.2403 20.2207 24.6777 20.2207 32.1152 20.2207C32.1289 23.42 32.1152 26.6193 32.0742 29.8184C30.0704 27.7767 27.7051 27.2161 24.9785 28.1367C24.4599 28.3686 23.9677 28.642 23.502 28.9571C22.3695 30.0074 21.2621 31.0875 20.1797 32.1973C19.5073 31.4975 18.81 30.8275 18.0879 30.1875C16.8025 29.2959 15.3806 28.9678 13.8223 29.2032C12.7685 29.3897 11.8387 29.8272 11.0332 30.5157C10.6367 30.9121 10.2402 31.3087 9.84375 31.7051C9.80273 27.8771 9.78903 24.049 9.80273 20.2207ZM16.5293 23.2559C17.4362 23.2879 17.9558 23.7528 18.0879 24.6504C17.9785 25.4707 17.5137 25.9356 16.6934 26.045C15.873 25.9356 15.4082 25.4707 15.2988 24.6504C15.397 23.8967 15.8072 23.4318 16.5293 23.2559ZM26.7832 28.9981C28.1136 28.9067 29.3167 29.2485 30.3926 30.0235C30.9531 30.584 31.5137 31.1446 32.0742 31.7051C32.1289 33.8379 32.1289 35.9707 32.0742 38.1035C31.8775 38.7926 31.4263 39.1891 30.7207 39.293C25.498 39.3477 20.2754 39.3477 15.0527 39.293C15.8072 38.566 16.5318 37.814 17.2266 37.0371C17.4097 36.4721 17.2183 36.144 16.6523 36.0528C16.4437 36.0432 16.2659 36.1116 16.1191 36.2578C15.1074 37.2695 14.0957 38.2813 13.084 39.293C12.314 39.363 11.5484 39.3356 10.7871 39.211C10.2956 38.9928 9.98115 38.6237 9.84375 38.1035C9.78903 36.5997 9.78903 35.0957 9.84375 33.5918C10.6829 32.6978 11.5716 31.8638 12.5098 31.0899C14.2465 30.181 15.9146 30.2904 17.5137 31.418C18.0879 31.9922 18.6621 32.5664 19.2363 33.1407C18.7278 33.6217 18.2493 34.1276 17.8008 34.6582C17.7169 35.5532 18.0861 35.8129 18.9082 35.4375C20.7129 33.6328 22.5176 31.8282 24.3223 30.0235C25.0669 29.4796 25.8873 29.1378 26.7832 28.9981Z" fill="white"/>
<path opacity="0.925" fill-rule="evenodd" clip-rule="evenodd" d="M36.3809 9.72082C38.1563 9.6775 38.8808 10.5251 38.5547 12.2638C38.0504 13.2251 37.2711 13.5669 36.2168 13.2892C35.1129 12.7351 34.7712 11.8738 35.1914 10.7052C35.4819 10.236 35.8783 9.90785 36.3809 9.72082ZM36.6269 11.0333C36.4875 11.1736 36.3781 11.3377 36.2988 11.5255C36.5275 12.1263 36.8693 12.2083 37.3242 11.7716C37.4196 11.2243 37.1871 10.9782 36.6269 11.0333Z" fill="white"/>
<path opacity="0.926" fill-rule="evenodd" clip-rule="evenodd" d="M36.2988 13.9863C37.7137 13.7897 38.5067 14.3912 38.6777 15.791C38.5095 17.2017 37.7165 17.7896 36.2988 17.5546C35.1499 17.035 34.7807 16.1736 35.1914 14.9707C35.4252 14.4796 35.7943 14.1515 36.2988 13.9863ZM36.6269 15.2988C36.444 15.4034 36.3346 15.5674 36.2988 15.791C36.4293 16.2097 36.7027 16.36 37.1191 16.2421C37.5513 15.621 37.3873 15.3066 36.6269 15.2988Z" fill="white"/>
<path opacity="0.925" fill-rule="evenodd" clip-rule="evenodd" d="M16.4473 21.9434C18.2173 21.9909 19.2017 22.8932 19.4004 24.6504C19.2365 26.2909 18.3341 27.1932 16.6934 27.3574C15.0527 27.1934 14.1504 26.291 13.9863 24.6504C14.1279 23.1148 14.9482 22.2125 16.4473 21.9434ZM16.5293 23.2559C15.8072 23.4318 15.397 23.8967 15.2988 24.6504C15.4082 25.4707 15.873 25.9356 16.6934 26.0449C17.5137 25.9356 17.9785 25.4707 18.0879 24.6504C17.9558 23.7527 17.4362 23.2879 16.5293 23.2559Z" fill="white"/>
</g>
<defs>
<clipPath id="clip0_212_7346">
<rect width="42" height="42" fill="white"/>
</clipPath>
</defs>
</svg>
