<svg width="100" height="100" viewBox="0 0 100 100" fill="none" xmlns="http://www.w3.org/2000/svg">
<path fill-rule="evenodd" clip-rule="evenodd" d="M94.6785 31.4695C75.9099 66.3694 38.4175 80.5582 3.59528 60.9103C2.43603 60.2561 0.965988 60.6651 0.311743 61.8101C-0.342503 62.9754 0.0664445 64.4474 1.22569 65.1017C38.5504 86.1807 78.8049 71.1536 98.9229 33.7593C99.5526 32.5939 99.1131 31.1217 97.9416 30.4879C96.7701 29.8745 95.3082 30.3041 94.6785 31.4695Z" fill="#674CEF" fill-opacity="0.29"/>
<path d="M32.8993 45.9426C36.7763 45.9426 39.9192 42.7997 39.9192 38.9227C39.9192 35.0457 36.7763 31.9028 32.8993 31.9028C29.0223 31.9028 25.8794 35.0457 25.8794 38.9227C25.8794 42.7997 29.0223 45.9426 32.8993 45.9426Z" fill="#674CEF" fill-opacity="0.29"/>
<path d="M61.9605 38.4753C65.7618 38.4753 68.8433 35.3938 68.8433 31.5926C68.8433 27.7914 65.7618 24.71 61.9605 24.71C58.1593 24.71 55.0779 27.7914 55.0779 31.5926C55.0779 35.3938 58.1593 38.4753 61.9605 38.4753Z" fill="#674CEF" fill-opacity="0.29"/>
</svg>
