<svg width="42" height="42" viewBox="0 0 42 42" fill="none" xmlns="http://www.w3.org/2000/svg">
<g clip-path="url(#clip0_212_7330)">
<path opacity="0.942" fill-rule="evenodd" clip-rule="evenodd" d="M41.959 24.2403C41.959 25.252 41.959 26.2638 41.959 27.2754C41.4346 27.6103 40.8603 27.8427 40.2363 27.9727C39.9613 28.6166 39.6605 29.2592 39.334 29.9004C39.583 30.3277 39.8153 30.7651 40.0312 31.2129C40.086 31.4043 40.086 31.5958 40.0312 31.7872C39.446 32.4546 38.8307 33.0972 38.1855 33.7149C37.9504 33.8344 37.7044 33.8617 37.4473 33.7969C36.9897 33.575 36.5385 33.3426 36.0938 33.0997C35.5103 33.4445 34.895 33.718 34.248 33.92C34.0619 34.4373 33.8842 34.9569 33.7148 35.4786C33.587 35.6646 33.4094 35.7603 33.1816 35.7657C32.2733 35.842 31.371 35.8146 30.4746 35.6836C30.3516 35.6153 30.2558 35.5196 30.1875 35.3965C30.0255 34.8831 29.8478 34.3773 29.6543 33.879C29.0109 33.6828 28.3957 33.423 27.8086 33.0997C27.3638 33.3426 26.9126 33.575 26.4551 33.7969C26.2637 33.8516 26.0722 33.8516 25.8809 33.7969C25.2408 33.239 24.6255 32.651 24.0352 32.0333C23.9023 31.8318 23.8613 31.6267 23.9121 31.418C22.5988 31.3497 21.2863 31.3634 19.9746 31.459C20.3245 32.413 20.6663 33.37 21 34.3301C21.8277 34.3975 22.6616 34.4385 23.502 34.4532C23.8537 34.7625 23.922 35.1317 23.707 35.5606C23.6455 35.612 23.5771 35.653 23.502 35.6836C18.8036 35.8193 14.1004 35.8467 9.39258 35.7657C8.78727 35.6078 8.60959 35.2386 8.85938 34.6583C8.92771 34.5899 8.99612 34.5215 9.06445 34.4532C9.88477 34.4259 10.7051 34.3985 11.5254 34.3711C11.9379 33.3933 12.2934 32.3953 12.5918 31.377C9.1464 31.3907 5.70107 31.377 2.25586 31.336C1.11845 31.087 0.352826 30.4172 -0.0410156 29.3262C-0.0410156 22.2989 -0.0410156 15.2716 -0.0410156 8.24419C0.355944 6.95956 1.23094 6.26229 2.58398 6.1524C11.9374 6.07168 21.289 6.09903 30.6387 6.23443C31.7419 6.5994 32.4118 7.35136 32.6484 8.49029C32.6895 10.8963 32.7032 13.3027 32.6895 15.709C33.0953 15.6375 33.437 15.7469 33.7148 16.0372C33.9043 16.5782 34.1093 17.1114 34.3301 17.6368C34.9547 17.813 35.5562 18.0455 36.1348 18.334C36.5818 18.1516 37.0192 17.9465 37.4473 17.7188C37.666 17.6641 37.8847 17.6641 38.1035 17.7188C38.8008 18.3067 39.4433 18.9493 40.0312 19.6465C40.086 19.8379 40.086 20.0294 40.0312 20.2208C39.7989 20.6856 39.5664 21.1504 39.334 21.6153C39.6931 22.2005 39.9392 22.8293 40.0723 23.502C40.5939 23.6393 41.1135 23.7897 41.6309 23.9532C41.7297 24.0661 41.8391 24.1617 41.959 24.2403ZM2.50195 7.50591C11.8024 7.46555 21.0993 7.50657 30.3926 7.62896C30.8572 7.82029 31.1443 8.16209 31.2539 8.65435C31.2949 11.0058 31.3086 13.3573 31.2949 15.709C30.9161 15.6618 30.5743 15.7438 30.2695 15.9551C30.0722 16.506 29.8672 17.0529 29.6543 17.5958C29.0907 17.7882 28.5438 18.0206 28.0137 18.293C27.9043 18.3477 27.7949 18.3477 27.6855 18.293C27.3027 18.1016 26.9199 17.9102 26.5371 17.7188C26.253 17.6518 25.9795 17.6792 25.7168 17.8008C25.1563 18.3614 24.5957 18.922 24.0352 19.4825C23.9665 19.6343 23.8981 19.7847 23.8301 19.9336C24.0639 20.4974 24.31 21.0579 24.5684 21.6153C24.2771 22.1978 24.0311 22.7993 23.8301 23.42C23.2872 23.6328 22.7403 23.8379 22.1895 24.0352C21.9901 24.2243 21.9081 24.4567 21.9434 24.7325C15.0527 24.7325 8.16211 24.7325 1.27148 24.7325C1.25781 19.4551 1.27148 14.1777 1.3125 8.90044C1.37657 8.13991 1.77306 7.67506 2.50195 7.50591ZM31.2949 17.1036C31.7358 17.0767 32.1733 17.104 32.6074 17.1856C32.7751 17.7024 32.9665 18.2083 33.1816 18.7032C34.13 18.9738 35.0323 19.3566 35.8887 19.8516C36.0254 19.9063 36.1621 19.9063 36.2988 19.8516C36.6791 19.6615 37.0619 19.4701 37.4473 19.2774C37.5293 19.2227 37.6113 19.2227 37.6934 19.2774C37.9818 19.5521 38.2552 19.8392 38.5137 20.1387C38.2314 20.6232 38.0126 21.1291 37.8574 21.6563C38.0261 22.1172 38.2312 22.5683 38.4727 23.0098C38.626 23.4423 38.7626 23.8798 38.8828 24.3223C38.9835 24.5049 39.1339 24.628 39.334 24.6915C39.7383 24.8399 40.1485 24.963 40.5645 25.0606C40.5781 25.499 40.5644 25.9364 40.5234 26.3731C39.981 26.5445 39.4615 26.7633 38.9648 27.0294C38.7215 27.9259 38.3661 28.7735 37.8984 29.5723C37.8437 29.7637 37.8437 29.9552 37.8984 30.1465C38.1402 30.574 38.3316 31.0116 38.4727 31.459C38.1979 31.7475 37.9108 32.0209 37.6113 32.2794C37.1269 32.0027 36.621 31.784 36.0938 31.6231C35.6288 31.7846 35.1776 31.9897 34.7402 32.2383C34.3078 32.3917 33.8702 32.5283 33.4277 32.6485C33.25 32.7168 33.1269 32.8399 33.0586 33.0176C32.9163 33.4582 32.7659 33.8957 32.6074 34.3301C32.1793 34.4371 31.7554 34.4371 31.3359 34.3301C31.188 33.8591 31.024 33.3942 30.8438 32.9356C30.7442 32.8085 30.6211 32.7129 30.4746 32.6485C30.1153 32.5519 29.7599 32.4424 29.4082 32.3204C28.9063 32.042 28.3868 31.8096 27.8496 31.6231C27.3398 31.7959 26.8476 32.0146 26.373 32.2794C26.0736 32.0209 25.7864 31.7475 25.5117 31.459C25.6297 30.9752 25.8211 30.5104 26.0859 30.0645C26.1407 29.9278 26.1407 29.7911 26.0859 29.6544C25.6042 28.8275 25.235 27.9524 24.9785 27.0294C24.4742 26.7425 23.941 26.5237 23.3789 26.3731C23.338 25.9364 23.3243 25.499 23.3379 25.0606C23.956 24.9778 24.5166 24.7591 25.0195 24.4044C25.1162 24.0451 25.2256 23.6896 25.3477 23.3379C25.609 22.7608 25.8688 22.1866 26.127 21.6153C25.988 21.146 25.7829 20.7085 25.5117 20.3028C25.457 20.2208 25.457 20.1387 25.5117 20.0567C25.7864 19.7683 26.0736 19.4949 26.373 19.2364C26.8476 19.5011 27.3398 19.7199 27.8496 19.8926C28.4196 19.6352 28.9939 19.3754 29.5723 19.1133C29.9325 19.0165 30.2879 18.9071 30.6387 18.7852C30.7657 18.6856 30.8614 18.5626 30.9258 18.4161C31.0578 17.9794 31.1808 17.5419 31.2949 17.1036ZM31.8691 23.0098C33.5752 23.1436 34.5049 24.0597 34.6582 25.7579C34.6032 26.9892 34.0017 27.8369 32.8535 28.3008C31.281 28.6834 30.1462 28.1502 29.4492 26.7012C29.0491 25.3588 29.4182 24.2787 30.5566 23.461C30.9739 23.2172 31.4113 23.0668 31.8691 23.0098ZM1.27148 26.127C8.16211 26.127 15.0527 26.127 21.9434 26.127C21.9035 26.5535 21.9582 26.9636 22.1074 27.3575C22.6839 27.6272 23.2718 27.8733 23.8711 28.0958C24.0638 28.7425 24.2962 29.3713 24.5684 29.9825C17.1855 29.9962 9.80265 29.9825 2.41992 29.9415C1.92766 29.8319 1.58586 29.5448 1.39453 29.0801C1.28254 28.0996 1.24153 27.1152 1.27148 26.127ZM14.1504 31.377C15.5996 31.377 17.0488 31.377 18.498 31.377C18.7965 32.3953 19.1519 33.3933 19.5645 34.3711C17.4045 34.4122 15.2443 34.4259 13.084 34.4122C13.4162 33.3922 13.7717 32.3805 14.1504 31.377Z" fill="white"/>
<path opacity="0.928" fill-rule="evenodd" clip-rule="evenodd" d="M17.2676 10.541C17.9926 10.5946 18.2524 10.9773 18.0469 11.6895C17.3086 14.8887 16.5703 18.0879 15.8321 21.2871C15.7677 21.4336 15.672 21.5567 15.5449 21.6562C14.7565 21.8248 14.4147 21.5103 14.5196 20.7129C15.2643 17.4265 16.03 14.1452 16.8164 10.8691C16.9395 10.7076 17.0898 10.5983 17.2676 10.541Z" fill="white"/>
<path opacity="0.924" fill-rule="evenodd" clip-rule="evenodd" d="M12.7559 12.4277C13.4545 12.4569 13.7142 12.8123 13.5352 13.4941C13.4394 13.5899 13.3438 13.6855 13.248 13.7812C11.8262 14.5742 10.4043 15.3672 8.98242 16.1602C10.5472 16.9764 12.0647 17.8651 13.5352 18.8262C13.7081 19.4032 13.503 19.7313 12.9199 19.8105C12.568 19.7579 12.2399 19.6348 11.9355 19.4414C10.3355 18.5183 8.72222 17.616 7.0957 16.7344C6.76758 16.3515 6.76758 15.9688 7.0957 15.5859C8.99013 14.5298 10.8769 13.477 12.7559 12.4277Z" fill="white"/>
<path opacity="0.923" fill-rule="evenodd" clip-rule="evenodd" d="M19.5645 12.4277C19.8567 12.4659 20.1301 12.5616 20.3848 12.7148C22.0395 13.6653 23.7075 14.595 25.3887 15.5039C25.7902 15.8908 25.8175 16.3009 25.4707 16.7344C23.7207 17.7188 21.9707 18.7031 20.2207 19.6875C19.3997 20.0397 19.0032 19.78 19.0313 18.9082C19.0957 18.7617 19.1913 18.6386 19.3184 18.5391C20.7402 17.7461 22.1622 16.9532 23.584 16.1602C22.1481 15.3191 20.6989 14.4988 19.2363 13.6992C18.8438 13.141 18.9532 12.7171 19.5645 12.4277Z" fill="white"/>
<path opacity="0.93" fill-rule="evenodd" clip-rule="evenodd" d="M31.8692 21.6152C34.4237 21.832 35.8183 23.2128 36.0528 25.7578C35.8474 28.2601 34.4939 29.6136 31.9922 29.8184C30.246 29.7933 28.9882 29.0003 28.2188 27.4395C27.5124 25.4383 27.9636 23.7567 29.5723 22.3945C30.2829 21.9435 31.0485 21.6837 31.8692 21.6152ZM31.8692 23.0098C31.4114 23.0668 30.9739 23.2171 30.5567 23.4609C29.4183 24.2786 29.0491 25.3587 29.4493 26.7012C30.1463 28.1502 31.281 28.6834 32.8536 28.3008C34.0018 27.8369 34.6033 26.9892 34.6582 25.7578C34.5049 24.0596 33.5753 23.1436 31.8692 23.0098Z" fill="white"/>
</g>
<defs>
<clipPath id="clip0_212_7330">
<rect width="42" height="42" fill="white"/>
</clipPath>
</defs>
</svg>
