<svg width="45" height="45" viewBox="0 0 45 45" fill="none" xmlns="http://www.w3.org/2000/svg">
<g clip-path="url(#clip0_304_385)">
<path opacity="0.948" fill-rule="evenodd" clip-rule="evenodd" d="M31.9483 -0.0444336C35.7568 -0.0444336 39.5655 -0.0444336 43.374 -0.0444336C44.1797 0.292408 44.7071 0.878346 44.9561 1.71338C44.9561 3.93994 44.9561 6.16651 44.9561 8.39307C44.7075 9.30071 44.1216 9.872 43.1983 10.1069C42.378 10.1362 41.5576 10.1656 40.7373 10.1948C38.4229 11.645 36.1084 13.0952 33.794 14.5454C33.7647 14.4868 33.7353 14.4283 33.7061 14.3696C33.9786 12.9687 34.213 11.5625 34.4092 10.1509C33.5233 10.1881 32.6444 10.1441 31.7725 10.019C31.0676 9.72452 30.6135 9.21186 30.4102 8.48096C30.3516 6.16651 30.3516 3.85205 30.4102 1.5376C30.646 0.730586 31.1587 0.203242 31.9483 -0.0444336ZM32.3877 1.44971C35.9034 1.43506 39.4191 1.44971 42.9346 1.49365C43.0604 1.53454 43.1628 1.60779 43.2422 1.71338C43.3432 2.81862 43.3871 3.9319 43.374 5.05322C43.3594 6.10791 43.3448 7.1626 43.3301 8.21729C43.2124 8.4453 43.022 8.57714 42.7588 8.61279C41.9092 8.64209 41.0596 8.67139 40.21 8.70068C38.7745 9.59427 37.3389 10.4878 35.9033 11.3813C35.8741 11.3374 35.8447 11.2935 35.8155 11.2495C35.9858 10.3888 36.1322 9.52457 36.2549 8.65674C34.9948 8.67138 33.735 8.65673 32.4756 8.61279C32.2692 8.58239 32.1081 8.47986 31.9922 8.30518C31.8483 6.20135 31.8191 4.09197 31.9043 1.97705C32.0239 1.75534 32.185 1.57956 32.3877 1.44971Z" fill="#674CEF"/>
<path opacity="0.93" fill-rule="evenodd" clip-rule="evenodd" d="M-0.0439453 16.3911C-0.0439453 16.3325 -0.0439453 16.2739 -0.0439453 16.2153C0.389912 16.0021 0.814716 15.7677 1.23047 15.5122C1.70551 16.1977 2.15961 16.9009 2.59277 17.6216C4.87338 9.64269 10.0296 4.61828 18.0615 2.54833C21.5507 1.83285 25.0077 1.96469 28.4326 2.94384C28.3515 3.45079 28.2343 3.94883 28.0811 4.43798C21.1243 2.58132 14.9427 4.00222 9.53613 8.70068C6.98076 11.1586 5.22294 14.103 4.2627 17.5337C4.29199 17.5923 4.32129 17.6508 4.35059 17.7095C4.89284 17.365 5.44949 17.0427 6.02051 16.7427C6.40876 17.1131 6.65778 17.5526 6.76758 18.061C5.38331 18.9217 3.9917 19.7713 2.59277 20.6099C1.71291 19.2011 0.834004 17.7949 -0.0439453 16.3911Z" fill="#674CEF"/>
<path opacity="0.963" fill-rule="evenodd" clip-rule="evenodd" d="M33.2666 2.85596C36.1963 2.85596 39.126 2.85596 42.0557 2.85596C42.0557 3.35401 42.0557 3.85205 42.0557 4.3501C39.126 4.3501 36.1963 4.3501 33.2666 4.3501C33.2666 3.85205 33.2666 3.35401 33.2666 2.85596Z" fill="#674CEF"/>
<path opacity="0.958" fill-rule="evenodd" clip-rule="evenodd" d="M33.2666 5.75635C35.2295 5.75635 37.1924 5.75635 39.1553 5.75635C39.1553 6.2544 39.1553 6.75244 39.1553 7.25049C37.1924 7.25049 35.2295 7.25049 33.2666 7.25049C33.2666 6.75244 33.2666 6.2544 33.2666 5.75635Z" fill="#674CEF"/>
<path opacity="0.892" fill-rule="evenodd" clip-rule="evenodd" d="M40.4736 5.75635C41.001 5.75635 41.5283 5.75635 42.0557 5.75635C42.0557 6.2544 42.0557 6.75244 42.0557 7.25049C41.5283 7.25049 41.001 7.25049 40.4736 7.25049C40.4736 6.75244 40.4736 6.2544 40.4736 5.75635Z" fill="#674CEF"/>
<path opacity="0.941" fill-rule="evenodd" clip-rule="evenodd" d="M15.8643 44.9555C15.2198 44.9555 14.5752 44.9555 13.9307 44.9555C13.14 44.7643 12.4076 44.4274 11.7334 43.9447C8.17383 40.3852 4.61426 36.8256 1.05469 33.266C0.471522 32.4664 0.105311 31.5875 -0.0439453 30.6293C-0.0439453 30.2485 -0.0439453 29.8676 -0.0439453 29.4867C0.105775 28.5268 0.471987 27.6479 1.05469 26.85C2.28516 25.6195 3.51562 24.3891 4.74609 23.1586C6.56372 24.9616 8.36548 26.7779 10.1514 28.6078C9.1858 29.6173 8.20438 30.6134 7.20703 31.5961C7.03125 31.8598 7.03125 32.1235 7.20703 32.3871C8.02734 33.2074 8.84769 34.0278 9.66797 34.8481C10.1912 32.7724 11.4656 31.4101 13.4912 30.7612C15.2433 30.4136 17.0011 30.106 18.7646 29.8383C18.7784 29.7176 18.7638 29.6004 18.7207 29.4867C16.8507 28.3561 15.6936 26.7155 15.249 24.5649C14.0663 24.3346 13.3192 23.6315 13.0078 22.4555C12.9492 20.1117 12.9492 17.768 13.0078 15.4242C13.8124 10.9576 16.4344 8.24763 20.874 7.29435C25.5922 6.80362 29.0052 8.66396 31.1133 12.8754C31.4849 13.7174 31.7193 14.5963 31.8164 15.5121C31.875 18.9691 31.875 22.4262 31.8164 25.8832C31.6188 26.5793 31.1941 27.092 30.542 27.4213C29.7856 27.5277 29.0239 27.5863 28.2568 27.5971C27.6369 28.3391 26.9191 28.969 26.1035 29.4867C26.0604 29.6004 26.0458 29.7176 26.0596 29.8383C27.8231 30.106 29.5809 30.4136 31.333 30.7612C32.9255 31.2111 34.0534 32.1926 34.7168 33.7055C35.3087 35.4958 35.9093 37.283 36.5186 39.0668C31.3625 39.14 26.2063 39.184 21.0498 39.1987C21.3574 39.5063 21.665 39.8139 21.9727 40.1215C22.0313 40.2094 22.0313 40.2973 21.9727 40.3852C20.669 41.5717 19.3652 42.7582 18.0615 43.9447C17.3878 44.4284 16.6554 44.7653 15.8643 44.9555ZM21.3135 8.74455C24.9877 8.49381 27.7269 9.95867 29.5312 13.1391C30.3288 15.0572 30.5778 17.0493 30.2783 19.1156C30.0901 19.0189 29.8997 18.931 29.707 18.852C29.6633 18.5899 29.6486 18.3262 29.6631 18.061C27.6652 18.1768 25.8488 17.6641 24.2139 16.5229C23.6123 15.9797 23.0117 15.4378 22.4121 14.8969C21.7506 15.5291 21.0622 16.1296 20.3467 16.6986C18.7412 17.73 16.9834 18.184 15.0732 18.061C15.0732 18.3539 15.0732 18.6469 15.0732 18.9399C14.8819 18.9474 14.7061 19.006 14.5459 19.1156C13.9783 15.9133 14.7986 13.1448 17.0068 10.81C18.2658 9.74096 19.7014 9.05243 21.3135 8.74455ZM22.3682 17.0063C23.998 18.5238 25.9316 19.3734 28.1689 19.5551C28.1836 20.991 28.1689 22.4265 28.125 23.8617C28.0312 24.6118 27.7968 25.3149 27.4219 25.9711C25.744 26.0584 24.0594 26.0877 22.3682 26.059C22.3682 26.5571 22.3682 27.0551 22.3682 27.5531C23.599 27.5385 24.8295 27.5531 26.0596 27.5971C23.7813 29.3069 21.4375 29.3948 19.0283 27.8608C17.7453 26.8627 16.969 25.5589 16.6992 23.9496C16.6553 22.4851 16.6406 21.0202 16.6553 19.5551C18.8814 19.3936 20.7857 18.544 22.3682 17.0063ZM14.9854 20.6098C15.087 21.3266 15.1016 22.0591 15.0293 22.807C14.2895 22.0894 14.2748 21.357 14.9854 20.6098ZM29.6631 20.6098C29.8275 20.6413 29.9594 20.7292 30.0586 20.8735C30.5173 21.6463 30.4001 22.3201 29.707 22.8949C29.6631 22.1338 29.6485 21.3721 29.6631 20.6098ZM30.2783 24.3012C30.4026 24.764 30.388 25.2327 30.2344 25.7074C29.9321 26.0477 29.5659 26.1356 29.1357 25.9711C29.3228 25.5454 29.4692 25.1059 29.5752 24.6528C29.839 24.5794 30.0734 24.4623 30.2783 24.3012ZM4.70215 25.3559C5.78307 26.3928 6.8524 27.4475 7.91016 28.5199C7.78646 28.8227 7.58138 29.0864 7.29492 29.311C6.24023 28.2563 5.18555 27.2016 4.13086 26.1469C4.07226 26.0883 4.07226 26.0297 4.13086 25.9711C4.33935 25.7775 4.52979 25.5723 4.70215 25.3559ZM2.85645 27.2016C3.93737 28.2385 5.0067 29.2932 6.06445 30.3656C5.93265 30.6799 5.78617 31.0021 5.625 31.3324C5.48322 32.0593 5.60041 32.7332 5.97656 33.3539C7.86621 35.2436 9.75586 37.1332 11.6455 39.0229C12.6531 39.6031 13.6053 39.5299 14.502 38.8031C15.5566 39.8578 16.6113 40.9125 17.666 41.9672C17.5573 42.2551 17.3669 42.5041 17.0947 42.7143C15.6294 43.7103 14.1645 43.7103 12.7002 42.7143C9.22852 39.2426 5.75684 35.7709 2.28516 32.2992C1.13166 30.447 1.32209 28.7478 2.85645 27.2016ZM20.5225 30.2778C21.7822 30.5122 23.042 30.5122 24.3018 30.2778C23.6897 30.9339 23.0598 31.5784 22.4121 32.2113C21.7644 31.5784 21.1345 30.9339 20.5225 30.2778ZM19.1162 31.2445C20.1984 32.2974 21.2824 33.3521 22.3682 34.4086C23.4509 33.3698 24.5203 32.3151 25.5762 31.2445C27.5291 31.6059 29.4774 32.0014 31.4209 32.4311C32.118 32.7426 32.66 33.226 33.0469 33.8813C33.536 35.1144 33.9901 36.3595 34.4092 37.6166C29.4287 37.6752 24.4483 37.6752 19.4678 37.6166C18.5413 36.6607 17.5891 35.7379 16.6113 34.8481C15.543 35.799 14.4737 36.7512 13.4033 37.7045C13.181 37.8295 12.9466 37.8588 12.7002 37.7924C12.0546 37.264 11.4687 36.678 10.9424 36.0346C11.1693 35.0588 11.5648 34.1652 12.1289 33.3539C12.64 32.842 13.2405 32.4758 13.9307 32.2553C15.6744 31.9357 17.403 31.5987 19.1162 31.2445ZM16.4795 36.9574C17.6292 37.9749 18.7424 39.0443 19.8193 40.1654C19.541 40.4438 19.2627 40.7221 18.9844 41.0004C17.9297 39.9457 16.875 38.891 15.8203 37.8363C15.7617 37.7777 15.7617 37.7192 15.8203 37.6606C16.0581 37.4377 16.2778 37.2033 16.4795 36.9574Z" fill="#674CEF"/>
<path opacity="0.929" fill-rule="evenodd" clip-rule="evenodd" d="M40.21 13.4028C41.6991 14.2355 43.1639 15.1144 44.6045 16.0396C44.3886 16.5033 44.1103 16.9135 43.7695 17.27C43.103 16.9256 42.4585 16.5447 41.8359 16.1274C43.5979 22.1879 42.8655 27.9301 39.6387 33.354C39.2184 34.049 38.735 34.6936 38.1885 35.2876C37.7796 34.9957 37.3988 34.6735 37.0459 34.3208C41.139 28.9278 42.2083 22.9805 40.2539 16.479C39.8718 17.1856 39.447 17.8595 38.9795 18.5005C38.5157 18.2846 38.1055 18.0063 37.749 17.6655C38.5903 16.2538 39.4106 14.833 40.21 13.4028Z" fill="#674CEF"/>
</g>
<defs>
<clipPath id="clip0_304_385">
<rect width="45" height="45" fill="white" transform="translate(0 -0.000488281)"/>
</clipPath>
</defs>
</svg>
