<svg width="200" height="18" viewBox="0 0 200 18" fill="none" xmlns="http://www.w3.org/2000/svg">
<path fill-rule="evenodd" clip-rule="evenodd" d="M119.359 8.19829C92.8167 8.5171 66.2617 9.7818 39.8354 12.0424C27.2715 13.1174 12.681 12.983 0.495611 16.6479C-0.111557 16.8324 0.00407611 17.3857 0.0172183 17.441C0.0435026 17.5543 0.153925 17.931 0.637557 17.9495C0.690126 17.9521 1.06071 17.8994 1.20264 17.881C4.80097 17.4067 8.38616 16.8535 11.9871 16.4056C24.4196 14.8537 36.8889 13.6812 49.3766 12.6537C65.9515 11.2889 82.6683 10.5617 99.2879 9.99257C108.385 9.68167 117.7 10.0953 126.826 9.45243C130.177 9.43399 133.529 9.43141 136.88 9.44195C150.889 9.49201 164.883 10.0242 178.869 10.754C183.366 10.9885 186.796 11.2415 191.199 11.4127C192.871 11.4786 195.523 11.5234 197.368 11.5524C197.639 11.5577 198.33 11.5629 198.616 11.5655C198.645 11.5708 198.674 11.5708 198.706 11.5708C198.816 11.5708 198.869 11.5629 198.879 11.5629C199.505 11.4707 199.447 10.8779 199.431 10.7883C199.429 10.7698 199.334 10.2692 198.795 10.2508C198.666 10.2455 197.744 10.2403 197.389 10.235C195.554 10.206 192.913 10.1612 191.249 10.098C186.854 9.92674 183.427 9.67381 178.937 9.43931C164.93 8.70949 150.916 8.17464 136.885 8.12458C135.171 8.11931 133.455 8.11667 131.741 8.1193C131.683 7.96912 131.555 7.8005 131.271 7.72673C131.005 7.65823 129.105 7.59763 128.372 7.53703C122.944 7.08913 123.104 7.1102 117.132 6.74397C108.088 6.18804 106.711 6.06152 97.3034 5.82702C80.216 5.40019 63.1207 5.43449 46.0306 5.47665C37.5933 5.50036 28.5594 6.07209 19.9933 5.00502C22.8162 4.67304 25.6497 4.43065 28.4779 4.154C38.1348 3.21076 47.7995 2.62582 57.4958 2.2148C80.7548 1.2294 104.051 0.836857 127.302 2.18058C122.352 2.228 117.406 2.33863 112.456 2.40977C92.3094 2.70486 71.968 2.48356 51.8631 4.01435C51.503 4.04333 51.2323 4.35948 51.2585 4.72044C51.2848 5.08404 51.6029 5.35543 51.9629 5.32908C72.0415 3.7983 92.3541 4.02223 112.475 3.72714C119.95 3.61911 127.423 3.42416 134.898 3.48213C137.463 3.5032 140.029 3.59807 142.594 3.62969C143.101 3.63759 144.408 3.73771 144.594 3.69556C145.007 3.60334 145.096 3.29769 145.122 3.14751C145.136 3.05793 145.178 2.54152 144.547 2.35708C140.242 1.09768 132.296 1.15564 128.111 0.907974C104.574 -0.488441 80.9888 -0.0985087 57.4406 0.897425C47.7207 1.31108 38.0323 1.89866 28.3491 2.84454C24.9663 3.17388 21.5756 3.45843 18.206 3.8958C17.6619 3.96694 16.4397 4.06971 15.8483 4.17773C15.6012 4.22252 15.4225 4.28572 15.3436 4.33051C15.0361 4.5044 14.9809 4.75734 14.9809 4.9286C14.9783 5.06034 15.0335 5.52405 15.6774 5.65052C25.4894 7.57651 36.1661 6.82037 46.0332 6.79402C63.1128 6.75186 80.195 6.71757 97.2719 7.1444C106.655 7.37889 108.027 7.50278 117.053 8.05871C117.945 8.1114 118.699 8.15877 119.359 8.19829Z" fill="#EE3073"/>
</svg>
