<svg width="42" height="42" viewBox="0 0 42 42" fill="none" xmlns="http://www.w3.org/2000/svg">
<path opacity="0.996" fill-rule="evenodd" clip-rule="evenodd" d="M4.55274 5.20899C15.4903 5.19531 26.4278 5.20899 37.3652 5.25C38.3906 5.50977 39.0332 6.15234 39.293 7.17774C39.3477 16.3652 39.3477 25.5527 39.293 34.7402C39.0332 35.7656 38.3906 36.4082 37.3652 36.668C26.4278 36.7227 15.4902 36.7227 4.55274 36.668C3.52735 36.4082 2.88477 35.7656 2.625 34.7402C2.57031 25.5527 2.57031 16.3652 2.625 7.17774C2.89972 6.15114 3.54231 5.49489 4.55274 5.20899ZM5.20899 6.52149C6.30273 6.52149 7.39649 6.52149 8.49024 6.52149C8.49024 7.61523 8.49024 8.70901 8.49024 9.80274C6.95898 9.80274 5.42774 9.80274 3.89649 9.80274C3.86705 9.00506 3.90806 8.21207 4.01953 7.42383C4.25098 6.8925 4.64746 6.59171 5.20899 6.52149ZM9.80274 6.52149C11.334 6.52149 12.8652 6.52149 14.3965 6.52149C14.3965 7.61523 14.3965 8.70901 14.3965 9.80274C12.8652 9.80274 11.334 9.80274 9.80274 9.80274C9.80274 8.70901 9.80274 7.61523 9.80274 6.52149ZM15.709 6.52149C17.2403 6.52149 18.7715 6.52149 20.3027 6.52149C20.3027 7.61523 20.3027 8.70901 20.3027 9.80274C18.7715 9.80274 17.2403 9.80274 15.709 9.80274C15.709 8.70901 15.709 7.61523 15.709 6.52149ZM21.6152 6.52149C23.1465 6.52149 24.6777 6.52149 26.209 6.52149C26.209 7.61523 26.209 8.70901 26.209 9.80274C24.6777 9.80274 23.1465 9.80274 21.6152 9.80274C21.6152 8.70901 21.6152 7.61523 21.6152 6.52149ZM27.5215 6.52149C29.0528 6.52149 30.584 6.52149 32.1152 6.52149C32.1152 7.61523 32.1152 8.70901 32.1152 9.80274C30.584 9.80274 29.0528 9.80274 27.5215 9.80274C27.5215 8.70901 27.5215 7.61523 27.5215 6.52149ZM33.4277 6.52149C34.5218 6.50782 35.6156 6.52149 36.709 6.5625C37.461 6.65821 37.8847 7.08203 37.9805 7.83399C38.0215 8.48966 38.0351 9.14591 38.0215 9.80274C36.4902 9.80274 34.959 9.80274 33.4277 9.80274C33.4277 8.70901 33.4277 7.61523 33.4277 6.52149ZM3.89649 11.1152C15.2715 11.1152 26.6465 11.1152 38.0215 11.1152C38.0215 17.6777 38.0215 24.2402 38.0215 30.8027C26.6465 30.8027 15.2715 30.8027 3.89649 30.8027C3.89649 24.2402 3.89649 17.6777 3.89649 11.1152ZM18.498 17.1855C18.7529 17.1733 18.999 17.2143 19.2363 17.3086C21.2846 18.3327 23.3354 19.3581 25.3887 20.3848C25.6417 20.6303 25.6828 20.9037 25.5117 21.2051C23.2947 22.4024 21.0389 23.5235 18.7441 24.5684C18.4195 24.5035 18.2145 24.3121 18.1289 23.9941C18.0742 21.916 18.0742 19.8379 18.1289 17.7598C18.1408 17.4896 18.2639 17.2983 18.498 17.1855ZM3.89649 32.1152C5.42774 32.1152 6.95898 32.1152 8.49024 32.1152C8.49024 33.209 8.49024 34.3028 8.49024 35.3965C7.39614 35.4102 6.3024 35.3965 5.20899 35.3555C4.45703 35.2597 4.03321 34.836 3.9375 34.084C3.89651 33.4283 3.88284 32.7721 3.89649 32.1152ZM9.80274 32.1152C11.334 32.1152 12.8652 32.1152 14.3965 32.1152C14.3965 33.209 14.3965 34.3028 14.3965 35.3965C12.8652 35.3965 11.334 35.3965 9.80274 35.3965C9.80274 34.3028 9.80274 33.209 9.80274 32.1152ZM15.709 32.1152C17.2403 32.1152 18.7715 32.1152 20.3027 32.1152C20.3027 33.209 20.3027 34.3028 20.3027 35.3965C18.7715 35.3965 17.2403 35.3965 15.709 35.3965C15.709 34.3028 15.709 33.209 15.709 32.1152ZM21.6152 32.1152C23.1465 32.1152 24.6777 32.1152 26.209 32.1152C26.209 33.209 26.209 34.3028 26.209 35.3965C24.6777 35.3965 23.1465 35.3965 21.6152 35.3965C21.6152 34.3028 21.6152 33.209 21.6152 32.1152ZM27.5215 32.1152C29.0528 32.1152 30.584 32.1152 32.1152 32.1152C32.1152 33.209 32.1152 34.3028 32.1152 35.3965C30.584 35.3965 29.0528 35.3965 27.5215 35.3965C27.5215 34.3028 27.5215 33.209 27.5215 32.1152ZM33.4277 32.1152C34.959 32.1152 36.4902 32.1152 38.0215 32.1152C38.0351 32.7721 38.0215 33.4283 37.9805 34.084C37.8847 34.836 37.461 35.2597 36.709 35.3555C35.6156 35.3965 34.5218 35.4102 33.4277 35.3965C33.4277 34.3028 33.4277 33.209 33.4277 32.1152Z" fill="white"/>
<path opacity="0.931" fill-rule="evenodd" clip-rule="evenodd" d="M18.7441 15.709C19.0201 15.7615 19.2935 15.8299 19.5644 15.9141C21.7864 16.992 24.0012 18.0858 26.2089 19.1953C27.0445 19.9814 27.2223 20.8974 26.7421 21.9434C26.5918 22.2032 26.3867 22.4082 26.1269 22.5586C23.9221 23.6746 21.7073 24.7684 19.4824 25.8398C18.3589 26.1402 17.4975 25.7983 16.8984 24.8145C16.8173 24.5746 16.7627 24.3285 16.7343 24.0762C16.7206 23.0098 16.707 21.9434 16.6933 20.877C16.6845 19.6164 16.7255 18.3586 16.8163 17.1035C17.2005 16.2636 17.8431 15.7988 18.7441 15.709ZM18.498 17.1855C18.2638 17.2983 18.1407 17.4896 18.1288 17.7598C18.0741 19.8379 18.0741 21.916 18.1288 23.9941C18.2144 24.3121 18.4195 24.5035 18.7441 24.5684C21.0388 23.5235 23.2947 22.4024 25.5117 21.2051C25.6827 20.9037 25.6417 20.6303 25.3886 20.3848C23.3353 19.3581 21.2845 18.3327 19.2363 17.3086C18.999 17.2143 18.7529 17.1733 18.498 17.1855Z" fill="white"/>
</svg>
