<svg width="80" height="80" viewBox="0 0 80 80" fill="none" xmlns="http://www.w3.org/2000/svg">
<path fill-rule="evenodd" clip-rule="evenodd" d="M35.6074 30.0564C28.1813 23.952 22.164 16.6825 17.6423 8.21291C16.7379 6.52595 14.6336 5.88246 12.9293 6.78681C11.2423 7.69115 10.5987 9.79554 11.5031 11.4999C16.477 20.7695 23.051 28.7347 31.1902 35.4303C32.6684 36.6477 34.877 36.439 36.0944 34.9607C37.3118 33.4651 37.0857 31.2738 35.6074 30.0564Z" fill="#674CEF"/>
<path fill-rule="evenodd" clip-rule="evenodd" d="M31.6476 6.28254C32.0302 13.3086 32.3781 20.3347 32.8129 27.3608C32.9347 29.2738 34.5868 30.7347 36.4999 30.613C38.4129 30.4912 39.8738 28.8391 39.752 26.926C39.3173 19.9173 38.9694 12.9087 38.5867 5.88257C38.4824 3.97474 36.8303 2.50517 34.9172 2.613C33.0042 2.72082 31.5259 4.36428 31.6476 6.28254Z" fill="#674CEF"/>
<path fill-rule="evenodd" clip-rule="evenodd" d="M57.4667 7.70873C53.0146 14.4218 47.9713 20.613 42.893 26.8739C41.6756 28.3695 41.9016 30.5609 43.3972 31.7609C44.8929 32.9783 47.0843 32.7522 48.2843 31.2565C53.5017 24.8391 58.6843 18.4565 63.2756 11.5521C64.3365 9.95214 63.8842 7.79569 62.2842 6.73483C60.7016 5.67396 58.5276 6.10873 57.4667 7.70873Z" fill="#674CEF"/>
<path fill-rule="evenodd" clip-rule="evenodd" d="M74.7126 32.6652C62.643 33.2043 49.8256 33.2217 37.756 32.4565C35.843 32.3521 34.1908 33.7956 34.0691 35.7261C33.9474 37.6391 35.4082 39.2913 37.3213 39.413C49.6343 40.1782 62.7127 40.1608 75.0257 39.6217C76.9388 39.5347 78.4343 37.9 78.3473 35.987C78.2603 34.0739 76.6256 32.5782 74.7126 32.6652Z" fill="#674CEF"/>
<path fill-rule="evenodd" clip-rule="evenodd" d="M31.1807 34.8737C38.6242 43.9867 46.3286 52.9259 53.233 62.4563C54.3634 64.0042 56.5374 64.3519 58.1026 63.2215C59.6505 62.091 59.9982 59.917 58.8677 58.3692C51.8764 48.7344 44.0852 39.691 36.5548 30.4736C35.3374 28.9953 33.146 28.7693 31.6677 29.9867C30.1721 31.2041 29.9633 33.3954 31.1807 34.8737Z" fill="#674CEF"/>
<path fill-rule="evenodd" clip-rule="evenodd" d="M33.435 37.5179C35.3828 47.0136 35.922 56.0919 36.0611 65.7093C36.0785 67.6223 37.6611 69.1527 39.5742 69.1353C41.5046 69.1005 43.035 67.5353 43.0002 65.6048C42.8611 55.5353 42.2872 46.0571 40.2525 36.1092C39.8525 34.231 38.0264 33.0135 36.1307 33.4135C34.2525 33.7961 33.035 35.6397 33.435 37.5179Z" fill="#674CEF"/>
<path fill-rule="evenodd" clip-rule="evenodd" d="M33.749 36.7531C28.1142 48.0226 25.2099 60.5444 19.1751 71.5705C18.2533 73.2401 18.8793 75.3617 20.5662 76.2835C22.2532 77.2052 24.3577 76.5791 25.2794 74.9095C31.349 63.8138 34.288 51.2226 39.975 39.8661C40.8272 38.1443 40.1315 36.0574 38.4271 35.1878C36.7054 34.3356 34.6186 35.0313 33.749 36.7531Z" fill="#674CEF"/>
<path fill-rule="evenodd" clip-rule="evenodd" d="M36.8501 34.1956C25.6327 36.1782 14.4327 37.0825 3.14573 38.4217C1.23268 38.6477 -0.123839 40.3695 0.102248 42.2826C0.328335 44.1956 2.05024 45.5521 3.96328 45.3261C15.372 43.9869 26.7111 43.0478 38.0676 41.0478C39.9459 40.6999 41.2154 38.8912 40.885 37.013C40.5372 35.1173 38.7457 33.8478 36.8501 34.1956Z" fill="#674CEF"/>
<path fill-rule="evenodd" clip-rule="evenodd" d="M44.6554 28.9096C42.3423 28.8053 40.151 28.6487 37.8901 28.3182C35.9771 28.04 34.2205 29.3617 33.9423 31.2574C33.664 33.153 34.9857 34.927 36.8813 35.2052C39.3857 35.5705 41.8031 35.7444 44.3422 35.8487C46.2553 35.9357 47.89 34.4574 47.9596 32.5269C48.0465 30.6139 46.5684 28.9966 44.6554 28.9096Z" fill="#674CEF"/>
</svg>
